<svg xmlns="http://www.w3.org/2000/svg" width="207" height="128" fill="none">
  <path fill="#2688EB"
    d="M110.655 101.987c2.873 1.59 5.955 1.881 8.831 1.425.036.361.08.614.096.711.09.551.213 1.082.332 1.534.223.849.545 1.843.937 2.772a12.932 12.932 0 0 1-2.698-.736 2.5 2.5 0 0 0-2.625.503 13.067 13.067 0 0 1-3.508 2.372c-1.883.878-3.997 1.357-5.917 1.746-1.001.228-2.429.535-4.06.703-.767.08-1.435.56-1.803 1.238-.068.125-.138.249-.211.373l-.001.001-3.05 5.167c-3.37 5.705-10.725 7.601-16.433 4.232-.624-.368-1.418-.21-1.922.311a11.958 11.958 0 0 1-8.313 3.657L70 128c-1.48 0-2.897-.268-4.207-.758a12.043 12.043 0 0 1-6.06-5.026c1.326.505 2.763.784 4.265.784l.31-.004a11.918 11.918 0 0 0 5.262-1.368 12.056 12.056 0 0 0 3.882-3.244l1.09.644c5.707 3.369 13.065 1.473 16.434-4.232l3.05-5.167.001-.001c.291-.493.541-.999.754-1.513 2.148-.108 4.068-.516 5.32-.801 1.92-.389 4.034-.868 5.917-1.746a13.08 13.08 0 0 0 4.637-3.581ZM199.167 28.92c2.238.754 4.107 2.223 5.418 4.08 2.587 3.665 3 8.843-.206 13.029l-.296.371-2.821 3.398a1.997 1.997 0 0 0-.432 1.614l.743 4.354.072.47c.675 5.158-2.187 9.39-6.177 11.309-.707.34-1.235.992-1.316 1.772-.221 2.113-.54 4.675-.927 7.777-.726 6.092-1.28 10.277-1.804 13.171-.473 2.608-1.097 5.38-2.6 7.663l-.057.09-.061.086c-.896 1.287-2.145 2.639-4.085 3.656-1.506.79-3.103 1.182-4.122 1.427l-.129.03-.129.027c-1.472.303-3.115.386-4.768.302-.981-.049-1.872.567-2.314 1.444-.167.33-.316.574-.409.72l-.036.058c-.021.032-.035.057-.045.073h-.001c-.397.623-.805 1.076-.848 1.125-.162.184-.322.354-.447.485-.257.268-.556.565-.853.855-.605.591-1.365 1.31-2.132 2.023-1.35 1.253-3.126 2.861-4.144 3.67l.001.002-.042.032-.096.077-.002-.003c-.541.419-1.236.854-2.05 1.215a2.595 2.595 0 0 0-1.233 1.151 8.865 8.865 0 0 1-1.381 1.92c-.083.09-.168.177-.252.26l-.001-.001a9.57 9.57 0 0 1-2.421 1.712 13.09 13.09 0 0 1-1.706.702c-.963.323-2.1.595-3.234.716l-.062.007-.062.006c-1.229.112-3.266.204-5.372-.516a9.852 9.852 0 0 1-1.044-.427 2.52 2.52 0 0 0-1.1-.248c-.125 0-.246-.002-.364-.007v.003c-.041-.001-.084-.005-.128-.008l-.048-.001v-.001c-1.297-.068-3.677-.346-5.501-.582-1.04-.134-2.073-.277-2.906-.404-.409-.062-.82-.129-1.176-.194a16.87 16.87 0 0 1-.617-.124c-.08-.018-.672-.145-1.33-.402l-.207-.081-.202-.091c-.125-.058-.548-.237-1.104-.584a8.837 8.837 0 0 1-2.366-2.163 10.58 10.58 0 0 1-1.033-1.739l.24.06c.225.05.442.092.617.124.356.065.767.132 1.176.194.832.127 1.866.27 2.906.404 1.824.236 4.204.514 5.501.582v.001l.048.001c.044.003.087.007.128.008v-.003c.292.012.61.009.947-.012a9.765 9.765 0 0 0 1.561.694c2.106.72 4.143.628 5.372.516l.062-.006.062-.007a15.648 15.648 0 0 0 3.234-.716 13.09 13.09 0 0 0 1.706-.702 9.57 9.57 0 0 0 2.421-1.712l.001.001a8.96 8.96 0 0 0 2.02-3.001c1.182-.4 2.177-.988 2.896-1.545l.002.003.096-.077.042-.032-.001-.002c1.018-.809 2.794-2.417 4.144-3.67.767-.713 1.527-1.433 2.132-2.023.297-.289.596-.587.853-.855.125-.131.285-.301.447-.485.043-.049.451-.502.848-1.125h.001l.045-.073.036-.058a8.732 8.732 0 0 0 1.026-2.306c2.205.256 4.488.247 6.465-.16l.129-.026.129-.03c1.019-.246 2.617-.638 4.122-1.428 1.94-1.017 3.189-2.37 4.085-3.656l.06-.087.058-.088c1.504-2.284 2.127-5.056 2.6-7.664.524-2.894 1.078-7.079 1.804-13.17.469-3.76.838-6.724 1.053-9.06 4.592-1.597 8.107-6.14 7.367-11.8l-.072-.469-.898-5.26 3.408-4.106.296-.371c2.947-3.847 2.835-8.53.79-12.11Z" />
  <path fill="#2688EB"
    d="m161.808 86.829-.027-.054-.037-.092a6.2 6.2 0 0 0 .064.146ZM198.081 41.4l.296-.371c2.947-3.847 2.835-8.53.79-12.11 2.238.755 4.107 2.224 5.418 4.081-1.085-2-7.929-8.059-11.429-9.059-2.8-.8-1.656 7.393-.656 11.56l5.581 5.9ZM130.601 118.128a8.837 8.837 0 0 1-2.366-2.163 10.58 10.58 0 0 1-1.033-1.739l.24.06c.225.05.442.092.617.124.356.065.767.132 1.176.194.832.127 1.866.27 2.906.404l-5.771-6.685c-1.455.741-4.192 2.455-3.493 3.378.775 1.023 4.699 4.642 7.724 6.427ZM65.793 127.242a12.043 12.043 0 0 1-6.06-5.026c1.326.505 2.763.784 4.265.784l.31-.004a11.918 11.918 0 0 0 5.262-1.368l-.245-3.631H54.233c1.111 1.823 5.826 7.239 11.56 9.245Z" />
  <path fill="#fff" fill-rule="evenodd"
    d="M80.309 4.008C78.045 1.41 75.004.67 72.703.67c-2.19 0-5.15.675-7.396 3.121-.852.245-1.699.592-2.52 1.059-.835-.875-2.004-1.805-3.576-2.4-2.967-1.122-5.838-.51-7.941.767l-.41.263a9.23 9.23 0 0 0-1.133.91 9.335 9.335 0 0 0-1.262.722c-1.43.974-2.735 2.464-3.44 4.354a15.19 15.19 0 0 0-1.276.71l-.511.336c-1.597 1.088-2.804 2.438-3.719 3.904-1.522-1.151-3.636-2.261-6.277-2.42-2.9-.176-5.307.86-6.989 1.927l-.046.03-.044.028a16 16 0 0 0-2.81 2.332 15.714 15.714 0 0 0-2.774-2.819c-1.44-1.155-3.48-2.332-6.053-2.618l-.536-.046-.538-.018c-2.66-.027-4.874.945-6.453 1.946l-.09.058a15.948 15.948 0 0 0-3.942 3.652l-.02.027a1.136 1.136 0 0 1-.02.026l-.022.03C2.05 17.662.679 19.72.434 22.463l-.02.274c-.131 2.168.388 4.858 2.397 7.126l.093.105.095.101c1.749 1.84 3.854 2.62 5.633 2.895a9.882 9.882 0 0 0 1.312 3.933c1.178 1.988 2.874 3.252 4.535 3.986a11.21 11.21 0 0 0-1.41 3.126c-1.058 3.82.155 7.606.849 9.772l.024.075.031.096c2.83 8.468 11.033 22.545 19.916 34.74l.01.014c6.233 8.52 12.059 14.881 19.17 17.338A11.953 11.953 0 0 0 51.997 111c0 6.627 5.374 12 12 12l.31-.004a11.957 11.957 0 0 0 8.313-3.656c.504-.521 1.298-.68 1.922-.312 5.708 3.369 13.064 1.473 16.433-4.232l3.052-5.168a9.8 9.8 0 0 0 .21-.372c.368-.679 1.036-1.159 1.804-1.238 1.63-.169 3.058-.476 4.059-.704 1.92-.389 4.035-.868 5.917-1.746a13.05 13.05 0 0 0 3.508-2.372 2.499 2.499 0 0 1 2.625-.502c2.2.87 4.478 1.063 6.657.811a.705.705 0 0 1 .769.586l.005.032c.09.551.214 1.083.333 1.534.231.878.566 1.914.976 2.87l.01.024c.078.193.561 1.388 1.333 2.414a8.807 8.807 0 0 0 3.426 2.727l.044.02.202.092.207.081a9.153 9.153 0 0 0 1.317.398l.013.003c.224.051.442.092.616.124.357.066.767.132 1.177.194.832.128 1.865.271 2.905.405 1.825.235 4.205.515 5.501.583h.025l.024.001.128.005c.117.004.239.007.364.006.38-.001.757.083 1.1.248.339.162.687.305 1.044.427 2.105.721 4.143.628 5.372.516l.061-.006.063-.007a15.624 15.624 0 0 0 3.233-.716 12.978 12.978 0 0 0 1.706-.702 9.558 9.558 0 0 0 2.422-1.711 8.883 8.883 0 0 0 1.633-2.179c.272-.51.706-.918 1.234-1.151a9.942 9.942 0 0 0 2.148-1.29l.022-.018.019-.016c1.017-.808 2.794-2.416 4.143-3.67.768-.713 1.528-1.432 2.132-2.022.297-.29.597-.588.854-.856.125-.13.285-.3.447-.485l.009-.01c.073-.083.462-.521.839-1.114l.004-.006.01-.017.031-.05.037-.059c.092-.145.242-.39.408-.72.442-.877 1.334-1.493 2.314-1.444 1.654.084 3.296.001 4.769-.302l.129-.026.129-.03c1.018-.246 2.616-.638 4.122-1.427 1.939-1.018 3.188-2.37 4.085-3.656l.059-.087.059-.088c1.503-2.284 2.127-5.057 2.599-7.664.525-2.894 1.078-7.08 1.804-13.171.388-3.103.707-5.665.927-7.778.082-.78.61-1.432 1.316-1.772 3.99-1.918 6.852-6.15 6.177-11.31l-.071-.468-.744-4.355a2 2 0 0 1 .433-1.614l2.82-3.398.296-.37c5.918-7.726-.494-18.832-10.143-17.57l-.469.072-5.261.898-4.105-3.409-.371-.295c-1.908-1.462-4.023-2.17-6.106-2.264-.325-1.986-1.206-4.036-2.927-5.758-1.947-1.962-4.556-3.103-7.426-3.103-1.602 0-3.593.287-5.543 1.363-1.856 1.024-3.141 2.457-4.012 3.763l-.006.01-.27.407-.199.284-.05.07a11.92 11.92 0 0 0-2.242-3.848c-1.94-2.247-4.425-3.566-6.967-4.206l-.025-.005c-1.791-.45-3.686-.649-5.584-.691l-.817-.009c-2.917 0-5.848.235-8.409 1.01l-.012.003-.011.003c-1.708.521-3.778 1.527-5.425 3.486a10.28 10.28 0 0 0-2.327 5.31 50.415 50.415 0 0 0-1.504-.168l-1.2-.106-2.246-.181c-1.665-.135-3.218-.214-4.51-.18-1.094.02-2.38.157-3.713.577-1.074-1.266-2.474-2.365-4.279-3.148-3.227-1.4-6.716-1.536-9.868-1.203a27.75 27.75 0 0 0-3.705.623 13.702 13.702 0 0 0-2.26-4.52c-1.666-2.216-3.817-3.553-6.075-4.237Z"
    clip-rule="evenodd" />
  <path fill="#2688EB"
    d="M83.371 50.479c2.324-1.66 8.36-2.452 11.712-1.441 1.156.407 1.673.698 2.476 1.71.918 1.224 1.048 1.51 1.75 4.935.47 2.155.941 5.159 1.071 7.144.268 3.582.506 4.465 1.247 4.716 1.156.407 1.543-.437 2.62-5.964.976-4.812 1.445-6.057 2.518-6.948 1.916-1.354 4.69-1.396 7.811.043 3.447 1.534 5.589 3.538 5.971 5.631.328 1.794-.276 3.141-3.129 6.983-2.472 3.387-2.642 3.727-2.478 4.624.095.524.443 1.156.735 1.489.293.333 2.755 1.97 5.379 3.653 5.515 3.552 6.569 4.673 6.781 7.107.261 3.12-2.062 7.329-5.35 9.629-2.956 2.006-6.286 2.382-8.407.915-.987-.747-2.981-3.627-5.73-8.534-2.579-4.396-3.001-5.014-3.599-4.905-.747.136-.652 1.51.262 6.519 1.064 5.831 1.045 6.994-.191 8.687-1.236 1.693-2.453 2.225-6.402 3.023-3.337.763-7.986 1.533-10.089-1.946-.36-.707-1.2-4.88-2.768-13.477-2.36-12.935-3.262-19.57-3.803-26.346-.35-4.88-.166-5.995 1.614-7.247ZM60.06 30.11c4.722-1.512 9.24-1.427 12.018.235.762.47 1.433.97 1.462 1.063.03.093.36.803.782 1.484 1.052 2.01 2.037 7.003 2.746 14.636 1.769 19.234.494 35.974-3.445 44.074-1.796 3.637-2.449 4.152-7.881 5.993-3.766 1.308-4.907 1.571-6.444 1.553-5.777-.192-10.955-4.25-18.941-15.167-8.741-12.001-16.361-25.28-18.795-32.565-1.6-4.999-1.278-6.225 2.377-8.518 2.385-1.478 9.11-3.427 11.876-3.394 5.903-.052 9.511 4.202 12.579 15.06.734 2.93 1.97 7.433 2.493 10.021 1.29 5.303 2.008 6.91 3.812 7.762 1.344.692 2.826.218 3.518-1.126.944-1.833.604-4.174-1.879-12.565-4.083-13.391-4.65-19.947-2.292-24.376 1.163-2.107 2.496-3.044 6.014-4.17Zm107.114 24.441c1.436-1.13 3.226-1.376 6.471-.99 3.169.379 4.266.815 5.547 2.269 1.689 1.884 1.737 2.12.089 15.318-1.457 12.225-2.116 15.821-3.144 17.383-.738 1.06-1.387 1.365-3.514 1.877-1.647.34-4.383.166-6.752-.498-2.588-.768-3.962-2.08-4.465-4.283-.318-1.186-.174-2.393.886-11.297 1.735-14.566 2.602-17.984 4.882-19.779ZM130.566 35.77c2.941-.4 7.957.627 9.283 1.902.349.34.894 1.005 1.145 1.564.523.89.508 1.043-.014 4.81-1.492 10.543-1.855 14.25-1.671 15.49.329 2.093 1.646 2.681 3.36 1.551 1.307-.864 1.697-2.507 3.026-11.387.672-4.516 1.383-8.647 1.586-9.162.421-1.18 1.969-2.173 3.76-2.532 1.868-.351 5.998.359 7.595 1.202 2.529 1.47 3.212 3.065 3.334 7.277.157 3.07-.793 11.988-1.825 17.843-1.848 10.28-2.932 12.77-6.083 13.76-1.496.463-4.159.356-6.013-.208-3.117-.916-4.217-2.17-4.479-4.944l-.161-1.467-1.608 1.599c-1.857 1.803-4.448 3.306-6.398 3.725-1.867.352-4.507.017-6.112-.752-3.936-1.913-6.334-6.272-6.527-12.094-.162-5.362 2.236-20.475 4.094-25.41.534-1.55 2.014-2.628 3.708-2.767Z" />
  <path fill="#fff"
    d="M35.815 39.505c4.005-.036 6.95 1.912 9.39 6.557-4.991 1.724-8.972 7.161-10.706 12.939-1.679 5.601 4.452 20.48 7.738 27.487a132.258 132.258 0 0 1-1.88-2.507c-8.741-12-16.361-25.28-18.795-32.564-1.6-5-1.278-6.226 2.377-8.519 2.385-1.478 9.11-3.426 11.876-3.393ZM83.37 50.478c2.324-1.66 8.36-2.452 11.712-1.441 1.156.407 1.673.699 2.476 1.711.861 1.147 1.027 1.47 1.623 4.328-2.83-.565-5.992-1.139-10.683.425-5.207 1.736-4.264 13.893-4.033 22.413-1.564-9.068-2.26-14.58-2.708-20.189-.35-4.88-.166-5.995 1.614-7.247Zm83.803 4.075c1.436-1.13 3.226-1.376 6.471-.99 3.169.378 4.266.814 5.547 2.268 1.304 1.456 1.629 1.928.949 8.153-3.947-.826-13.096-.478-16.657 1.25 1.075-7.1 1.989-9.342 3.69-10.681Zm-60.409.078c1.916-1.354 4.69-1.396 7.811.043 2.343 1.043 4.082 2.303 5.077 3.66-4.629-.302-12.368 1.197-15.522 3.82.037-.187.078-.377.116-.575.976-4.813 1.445-6.057 2.518-6.948Zm23.801-18.86c2.941-.4 7.957.626 9.283 1.902.349.34.894 1.004 1.145 1.563.478.815.506 1.012.108 3.92-4.78.666-12.769 3.393-16.697 5.828.752-4.308 1.653-8.32 2.453-10.446.534-1.551 2.014-2.628 3.708-2.768Zm20.475 2.236c1.868-.352 5.998.358 7.595 1.202 1.377.8 2.206 1.639 2.695 2.916-3.398-.247-10.352.832-14.695 1.654.3-1.747.54-2.975.645-3.24.421-1.18 1.969-2.173 3.76-2.532ZM60.06 30.11c4.722-1.511 9.24-1.427 12.018.236.762.47 1.433.97 1.462 1.062.03.093.36.803.782 1.484.66 1.262 1.293 3.696 1.848 7.218-5.744-1.247-13.11-2.64-20.17.89-1.346.673-2.39 1.447-3.21 2.244-.38-3.938.063-6.723 1.256-8.964 1.163-2.107 2.496-3.044 6.014-4.17ZM168.418 29.991c-.469-2.745 2.73-4.592 4.873-2.813l5.875 4.877a3 3 0 0 0 2.421.648l7.526-1.286c2.745-.469 4.592 2.731 2.814 4.874l-.814.978c-6.115-.47-18.3.71-24.86 6.043l2.802-3.374a2.998 2.998 0 0 0 .648-2.42l-1.285-7.527Z"
    opacity=".2" />
  <path fill="#4DE9CA"
    d="M168.418 29.992c-.469-2.746 2.73-4.593 4.873-2.814l5.875 4.877a3 3 0 0 0 2.421.648l7.526-1.285c2.746-.47 4.593 2.73 2.814 4.873l-4.876 5.875a2.995 2.995 0 0 0-.649 2.421l1.285 7.526c.469 2.746-2.73 4.593-4.873 2.814l-5.875-4.877a3 3 0 0 0-2.421-.648l-7.526 1.285c-2.746.47-4.593-2.73-2.814-4.873l4.877-5.875a2.998 2.998 0 0 0 .648-2.421l-1.285-7.526Z" />
  <circle cx="64" cy="111" r="4" fill="#4DE9CA" />
  <rect width="14" height="14" x="77.117" y="95" fill="#4DE9CA" rx="4" transform="rotate(30.557 77.117 95)" />
  <path fill="#FD71A4"
    d="M114.231 33.501c-.122.728.212 1.53 1.043 1.858l2.297.904.58 2.401c.388 1.601 2.605 1.755 3.209.223l.622-1.58c2.029 6.015-2.442 12.43-4.32 14.002-2.541.797-11.553 1.088-15.065-5.331a5.106 5.106 0 0 1-.538-3.313c.196-1.157.764-2.253 1.626-3.134a6.453 6.453 0 0 1 3.176-1.774c1.203-.272 2.438-.182 3.528.257.218-1.155.808-2.243 1.686-3.11a6.458 6.458 0 0 1 2.156-1.403Zm1.597-.403a5.85 5.85 0 0 1 2.971.41 5.111 5.111 0 0 1 2.63 2.49.869.869 0 0 0-.033.073l-.966 2.449-.053.11c-.303.503-1.105.41-1.253-.2l-.619-2.56a.69.69 0 0 0-.416-.476l-2.448-.966c-.623-.246-.561-1.148.09-1.306l.097-.024Z" />
  <path fill="#FD71A4"
    d="M119.732 29.64c.246-.625 1.148-.562 1.306.09l.619 2.558a.689.689 0 0 0 .416.477l2.448.966c.624.246.562 1.149-.09 1.306l-2.558.62a.687.687 0 0 0-.478.415l-.965 2.448c-.247.624-1.149.562-1.307-.09l-.619-2.558a.688.688 0 0 0-.416-.477l-2.448-.966c-.624-.246-.561-1.149.09-1.307l2.559-.619a.687.687 0 0 0 .477-.415l.966-2.449ZM138.133 107.606c-1.637-.064-8.569-.962-9.107-1.172-.378-.173-.422-.218-.775-1.045-.457-1.06-.872-2.632-.804-3.065.028-.186.129-.424.218-.511.414-.544 6.443-5.59 7.112-5.98.321-.19.455-.234.729-.204.583.078 1.669 1.083 2.242 2.046.702 1.275.629 1.416-1.418 3.012-.849.653-1.698 1.307-1.894 1.429-.197.122-.358.261-.349.288.017.053 1.043.137 2.308.231 1.443.098 2.397.233 2.635.333.344.155.396.226.549.706.282.881.144 2.747-.262 3.407-.181.352-.644.558-1.184.525ZM144.973 108.828c-1.8.164-2.691-.139-2.972-1.019-.384-1.2-1.385-15.167-1.174-16.44.182-1.175 1.624-1.813 3.365-1.518.769.107 1.217.404 1.396.964.308.96 2.114 12.671 2.348 15.33.078.887-.027 1.479-.34 1.785-.35.376-1.657.795-2.623.898ZM153.208 102.783c-.421.34-.918.44-1.27.259-.713-.301-1.909-1.741-2.191-2.621-.153-.48-.152-.569.038-.894.135-.22.834-.884 1.952-1.8.948-.804 1.735-1.467 1.718-1.52-.008-.027-.194-.056-.424-.041-.231.015-1.302-.025-2.373-.064-2.593-.111-2.76-.175-2.902-1.63-.12-1.107.208-2.564.638-2.967.206-.183.339-.226.711-.257.745-.062 8.61.538 9.262.74.124.02.344.155.475.29.306.313.881 1.834 1.124 2.962.193.879.184.94-.051 1.31-.289.475-5.411 5.23-6.707 6.233ZM10.116 25.086c-.575-.034-1.013-.21-1.315-.528-.3-.339-.433-.785-.4-1.339.031-.51.325-1.123.881-1.838a7.945 7.945 0 0 1 2.004-1.866c.8-.508 1.541-.74 2.223-.7.681.042 1.388.362 2.121.962a7.716 7.716 0 0 1 1.831 2.067c.487.777.715 1.432.683 1.965-.034.553-.22.98-.559 1.28-.337.279-.793.401-1.368.366-.511-.03-.968-.25-1.37-.66a10.625 10.625 0 0 1-.981-1.277 10.797 10.797 0 0 0-.525-.866c-.137.142-.401.447-.793.914-.37.47-.767.852-1.191 1.146-.401.276-.815.4-1.241.374ZM21.535 34.24c-1.618-.098-2.866-.312-3.744-.643-.876-.352-1.283-1.04-1.222-2.061.064-1.044.572-1.676 1.526-1.896.955-.241 2.263-.312 3.924-.211l1.469.089c1.533.092 2.727.325 3.58.697.877.352 1.284 1.029 1.224 2.03-.06.98-.535 1.602-1.427 1.869-.871.268-2.031.358-3.48.27l-1.85-.144ZM29.368 26.25c-.575-.034-1.013-.21-1.314-.528-.3-.338-.434-.785-.4-1.338.03-.511.324-1.124.88-1.838a7.947 7.947 0 0 1 2.005-1.867c.8-.507 1.54-.74 2.222-.7.681.042 1.389.363 2.122.963a7.718 7.718 0 0 1 1.83 2.066c.488.777.715 1.432.683 1.965-.033.553-.22.98-.558 1.28-.338.28-.794.401-1.369.366-.51-.03-.968-.25-1.37-.66-.38-.428-.707-.854-.981-1.277a10.789 10.789 0 0 0-.525-.865c-.137.141-.4.446-.793.914a5.66 5.66 0 0 1-1.19 1.146c-.402.275-.816.4-1.242.374Z" />
  <path fill="#9195F6"
    d="M164.104 22.38c.286 1.208.169 2.441-.353 3.7-.507 1.254-1.296 2.48-2.367 3.68.358.781.659 1.687.903 2.716.268 1.135.291 2.13.068 2.986-.226.841-.735 1.356-1.526 1.543-.716.17-1.314.106-1.794-.19-.468-.315-.785-.823-.951-1.524-.208-.88-.4-1.591-.576-2.133-.731.504-1.428.921-2.091 1.251-.662.33-1.225.55-1.687.66-.746.176-1.382.122-1.906-.164-.528-.3-.859-.734-.994-1.301-.12-.507-.039-1.03.243-1.57.279-.555.752-1.021 1.418-1.4 1.165-.669 2.121-1.423 2.868-2.262.762-.842 1.347-1.666 1.755-2.471.409-.806.828-1.764 1.258-2.874l.203-.544c.231-.622.534-1.104.91-1.445.377-.341.893-.59 1.55-.745.671-.159 1.304-.048 1.898.331.59.365.981.95 1.171 1.756ZM100.442 31.176c.802.008 1.434.219 1.894.633.458.399.719.903.784 1.513.067.64-.1 1.244-.503 1.81-.404.552-.986.883-1.745.994-.805.116-1.969.27-3.49.461-1.523.176-3.162.357-4.916.542-2.622.277-4.159.4-4.61.37-.695-.018-1.274-.25-1.738-.695a2.558 2.558 0 0 1-.768-1.584 2.377 2.377 0 0 1 .407-1.615c.349-.5.875-.848 1.579-1.046.69-.18 2.78-.455 6.273-.824.368-2.351.585-4.101.648-5.249-.869.092-1.953.19-3.252.297-1.286.09-2.376.135-3.27.137a3.425 3.425 0 0 1-1.88-.496c-.56-.341-.878-.87-.953-1.587-.214-2.028 1.882-3.275 6.289-3.74 2.41-.254 4.357-.059 5.844.586 1.486.645 2.345 2.058 2.575 4.238.153 1.449.039 3.219-.342 5.31l1.174-.055ZM76.316 11.43c1.656 0 2.89.552 3.703 1.656.828 1.089 1.242 2.476 1.242 4.163 0 1.257-.161 2.469-.483 3.634-.322 1.165-.836 2.124-1.541 2.875-.69.751-1.549 1.127-2.576 1.127-.613 0-1.096-.184-1.449-.552-.337-.383-.506-.797-.506-1.242 0-.307.092-.606.276-.897.2-.307.475-.636.828-.989.353-.399.606-.797.759-1.196.153-.414.26-.912.322-1.495.046-.95-.138-1.58-.552-1.886-.414-.322-1.058-.49-1.932-.506-.43 2.055-.897 3.665-1.403 4.83-.552 1.18-1.112 2.085-1.679 2.714s-1.196.943-1.886.943c-.644 0-1.15-.192-1.518-.575a2.03 2.03 0 0 1-.552-1.426c0-.337.092-.682.276-1.035a7.15 7.15 0 0 1 .759-1.173c.859-1.135 1.434-2.56 1.725-4.278l-1.84-.046c-.828-.03-1.487-.245-1.978-.644-.49-.414-.736-1.004-.736-1.771 0-.72.307-1.288.92-1.702.629-.43 1.38-.644 2.254-.644.613 0 1.18.008 1.702.023.077-.859.284-1.518.621-1.978.337-.46.882-.69 1.633-.69s1.303.23 1.656.69c.353.46.544 1.142.575 2.047.445.015.905.023 1.38.023ZM63.585 23.585c-.659.449-1.35.687-2.072.716-.71.02-1.75-.089-3.117-.326a45.276 45.276 0 0 1-3.234-.663c-.947-.245-2.05-.542-3.308-.891-.635-.198-1.038-.313-1.209-.345a77.069 77.069 0 0 1-.075 3.975 12.14 12.14 0 0 1-.48 2.888c-.277.875-.713 1.515-1.308 1.92-.583.398-1.151.572-1.705.522-.562-.062-1.02-.353-1.374-.873-.578-.849-.91-1.866-.994-3.052a19.872 19.872 0 0 1 .096-3.822c.388-3.27 1.367-5.44 2.939-6.511a6.612 6.612 0 0 1 2.05-.952c.713-.207 1.586-.274 2.62-.2 1.026.063 2.306.294 3.842.696 2.358.601 4.103 1.202 5.236 1.803 1.137.58 2 1.3 2.586 2.162.32.47.427 1.008.323 1.617-.1.588-.372 1.034-.816 1.336Zm-8.412-8.63c-.355.242-.703.275-1.045.1-.338-.196-.702-.58-1.09-1.15-.337-.494-.522-.915-.555-1.264-.03-.37.134-.675.488-.917.672-.458 1.357-.173 2.057.853.38.558.587 1.038.62 1.442.038.383-.12.695-.475.936Zm2.357-1.606c-.355.242-.697.271-1.026.087-.326-.205-.67-.573-1.032-1.106-.717-1.051-.752-1.797-.106-2.238.685-.466 1.36-.211 2.024.764.803 1.179.85 2.01.14 2.493ZM150.296 20.396c0 1.411-.36 2.676-1.081 3.796a8.285 8.285 0 0 1-2.829 2.668 9.242 9.242 0 0 1-3.634 1.195c-.276 1.028-.736 1.84-1.38 2.439-.629.582-1.426.873-2.392.873a2.01 2.01 0 0 1-1.334-.506 1.68 1.68 0 0 1-.598-1.31c0-.368.038-.652.115-.851.077-.2.192-.415.345-.645.23-.352.399-.72.506-1.104.123-.398.184-1.004.184-1.817 0-.674.038-1.25.115-1.724a2.31 2.31 0 0 1 .644-1.22c.337-.352.843-.529 1.518-.529s1.211.23 1.61.69c.399.445.675 1.036.828 1.771.859-.367 1.518-.866 1.978-1.494.46-.645.69-1.373.69-2.186l-2.645.023c-1.227.031-2.622.047-4.186.047-1.135 0-2.055-.047-2.76-.139-.69-.091-1.265-.314-1.725-.667-.46-.367-.69-.935-.69-1.701 0-1.288.728-2.155 2.185-2.6 1.472-.444 3.504-.666 6.095-.666 1.763 0 3.251.153 4.462.46 1.227.306 2.193.874 2.898 1.702.721.828 1.081 1.993 1.081 3.495ZM115.333 27.351c-1.734.46-3.093.772-4.077.938-.985.165-1.796.158-2.434-.022-.62-.185-1.012-.621-1.174-1.309-.166-.702-.008-1.292.475-1.769.5-.482 1.232-.89 2.195-1.224.96-.35 2.341-.764 4.145-1.242l2.575-.682c1.751-.464 7.479-1.908 8.499-2.083 1.016-.19 1.86-.2 2.533-.028.673.17 1.093.607 1.259 1.31.162.687-.007 1.271-.507 1.753s-1.23.898-2.19 1.247c-.959.35-6.632 1.874-8.33 2.325l-2.969.786Z" />
</svg>