<?xml version="1.0" encoding="UTF-8"?>
<svg width="16px" height="16px" viewBox="0 0 16 16" version="1.1" xmlns="http://www.w3.org/2000/svg" xmlns:xlink="http://www.w3.org/1999/xlink">
    <!-- Generator: Sketch 48.2 (47327) - http://www.bohemiancoding.com/sketch -->
    <title>add_16</title>
    <desc>Created with Sketch.</desc>
    <defs>
        <path d="M9,9 L9,13 C9,13.5522847 8.55228475,14 8,14 L8,14 C7.44771525,14 7,13.5522847 7,13 L7,9 L3,9 C2.44771525,9 2,8.55228475 2,8 L2,8 C2,7.44771525 2.44771525,7 3,7 L7,7 L7,3 C7,2.44771525 7.44771525,2 8,2 L8,2 C8.55228475,2 9,2.44771525 9,3 L9,7 L13,7 C13.5522847,7 14,7.44771525 14,8 L14,8 C14,8.55228475 13.5522847,9 13,9 L9,9 Z" id="path-1"></path>
    </defs>
    <g id="Page-1" stroke="none" stroke-width="1" fill="none" fill-rule="evenodd">
        <g id="add_16">
            <rect id="Rectangle-2" x="0" y="0" width="16" height="16"></rect>
            <mask id="mask-2" fill="white">
                <use xlink:href="#path-1"></use>
            </mask>
            <use id="Mask" fill="#FFFFFF" xlink:href="#path-1"></use>
        </g>
    </g>
</svg>