<?xml version="1.0" encoding="UTF-8"?>
<svg width="16px" height="16px" viewBox="0 0 16 16" version="1.1" xmlns="http://www.w3.org/2000/svg" xmlns:xlink="http://www.w3.org/1999/xlink">
    <!-- Generator: Sketch 48.2 (47327) - http://www.bohemiancoding.com/sketch -->
    <title>fire_16</title>
    <desc>Created with Sketch.</desc>
    <defs>
        <path d="M8.54371111,0.0492152463 C8.76114402,0.210446157 8.93721212,0.339121831 9.07191543,0.435242267 C12.6784394,3.00875488 13.9848148,6.649186 14,9.23542037 C14,12.6514676 11.4287556,15 8.00042979,15 C4.57210396,15 2.04367603,12.6510511 2.00085959,9.23542037 C1.9889173,8.28273873 2.07190244,6.06774011 4.19365308,3.42144102 C4.78983967,2.67786259 5.30186892,2.16507362 5.72974083,1.88307413 L5.72975936,1.88310225 C5.8358056,1.81320987 5.97843204,1.84251836 6.04832442,1.9485646 C6.07765541,1.99306791 6.09061707,2.04637771 6.0849934,2.09937984 C6.06114763,2.32412186 6.03148301,2.60041552 5.99599956,2.92826084 C5.7899297,4.83221961 6.75301956,5.71431981 8.06958738,5.5195791 C9.34249103,5.331297 10.1715563,3.57919969 8.28385123,0.664351436 C8.23060117,0.582126816 8.18627318,0.462324294 8.15086725,0.304943871 L8.15081495,0.304955637 C8.12050394,0.170222302 8.20515496,0.0364274261 8.3398883,0.00611641803 C8.41086392,-0.00985099487 8.48527448,0.00588329723 8.54371111,0.0492152463 Z" id="path-1"></path>
    </defs>
    <g id="Artboard" stroke="none" stroke-width="1" fill="none" fill-rule="evenodd" transform="translate(-1014.000000, -695.000000)">
        <g id="fire_16" transform="translate(1014.000000, 695.000000)">
            <rect id="Rectangle-5" x="0" y="0" width="16" height="16"></rect>
            <mask id="mask-2" fill="white">
                <use xlink:href="#path-1"></use>
            </mask>
            <use id="Mask" fill="#FFFFFF" fill-rule="nonzero" transform="translate(8.000000, 7.500009) scale(-1, 1) translate(-8.000000, -7.500009) " xlink:href="#path-1"></use>
        </g>
    </g>
</svg>