<?xml version="1.0" encoding="UTF-8"?>
<svg width="16px" height="16px" viewBox="0 0 16 16" version="1.1" xmlns="http://www.w3.org/2000/svg" xmlns:xlink="http://www.w3.org/1999/xlink">
    <!-- Generator: Sketch 48.2 (47327) - http://www.bohemiancoding.com/sketch -->
    <title>gift_16</title>
    <desc>Created with Sketch.</desc>
    <defs>
        <path d="M14,6.3387175 L13.9996216,7.32573441 C13.9996216,7.69561747 13.6998829,7.99552546 13.3299999,7.9957343 L12.4998734,7.9965814 L12.4998734,12.8210727 C12.4998734,13.7461496 11.7499503,14.4960727 10.8248734,14.4960727 L5.17690228,14.4960727 C4.25182533,14.4960727 3.50190228,13.7461496 3.50190228,12.8210727 L3.50190228,7.99573441 L4.16856895,7.99573441 C3.66904597,7.99573441 3.16952298,7.99573441 2.67,7.99573441 L2.67,7.99573441 C2.29996922,7.99573441 2,7.69576519 2,7.32573441 L2,6.3387175 C2,5.59865593 2.59993844,4.9987175 3.34,4.9987175 L12.66,4.9987175 C13.4000616,4.9987175 14,5.59865593 14,6.3387175 Z M8.24778622,4.99537074 L8.5,4.99537074 L8.5,7.99769119 L12.4932085,7.9965814 L12.4899979,8.9965814 L8.5,8.99769069 L8.5,14.4965814 L7.5,14.4965814 L7.5,8.99796871 L3.49857078,8.99908117 L3.49857078,7.99908117 L7.5,7.9979691 L7.5,4.99537074 L7.75221378,4.99537074 C5.81237587,4.9434257 3.66666667,4.29100321 3.66666667,3.33205083 C3.66666667,2.33205083 5,1.33205083 6,1.66538416 C6.66629471,1.8874824 7.33258942,2.99747793 7.99888414,4.99537074 L8.00111586,4.99537074 C8.66741058,2.99747793 9.33370529,1.8874824 10,1.66538416 C11,1.33205083 12.3333333,2.33205083 12.3333333,3.33205083 C12.3333333,4.29100321 10.1876241,4.9434257 8.24778622,4.99537074 Z" id="path-1"></path>
    </defs>
    <g id="Page-1" stroke="none" stroke-width="1" fill="none" fill-rule="evenodd">
        <g id="gift_16">
            <polygon id="Bounds" opacity="0.100000001" points="0 0 16 0 16 16 0 16"></polygon>
            <mask id="mask-2" fill="white">
                <use xlink:href="#path-1"></use>
            </mask>
            <use id="Mask" fill="#FFFFFF" xlink:href="#path-1"></use>
        </g>
    </g>
</svg>