<?xml version="1.0" encoding="UTF-8"?>
<svg width="16px" height="16px" viewBox="0 0 16 16" version="1.1" xmlns="http://www.w3.org/2000/svg" xmlns:xlink="http://www.w3.org/1999/xlink">
    <!-- Generator: Sketch 48.2 (47327) - http://www.bohemiancoding.com/sketch -->
    <title>like_outline_16</title>
    <desc>Created with Sketch.</desc>
    <defs>
        <path d="M10.9605263,2.5 C13.191466,2.5 15,4.30853397 15,6.53947368 C15,8.75436492 14.1160974,9.8604894 10.479997,12.6885675 L9.38136638,13.543058 C8.56886779,14.1750013 7.43113221,14.1750013 6.61863362,13.543058 L5.52000305,12.6885675 C1.88390262,9.8604894 1,8.75436492 1,6.53947368 C1,4.30853397 2.80853397,2.5 5.03947368,2.5 C6.15104052,2.5 7.14339329,2.98218222 8,3.90400674 C8.85660671,2.98218222 9.84895948,2.5 10.9605263,2.5 Z M5.03947368,4 C3.6369611,4 2.5,5.1369611 2.5,6.53947368 C2.5,8.12997864 3.15326068,8.94747551 6.44091397,11.5045392 L7.53954454,12.3590296 C7.8103774,12.5696774 8.1896226,12.5696774 8.46045546,12.3590296 L9.55908603,11.5045392 C12.8467393,8.94747551 13.5,8.12997864 13.5,6.53947368 C13.5,5.1369611 12.3630389,4 10.9605263,4 C10.1120752,4 9.34161924,4.48246589 8.61686553,5.53049369 L8,6.42251011 L7.38313447,5.53049369 C6.65838076,4.48246589 5.88792484,4 5.03947368,4 Z" id="path-1"></path>
    </defs>
    <g id="Page-1" stroke="none" stroke-width="1" fill="none" fill-rule="evenodd">
        <g id="like_outline_16">
            <rect id="icon-bounds" opacity="0.4" x="0" y="0" width="16" height="16"></rect>
            <mask id="mask-2" fill="white">
                <use xlink:href="#path-1"></use>
            </mask>
            <use id="Mask" fill="#FFFFFF" fill-rule="nonzero" xlink:href="#path-1"></use>
        </g>
    </g>
</svg>