<?xml version="1.0" encoding="UTF-8"?>
<svg width="16px" height="16px" viewBox="0 0 16 16" version="1.1" xmlns="http://www.w3.org/2000/svg" xmlns:xlink="http://www.w3.org/1999/xlink">
    <!-- Generator: Sketch 48.2 (47327) - http://www.bohemiancoding.com/sketch -->
    <title>muted_16</title>
    <desc>Created with Sketch.</desc>
    <defs>
        <path d="M7.65544733,4.84064382 L10.5123115,2.49585667 C10.7816544,2.49585667 11,2.71420226 11,2.98354521 L11,8.1851965 L13.5961941,10.7813906 C13.8890873,11.0742838 13.8890873,11.5491575 13.5961941,11.8420507 C13.3033009,12.134944 12.8284271,12.134944 12.5355339,11.8420507 L4.40380592,3.71032276 C4.1109127,3.41742954 4.1109127,2.94255581 4.40380592,2.64966259 C4.69669914,2.35676937 5.17157288,2.35676937 5.46446609,2.64966259 L7.65544733,4.84064382 Z M4.69006771,5.49658455 L11,11.8065168 L11,13.5081682 C11,13.7775111 10.7816544,13.9958567 10.5123115,13.9958567 L6.87684977,10.5072103 L3.99731896,10.4994902 C3.44608292,10.4980123 3,10.0507318 3,9.49949376 L3.00024883,6.49681631 C3.00024883,5.94462871 3.44781246,5.49695372 4.00000003,5.49681634 L4.69006771,5.49658455 Z" id="path-1"></path>
    </defs>
    <g id="Page-1" stroke="none" stroke-width="1" fill="none" fill-rule="evenodd">
        <g id="muted_16">
            <rect id="Mask" opacity="0.4" x="0" y="0" width="16" height="16"></rect>
            <mask id="mask-2" fill="white">
                <use xlink:href="#path-1"></use>
            </mask>
            <use id="Mask" fill="#FFFFFF" xlink:href="#path-1"></use>
        </g>
    </g>
</svg>