<?xml version="1.0" encoding="UTF-8"?>
<svg width="16px" height="16px" viewBox="0 0 16 16" version="1.1" xmlns="http://www.w3.org/2000/svg" xmlns:xlink="http://www.w3.org/1999/xlink">
    <!-- Generator: Sketch 48.2 (47327) - http://www.bohemiancoding.com/sketch -->
    <title>pin_16</title>
    <desc>Created with Sketch.</desc>
    <defs>
        <path d="M7.20498099,10.2078926 L4.20710678,13.2057668 C3.81658249,13.5962911 3.18341751,13.5962911 2.79289322,13.2057668 C2.40236893,12.8152425 2.40236893,12.1820775 2.79289322,11.7915532 L5.79073505,8.79371141 L3.52432072,6.52740085 C3.41179295,6.41487823 3.34857507,6.26226172 3.34857507,6.10312705 C3.34857507,5.77175619 3.61720423,5.50312703 3.9485751,5.50312703 L7.5,5.50312703 L9.50036635,3.50312698 L9.87155357,2.01728945 C9.88473617,1.96452041 9.91201676,1.91632799 9.95047683,1.87786793 C10.0676341,1.76071064 10.2575836,1.76071064 10.3747409,1.87786793 L14.1253533,5.6284803 C14.1637978,5.66692485 14.1910722,5.7150942 14.2042609,5.76783911 C14.2444524,5.92857585 14.1467312,6.09146041 13.9859945,6.13165195 L12.5003664,6.50312701 L10.5003663,8.50312696 L10.5003663,12.0546457 C10.5003663,12.2137709 10.437156,12.3663791 10.3246401,12.4789001 C10.0903309,12.7132201 9.71043187,12.7132288 9.47611192,12.4789195 L7.20498099,10.2078926 Z" id="path-1"></path>
    </defs>
    <g id="Icons-16/pin_16" stroke="none" stroke-width="1" fill="none" fill-rule="evenodd">
        <g id="pin_16">
            <rect id="Rectangle-5" x="0" y="0" width="16" height="16"></rect>
            <mask id="mask-2" fill="white">
                <use xlink:href="#path-1"></use>
            </mask>
            <use id="Mask" fill="#FFFFFF" xlink:href="#path-1"></use>
            <g id="Colors/light_gray" mask="url(#mask-2)"></g>
        </g>
    </g>
</svg>