<?xml version="1.0" encoding="UTF-8"?>
<svg width="16px" height="16px" viewBox="0 0 16 16" version="1.1" xmlns="http://www.w3.org/2000/svg" xmlns:xlink="http://www.w3.org/1999/xlink">
    <!-- Generator: Sketch 48.2 (47327) - http://www.bohemiancoding.com/sketch -->
    <title>place_16</title>
    <desc>Created with Sketch.</desc>
    <defs>
        <path d="M3,6.25 C3,8.10467629 4.31424081,10.8042217 6.94272243,14.3486362 L6.94268583,14.3486633 C7.27332234,14.7945149 7.90279036,14.8879153 8.348642,14.5572787 C8.42806364,14.4983809 8.49835918,14.4280854 8.55725706,14.3486638 C11.1857524,10.8042357 12.5,8.10468112 12.5,6.25 C12.5,3.62392857 10.3760714,1.5 7.75,1.5 C5.12392857,1.5 3,3.62392857 3,6.25 Z M6,6.25 C6,5.284 6.784,4.5 7.75,4.5 C8.716,4.5 9.5,5.284 9.5,6.25 C9.5,7.216 8.716,8 7.75,8 C6.784,8 6,7.216 6,6.25 Z" id="path-1"></path>
    </defs>
    <g id="Page-1" stroke="none" stroke-width="1" fill="none" fill-rule="evenodd">
        <g id="place_16">
            <rect id="Bounds" opacity="0.4" x="0" y="0" width="16" height="16"></rect>
            <mask id="mask-2" fill="white">
                <use xlink:href="#path-1"></use>
            </mask>
            <use id="Mask" fill="#FFFFFF" xlink:href="#path-1"></use>
        </g>
    </g>
</svg>