<?xml version="1.0" encoding="UTF-8"?>
<svg width="16px" height="16px" viewBox="0 0 16 16" version="1.1" xmlns="http://www.w3.org/2000/svg" xmlns:xlink="http://www.w3.org/1999/xlink">
    <!-- Generator: Sketch 48.2 (47327) - http://www.bohemiancoding.com/sketch -->
    <title>recent_16</title>
    <desc>Created with Sketch.</desc>
    <defs>
        <path d="M6.5,12.99995 C2.91,12.99995 0,10.08995 0,6.49995 C0,2.90995 2.91,-5.00000001e-05 6.5,-5.00000001e-05 C10.089,-5.00000001e-05 13,2.90995 13,6.49995 C13,10.08995 10.089,12.99995 6.5,12.99995 Z M6.5,11.49995 C9.26095393,11.49995 11.5,9.26114185 11.5,6.49995 C11.5,3.73875815 9.26095393,1.49995 6.5,1.49995 C3.73842712,1.49995 1.5,3.73837712 1.5,6.49995 C1.5,9.26152288 3.73842712,11.49995 6.5,11.49995 Z M9.1967413,7.14355297 C9.58908274,7.27637265 9.7994667,7.70209986 9.66664703,8.0944413 C9.53382735,8.48678274 9.10810014,8.6971667 8.7157587,8.56434703 L5.8297587,7.58734703 C5.52520297,7.48424552 5.32025,7.198484 5.32025,6.87695 L5.32025,3.92995 C5.32025,3.51573644 5.65603644,3.17995 6.07025,3.17995 C6.48446356,3.17995 6.82025,3.51573644 6.82025,3.92995 L6.82025,6.33903738 L9.1967413,7.14355297 Z" id="path-1"></path>
    </defs>
    <g id="Page-1" stroke="none" stroke-width="1" fill="none" fill-rule="evenodd">
        <g id="recent_16">
            <rect id="Body" x="0" y="0" width="16" height="16"></rect>
            <g id="2x" transform="translate(1.500000, 1.500000)">
                <mask id="mask-2" fill="white">
                    <use xlink:href="#path-1"></use>
                </mask>
                <g id="Mask" fill-rule="nonzero"></g>
            </g>
        </g>
    </g>
</svg>