<?xml version="1.0" encoding="UTF-8"?>
<svg width="16px" height="16px" viewBox="0 0 16 16" version="1.1" xmlns="http://www.w3.org/2000/svg" xmlns:xlink="http://www.w3.org/1999/xlink">
    <!-- Generator: Sketch 48.2 (47327) - http://www.bohemiancoding.com/sketch -->
    <title>reply_outline_16</title>
    <desc>Created with Sketch.</desc>
    <defs>
        <path d="M7.49828245,12.8249018 C7.49828245,13.0674676 7.40549633,13.3008456 7.23894495,13.4771942 C6.87869383,13.8586365 6.27743246,13.8758154 5.89599009,13.5155643 L0.787270528,8.69066249 C0.767720103,8.67184278 0.767720103,8.67184278 0.748900389,8.65229236 C0.388649268,8.27084999 0.405828165,7.66958863 0.787270528,7.30933751 L5.89599009,2.48443569 C6.07233862,2.3178843 6.30571665,2.22509819 6.54828245,2.22509819 C7.07295296,2.22509819 7.49828245,2.65042767 7.49828245,3.17509819 L7.49828245,5.09913249 C11.7162954,5.91992665 14.1501062,8.67194397 15.2506767,12.8814238 L15.3787061,13.4388217 C15.45253,13.7602261 15.3337887,14.0953257 15.0740683,14.29854 C14.7043492,14.5878212 14.1701239,14.5226134 13.8808427,14.1528942 L13.5198971,13.6902247 C12.008541,11.9361157 10.1866415,11.0870869 7.49828245,10.9584673 L7.49828245,12.8249018 Z M6.64239085,6.47582035 L5.99828245,6.38395925 L5.99828245,4.45106264 L2.24058407,8 L5.99828245,11.5489374 L5.99828245,9.44111111 L6.74828245,9.44111111 C9.39705048,9.44111111 11.4310138,10.011641 13.1141087,11.2656206 C11.9212169,8.58054465 9.87184403,6.93639673 6.64239085,6.47582035 Z" id="path-1"></path>
    </defs>
    <g id="Page-1" stroke="none" stroke-width="1" fill="none" fill-rule="evenodd">
        <g id="reply_outline_16">
            <polygon id="Shape" opacity="0.4" points="0 0 16 0 16 16 0 16"></polygon>
            <mask id="mask-2" fill="white">
                <use xlink:href="#path-1"></use>
            </mask>
            <use id="Mask" fill="#FFFFFF" fill-rule="nonzero" xlink:href="#path-1"></use>
        </g>
    </g>
</svg>