<?xml version="1.0" encoding="UTF-8"?>
<svg width="16px" height="16px" viewBox="0 0 16 16" version="1.1" xmlns="http://www.w3.org/2000/svg" xmlns:xlink="http://www.w3.org/1999/xlink">
    <!-- Generator: Sketch 48.2 (47327) - http://www.bohemiancoding.com/sketch -->
    <title>smile_16</title>
    <desc>Created with Sketch.</desc>
    <defs>
        <path d="M0,8 C0,3.581722 3.581722,0 8,0 C12.418278,0 16,3.581722 16,8 C16,12.418278 12.418278,16 8,16 C3.581722,16 0,12.418278 0,8 Z M14.5,8 C14.5,4.41014913 11.5898509,1.5 8,1.5 C4.41014913,1.5 1.5,4.41014913 1.5,8 C1.5,11.5898509 4.41014913,14.5 8,14.5 C11.5898509,14.5 14.5,11.5898509 14.5,8 Z M5.375,7.50268555 C4.75367966,7.50268555 4.25,6.99900589 4.25,6.37768555 C4.25,5.7563652 4.75367966,5.25268555 5.375,5.25268555 C5.99632034,5.25268555 6.5,5.7563652 6.5,6.37768555 C6.5,6.99900589 5.99632034,7.50268555 5.375,7.50268555 Z M10.625,7.50268555 C10.0036797,7.50268555 9.5,6.99900589 9.5,6.37768555 C9.5,5.7563652 9.99867477,5.25268555 10.6199951,5.25268555 C11.2413155,5.25268555 11.75,5.7563652 11.75,6.37768555 C11.75,6.99900589 11.2463203,7.50268555 10.625,7.50268555 Z M4.42474485,10.5502898 C4.18388135,10.2133066 4.26180174,9.74486934 4.5987849,9.50400585 C4.93576806,9.26314235 5.40420534,9.34106274 5.64506883,9.6780459 C5.73744915,9.80729177 5.84100377,9.92953535 5.9553107,10.0438423 C7.08250582,11.1710374 8.91005019,11.1710374 10.0372453,10.0438423 C10.1516961,9.9293915 10.2553674,9.80698414 10.3478357,9.67755825 C10.5886289,9.34052489 11.0570499,9.26250686 11.3940833,9.50330011 C11.7311166,9.74409336 11.8091347,10.2125144 11.5683414,10.5495477 C11.4279227,10.7460889 11.2707985,10.9316094 11.0979055,11.1045024 C9.38492392,12.817484 6.60763208,12.817484 4.89465053,11.1045024 C4.72197534,10.9318273 4.56502905,10.7465562 4.42474485,10.5502898 Z" id="path-1"></path>
    </defs>
    <g id="Page-1" stroke="none" stroke-width="1" fill="none" fill-rule="evenodd">
        <g id="smile_16">
            <rect id="Bounds" opacity="0.4" x="0" y="0" width="16" height="16"></rect>
            <mask id="mask-2" fill="white">
                <use xlink:href="#path-1"></use>
            </mask>
            <use id="Mask" fill="#FFFFFF" fill-rule="nonzero" xlink:href="#path-1"></use>
        </g>
    </g>
</svg>