<?xml version="1.0" encoding="UTF-8"?>
<svg width="16px" height="16px" viewBox="0 0 16 16" version="1.1" xmlns="http://www.w3.org/2000/svg" xmlns:xlink="http://www.w3.org/1999/xlink">
    <!-- Generator: Sketch 48.2 (47327) - http://www.bohemiancoding.com/sketch -->
    <title>user_16</title>
    <desc>Created with Sketch.</desc>
    <defs>
        <path d="M10.75,5.25 C10.75,3.730625 9.519375,2.5 8,2.5 C6.480625,2.5 5.25,3.730625 5.25,5.25 C5.25,6.769375 6.480625,8 8,8 C9.519375,8 10.75,6.769375 10.75,5.25 Z M2.5,12.1153846 L2.5,12.83 C2.5,13.2000308 2.79996922,13.5 3.17,13.5 L12.83,13.5 C13.2000308,13.5 13.5,13.2000308 13.5,12.83 L13.5,12.1153846 C13.5,9.69230769 9.835625,9 8,9 C6.164375,9 2.5,9.69230769 2.5,12.1153846 Z" id="path-1"></path>
    </defs>
    <g id="Page-1" stroke="none" stroke-width="1" fill="none" fill-rule="evenodd">
        <g id="user_16">
            <polygon id="Bounds" opacity="0.100000001" points="0 0 16 0 16 16 0 16"></polygon>
            <mask id="mask-2" fill="white">
                <use xlink:href="#path-1"></use>
            </mask>
            <use id="Mask" fill="#FFFFFF" xlink:href="#path-1"></use>
        </g>
    </g>
</svg>