<?xml version="1.0" encoding="UTF-8"?>
<svg width="16px" height="16px" viewBox="0 0 16 16" version="1.1" xmlns="http://www.w3.org/2000/svg" xmlns:xlink="http://www.w3.org/1999/xlink">
    <!-- Generator: Sketch 48.2 (47327) - http://www.bohemiancoding.com/sketch -->
    <title>users_16</title>
    <desc>Created with Sketch.</desc>
    <defs>
        <path d="M9.8857966,8.64956681 C10.407867,8.54220808 10.9176705,8.5 11.3333333,8.5 C12.8627451,8.5 15.6666667,9.07142857 15.6666667,11.3571429 C15.6666667,12.3571429 15.4117647,12.5 14.9019608,12.5 L10.8420049,12.5 C10.9472333,12.1740602 11,11.7918215 11,11.3571429 C11,10.2087722 10.5792134,9.3128917 9.8857966,8.64956681 Z M1,11.3571429 C1,9.07142857 3.80392157,8.5 5.33333333,8.5 C6.8627451,8.5 9.66666667,9.07142857 9.66666667,11.3571429 C9.66666667,12.3571429 9.41176471,12.5 8.90196078,12.5 L1.76470588,12.5 C1.25490196,12.5 1,12.3571429 1,11.3571429 Z M7.33333333,5.5 C7.33333333,6.605 6.43833333,7.5 5.33333333,7.5 C4.22833333,7.5 3.33333333,6.605 3.33333333,5.5 C3.33333333,4.395 4.22833333,3.5 5.33333333,3.5 C6.43833333,3.5 7.33333333,4.395 7.33333333,5.5 Z M13.3333333,5.5 C13.3333333,6.605 12.4383333,7.5 11.3333333,7.5 C10.2283333,7.5 9.33333333,6.605 9.33333333,5.5 C9.33333333,4.395 10.2283333,3.5 11.3333333,3.5 C12.4383333,3.5 13.3333333,4.395 13.3333333,5.5 Z" id="path-1"></path>
    </defs>
    <g id="Page-1" stroke="none" stroke-width="1" fill="none" fill-rule="evenodd">
        <g id="users_16">
            <rect id="Bounds" x="0" y="0" width="16" height="16"></rect>
            <mask id="mask-2" fill="white">
                <use xlink:href="#path-1"></use>
            </mask>
            <use id="Mask" fill="#FFFFFF" xlink:href="#path-1"></use>
        </g>
    </g>
</svg>