<?xml version="1.0" encoding="UTF-8"?>
<svg width="24px" height="24px" viewBox="0 0 24 24" version="1.1" xmlns="http://www.w3.org/2000/svg" xmlns:xlink="http://www.w3.org/1999/xlink">
    <!-- Generator: Sketch 48.2 (47327) - http://www.bohemiancoding.com/sketch -->
    <title>check_on_circle_24</title>
    <desc>Created with Sketch.</desc>
    <defs></defs>
    <g id="VK-iOS-UI-Kit" stroke="none" stroke-width="1" fill="none" fill-rule="evenodd" transform="translate(-1839.000000, -1206.000000)">
        <g id="Controls" transform="translate(1765.000000, 1068.000000)" fill="#528BCC">
            <g id="List-Checkbox-On" transform="translate(64.000000, 128.000000)">
                <path d="M10,22 C10,15.372583 15.372583,10 22,10 C28.627417,10 34,15.372583 34,22 C34,28.627417 28.627417,34 22,34 C15.372583,34 10,28.627417 10,22 Z M15.6952286,22.8607967 L19.3047714,26.331511 C19.6872276,26.6992573 20.3094925,26.7024111 20.6912708,26.3353165 L28.3087292,19.0108373 C28.6901996,18.6440388 28.6902719,18.0483384 28.308203,17.6809644 L28.291797,17.6651895 C27.9107054,17.2987552 27.2920375,17.2961178 26.9121465,17.6613976 L20,24.3076923 L17.0941162,21.5135733 C16.706934,21.1412827 16.0902719,21.1439693 15.708203,21.5113433 L15.691797,21.5271182 C15.3107054,21.8935525 15.3112644,22.4916004 15.6952286,22.8607967 Z" id="check_on_circle_24"></path>
            </g>
        </g>
    </g>
</svg>