<?xml version="1.0" encoding="UTF-8"?>
<svg width="24px" height="24px" viewBox="0 0 24 24" version="1.1" xmlns="http://www.w3.org/2000/svg" xmlns:xlink="http://www.w3.org/1999/xlink">
    <!-- Generator: Sketch 48.2 (47327) - http://www.bohemiancoding.com/sketch -->
    <title>check_box_on_24</title>
    <desc>Created with Sketch.</desc>
    <defs></defs>
    <g id="VK-Android-UI-Kit" stroke="none" stroke-width="1" fill="none" fill-rule="evenodd" transform="translate(-3452.000000, -1643.000000)">
        <g id="Controls" transform="translate(3376.000000, 1503.000000)">
            <g id="Checkbox" transform="translate(64.000000, 128.000000)">
                <g id="check_box_on_24" transform="translate(12.000000, 12.000000)">
                    <rect id="Bounds" opacity="0.100000001" x="0" y="0" width="24" height="24"></rect>
                    <path d="M6.8458278,3 L17.1541722,3 C18.4914503,3 18.9763797,3.13923842 19.4652686,3.40069906 C19.9541574,3.66215969 20.3378403,4.04584256 20.5993009,4.53473144 C20.8607616,5.02362033 21,5.50854969 21,6.8458278 L21,17.1541722 C21,18.4914503 20.8607616,18.9763797 20.5993009,19.4652686 C20.3378403,19.9541574 19.9541574,20.3378403 19.4652686,20.5993009 C18.9763797,20.8607616 18.4914503,21 17.1541722,21 L6.8458278,21 C5.50854969,21 5.02362033,20.8607616 4.53473144,20.5993009 C4.04584256,20.3378403 3.66215969,19.9541574 3.40069906,19.4652686 C3.13923842,18.9763797 3,18.4914503 3,17.1541722 L3,6.8458278 C3,5.50854969 3.13923842,5.02362033 3.40069906,4.53473144 C3.66215969,4.04584256 4.04584256,3.66215969 4.53473144,3.40069906 C5.02362033,3.13923842 5.50854969,3 6.8458278,3 Z M5.7,11.5192308 L5.70689128,11.5126045 C6.09400277,11.140382 6.70599723,11.140382 7.09310872,11.5126045 L10,14.3076923 L16.9068913,7.66645069 C17.2940028,7.29422811 17.9059972,7.29422811 18.2931087,7.66645069 L18.3,7.67307692 C18.6717301,8.03050973 18.6833204,8.62161308 18.3258876,8.9933432 C18.3174284,9.00214074 18.3087975,9.01077159 18.3,9.01923077 L10.6931087,16.3335493 C10.3059972,16.7057719 9.69400277,16.7057719 9.30689128,16.3335493 L5.7,12.8653846 C5.32826988,12.5079518 5.31667962,11.9168485 5.67411243,11.5451183 C5.6825716,11.5363208 5.69120245,11.5276899 5.7,11.5192308 Z" id="Shape" fill="#528BCC"></path>
                </g>
            </g>
        </g>
    </g>
</svg>