<?xml version="1.0" encoding="UTF-8"?>
<svg width="24px" height="24px" viewBox="0 0 24 24" version="1.1" xmlns="http://www.w3.org/2000/svg" xmlns:xlink="http://www.w3.org/1999/xlink">
    <!-- Generator: Sketch 48.2 (47327) - http://www.bohemiancoding.com/sketch -->
    <title>check_box_off_24</title>
    <desc>Created with Sketch.</desc>
    <defs>
        <path d="M6.8458278,3 L17.1541722,3 C18.4914503,3 18.9763797,3.13923842 19.4652686,3.40069906 C19.9541574,3.66215969 20.3378403,4.04584256 20.5993009,4.53473144 C20.8607616,5.02362033 21,5.50854969 21,6.8458278 L21,17.1541722 C21,18.4914503 20.8607616,18.9763797 20.5993009,19.4652686 C20.3378403,19.9541574 19.9541574,20.3378403 19.4652686,20.5993009 C18.9763797,20.8607616 18.4914503,21 17.1541722,21 L6.8458278,21 C5.50854969,21 5.02362033,20.8607616 4.53473144,20.5993009 C4.04584256,20.3378403 3.66215969,19.9541574 3.40069906,19.4652686 C3.13923842,18.9763797 3,18.4914503 3,17.1541722 L3,6.8458278 C3,5.50854969 3.13923842,5.02362033 3.40069906,4.53473144 C3.66215969,4.04584256 4.04584256,3.66215969 4.53473144,3.40069906 C5.02362033,3.13923842 5.50854969,3 6.8458278,3 Z M6.2819426,5 C5.83618323,5 5.67454011,5.04641281 5.51157715,5.13356635 C5.34861419,5.2207199 5.2207199,5.34861419 5.13356635,5.51157715 C5.04641281,5.67454011 5,5.83618323 5,6.2819426 L5,17.7180574 C5,18.1638168 5.04641281,18.3254599 5.13356635,18.4884229 C5.2207199,18.6513858 5.34861419,18.7792801 5.51157715,18.8664336 C5.67454011,18.9535872 5.83618323,19 6.2819426,19 L17.7180574,19 C18.1638168,19 18.3254599,18.9535872 18.4884229,18.8664336 C18.6513858,18.7792801 18.7792801,18.6513858 18.8664336,18.4884229 C18.9535872,18.3254599 19,18.1638168 19,17.7180574 L19,6.2819426 C19,5.83618323 18.9535872,5.67454011 18.8664336,5.51157715 C18.7792801,5.34861419 18.6513858,5.2207199 18.4884229,5.13356635 C18.3254599,5.04641281 18.1638168,5 17.7180574,5 L6.2819426,5 Z" id="path-1"></path>
    </defs>
    <g id="VK-Android-UI-Kit" stroke="none" stroke-width="1" fill="none" fill-rule="evenodd" transform="translate(-3428.000000, -1715.000000)">
        <g id="Controls" transform="translate(3376.000000, 1503.000000)">
            <g id="Checkbox" transform="translate(52.000000, 200.000000)">
                <g id="Icons-Unsorted/check_box_off_24" transform="translate(0.000000, 12.000000)">
                    <g id="check_box_off_24">
                        <rect id="Bounds" opacity="0.100000001" x="0" y="0" width="24" height="24"></rect>
                        <mask id="mask-2" fill="white">
                            <use xlink:href="#path-1"></use>
                        </mask>
                        <use id="Mask" fill="#C4C8CC" xlink:href="#path-1"></use>
                    </g>
                </g>
            </g>
        </g>
    </g>
</svg>