<?xml version="1.0" encoding="UTF-8"?>
<svg width="36px" height="36px" viewBox="0 0 36 36" version="1.1" xmlns="http://www.w3.org/2000/svg" xmlns:xlink="http://www.w3.org/1999/xlink">
    <!-- Generator: Sketch 48.2 (47327) - http://www.bohemiancoding.com/sketch -->
    <title>delete_36</title>
    <desc>Created with Sketch.</desc>
    <defs>
        <path d="M13.4325233,4 C14.06127,2.81054916 15.310978,2 16.75,2 L19.25,2 C20.689022,2 21.93873,2.81054916 22.5674767,4 L28.5,4 C29.3284271,4 30,4.67157288 30,5.5 L30,6.625 C30,6.83210678 29.8321068,7 29.625,7 L6.375,7 C6.16789322,7 6,6.83210678 6,6.625 L6,5.5 C6,4.67157288 6.67157288,4 7.5,4 L13.4325233,4 Z M7.5,9 L28.5,9 L26.8071099,29.5577632 C26.6469301,31.502921 25.0215023,33 23.0697603,33 L12.9302397,33 C10.9784977,33 9.35306993,31.502921 9.19289013,29.5577632 L7.5,9 Z M23.6844497,12.0269733 C23.1338674,11.9836416 22.652405,12.3948493 22.6090732,12.9454316 L21.3929573,28.3976502 C21.3496255,28.9482325 21.7608333,29.4296949 22.3114155,29.4730267 C22.8619977,29.5163584 23.3434602,29.1051507 23.3867919,28.5545684 L24.6029079,13.1023498 C24.6462397,12.5517675 24.2350319,12.0703051 23.6844497,12.0269733 Z M18,12 C17.4477153,12 17,12.4477153 17,13 L17,28.5 C17,29.0522847 17.4477153,29.5 18,29.5 C18.5522847,29.5 19,29.0522847 19,28.5 L19,13 C19,12.4477153 18.5522847,12 18,12 Z M12.3114165,12.0269733 C11.7608342,12.0703051 11.3496265,12.5517675 11.3929582,13.1023498 L12.6090742,28.5545684 C12.652406,29.1051507 13.1338684,29.5163584 13.6844506,29.4730267 C14.2350329,29.4296949 14.6462406,28.9482325 14.6029089,28.3976502 L13.3867929,12.9454316 C13.3434611,12.3948493 12.8619987,11.9836416 12.3114165,12.0269733 Z" id="path-1"></path>
    </defs>
    <g id="Page-1" stroke="none" stroke-width="1" fill="none" fill-rule="evenodd">
        <g id="delete_36">
            <rect id="Bounds" opacity="0.100000001" x="0" y="0" width="36" height="36"></rect>
            <mask id="mask-2" fill="white">
                <use xlink:href="#path-1"></use>
            </mask>
            <use id="Mask" fill="#FFFFFF" xlink:href="#path-1"></use>
        </g>
    </g>
</svg>