<?xml version="1.0" encoding="UTF-8"?>
<svg width="36px" height="36px" viewBox="0 0 36 36" version="1.1" xmlns="http://www.w3.org/2000/svg" xmlns:xlink="http://www.w3.org/1999/xlink">
    <!-- Generator: Sketch 48.2 (47327) - http://www.bohemiancoding.com/sketch -->
    <title>like_outline_36</title>
    <desc>Created with Sketch.</desc>
    <defs>
        <path d="M28.2667043,19.360112 C30.5777652,17.0243673 30.5777652,13.2308431 28.2667043,10.8950984 C28.1926046,10.8202073 28.116554,10.7473303 28.0386337,10.6765447 C26.226153,9.03002104 23.0629185,9.13337041 20.809589,10.8042372 C20.2408751,11.2800982 19.6982992,11.8475426 19.1824436,12.5084382 C18.5836867,13.275544 17.4242934,13.278279 16.821924,12.5140067 C16.2979458,11.8491954 15.7521988,11.2784345 15.2584774,10.8579242 C12.9370815,9.13337041 9.77384704,9.03002104 7.96136634,10.6765447 C7.88344602,10.7473303 7.8073954,10.8202073 7.73329565,10.8950984 C5.42223478,13.2308431 5.42223478,17.0243673 7.67909126,19.3080077 L17.9962032,28.7394469 L28.2667043,19.360112 Z M17.4902639,29.2014861 C17.7768048,28.939877 18.2155937,28.9400038 18.5019848,29.2018096 L17.9962032,28.7394469 L17.4902639,29.2014861 Z M18.9524916,8.44973647 C22.3514119,5.92469503 27.0986775,5.76959211 30.0558563,8.45600134 C30.1732017,8.5626022 30.287711,8.67233285 30.399263,8.78507631 C33.8669123,12.2897626 33.8669123,17.9654478 30.3446458,21.5226156 L19.5134405,31.416606 C18.653827,32.2018379 17.3371556,32.2015925 16.4778348,31.4160402 L5.60073696,21.4701341 C2.13308768,17.9654478 2.13308768,12.2897626 5.60073696,8.78507631 C5.71228895,8.67233285 5.82679827,8.5626022 5.94414369,8.45600134 C8.90132252,5.76959211 13.6485881,5.92469503 17.1205028,8.50756483 C17.4203395,8.76064316 17.7132875,9.03150473 17.9994031,9.32003483 C18.3003951,9.01841004 18.6164159,8.7295752 18.9524916,8.44973647 Z" id="path-1"></path>
    </defs>
    <g id="Page-1" stroke="none" stroke-width="1" fill="none" fill-rule="evenodd">
        <g id="like_outline_36">
            <rect id="icon-bounds" opacity="0.4" x="0" y="0" width="36" height="36"></rect>
            <mask id="mask-2" fill="white">
                <use xlink:href="#path-1"></use>
            </mask>
            <use id="Mask" fill="#FFFFFF" fill-rule="nonzero" xlink:href="#path-1"></use>
        </g>
    </g>
</svg>