<?xml version="1.0" encoding="UTF-8"?>
<svg width="36px" height="36px" viewBox="0 0 36 36" version="1.1" xmlns="http://www.w3.org/2000/svg" xmlns:xlink="http://www.w3.org/1999/xlink">
    <!-- Generator: Sketch 48.2 (47327) - http://www.bohemiancoding.com/sketch -->
    <title>playlist_36</title>
    <desc>Created with Sketch.</desc>
    <defs>
        <path d="M20.995,10 L5.005,10 C4.44995383,10 4,10.4499538 4,11.005 L4,11.995 C4,12.5500462 4.44995383,13 5.005,13 L20.995,13 C21.5500462,13 22,12.5500462 22,11.995 L22,11.005 C22,10.4499538 21.5500462,10 20.995,10 Z M20.995,16 L5.005,16 C4.44995383,16 4,16.4499538 4,17.005 L4,17.995 C4,18.5500462 4.44995383,19 5.005,19 L20.995,19 C21.5500462,19 22,18.5500462 22,17.995 L22,17.005 C22,16.4499538 21.5500462,16 20.995,16 Z M5.005,25 C4.44995383,25 4,24.5500462 4,23.995 L4,23.005 C4,22.4499538 4.44995383,22 5.005,22 L15.995,22 C16.5500462,22 17,22.4499538 17,23.005 L17,23.995 C17,24.5500462 16.5500462,25 15.995,25 L5.005,25 Z M27,23.1332884 C27,27.6456871 26.1252767,28.5167315 22.6255971,28.9754819 C20.9573712,29.1941588 19,28.4370251 19,25.8137723 C19,24.5323686 19.801813,23.3155093 21.4611428,22.9975229 C22.7283732,22.7546767 21.3703616,23.0157164 24.2372151,22.4834833 C24.9331904,22.354275 25.0120564,22.1052532 25.0120564,21.5746923 C25.0120564,21.3082829 25.0107381,18.9795485 25.0024205,17.3806586 L25.0024205,13.0628445 C25.0024205,13.0628445 24.9969744,11.0045724 25.0024205,9.97544688 C25.0089341,8.744582 25.6820663,8.29222855 27.6662126,7.89147109 C27.6662126,7.89147109 30.6894239,7.31750328 32.3514378,7.0160512 C32.7192208,6.94934359 33,7.08623174 33,7.50807699 C33,7.50807699 32.9893226,10.1301781 33,11.5624155 C33.0031006,11.9783196 32.831576,12.1666166 32.4100289,12.2414378 C30.7283302,12.5399258 27.5451011,13.1017996 27.5451011,13.1017996 C27.1712219,13.1936272 27,13.4567992 27,13.8350912 L27,23.1332884 Z" id="path-1"></path>
    </defs>
    <g id="Page-1" stroke="none" stroke-width="1" fill="none" fill-rule="evenodd">
        <g id="playlist_36">
            <polygon id="Shape" points="0 0 36 0 36 36 0 36"></polygon>
            <mask id="mask-2" fill="white">
                <use xlink:href="#path-1"></use>
            </mask>
            <use id="Mask" fill="#FFFFFF" xlink:href="#path-1"></use>
        </g>
    </g>
</svg>