<?xml version="1.0" encoding="UTF-8"?>
<svg width="36px" height="36px" viewBox="0 0 36 36" version="1.1" xmlns="http://www.w3.org/2000/svg" xmlns:xlink="http://www.w3.org/1999/xlink">
    <!-- Generator: Sketch 48.2 (47327) - http://www.bohemiancoding.com/sketch -->
    <title>playlist_cached_36</title>
    <desc>Created with Sketch.</desc>
    <defs>
        <path d="M23,10.9989566 C23,10.4472481 22.5490746,10 22.0052288,10 L4.99477117,10 C4.44537422,10 4,10.4426603 4,10.9989566 L4,12.0010434 C4,12.5527519 4.45092539,13 4.99477117,13 L22.0052288,13 C22.5546258,13 23,12.5573397 23,12.0010434 L23,10.9989566 Z M19,16.9989566 C19,16.4472481 18.5510798,16 17.992516,16 L5.00748397,16 C4.45106594,16 4,16.4426603 4,16.9989566 L4,18.0010434 C4,18.5527519 4.44892021,19 5.00748397,19 L17.992516,19 C18.5489341,19 19,18.5573397 19,18.0010434 L19,16.9989566 Z M4,24.0010434 L4,22.9989566 C4,22.4426603 4.44882258,22 5.00247329,22 L14.9975267,22 C15.544239,22 16,22.4472481 16,22.9989566 L16,24.0010434 C16,24.5573397 15.5511774,25 14.9975267,25 L5.00247329,25 C4.45576096,25 4,24.5527519 4,24.0010434 Z M32.0343146,22 C32.1404012,22 32.2421427,22.0421427 32.3171573,22.1171573 C32.473367,22.273367 32.473367,22.526633 32.3171573,22.6828427 L26.2828427,28.7171573 C26.126633,28.873367 25.873367,28.873367 25.7171573,28.7171573 L19.6828427,22.6828427 C19.6078282,22.6078282 19.5656854,22.5060866 19.5656854,22.4 C19.5656854,22.1790861 19.7447715,22 19.9656854,22 L23,22 L23,16 L29,16 L29,22 L32.0343146,22 Z" id="path-1"></path>
    </defs>
    <g id="Page-1" stroke="none" stroke-width="1" fill="none" fill-rule="evenodd">
        <g id="playlist_cached_36">
            <polygon id="Shape" points="0 0 36 0 36 36 0 36"></polygon>
            <mask id="mask-2" fill="white">
                <use xlink:href="#path-1"></use>
            </mask>
            <use id="Mask" fill="#FFFFFF" xlink:href="#path-1"></use>
        </g>
    </g>
</svg>