<?xml version="1.0" encoding="UTF-8"?>
<svg width="36px" height="36px" viewBox="0 0 36 36" version="1.1" xmlns="http://www.w3.org/2000/svg" xmlns:xlink="http://www.w3.org/1999/xlink">
    <!-- Generator: Sketch 48.2 (47327) - http://www.bohemiancoding.com/sketch -->
    <title>replay_36</title>
    <desc>Created with Sketch.</desc>
    <defs>
        <path d="M16.9757359,3.52426411 L11.2071068,9.29289322 C10.8165825,9.68341751 10.8165825,10.3165825 11.2071068,10.7071068 L16.9757359,16.4757359 C17.2100505,16.7100505 17.5899495,16.7100505 17.8242641,16.4757359 C17.9367859,16.3632141 18,16.2106017 18,16.0514718 L18,11 C22.965,11 27.5,15.535 27.5,20.5 C27.5,25.465 22.965,30 18,30 C13.7268815,30 9.7722706,26.6408557 8.75308594,22.5394857 C8.69527063,22.3068272 8.64453988,22.0086833 8.60089368,21.6450539 L8.60087392,21.6450563 C8.52245304,20.9917089 7.96819528,20.5 7.31015832,20.5 L7.25,20.5 C6.60678823,20.5 6.08536207,21.0214262 6.08536207,21.6646379 C6.08536207,21.7010618 6.08707079,21.7374657 6.09048262,21.7737294 C6.13823774,22.2816264 6.19502408,22.690851 6.26081227,23.0014059 C7.41075854,28.4297582 12.2278649,32.5 18,32.5 C24.63,32.5 30,27.13 30,20.5 C30,13.87 24.63,8.5 18,8.5 L18,3.94852819 C18,3.61715733 17.7313708,3.34852817 17.4,3.34852817 C17.2408701,3.34852817 17.0882577,3.41174228 16.9757359,3.52426411 Z" id="path-1"></path>
    </defs>
    <g id="Page-1" stroke="none" stroke-width="1" fill="none" fill-rule="evenodd">
        <g id="replay_36">
            <polygon id="Shape" points="0 0 36 0 36 36 0 36"></polygon>
            <mask id="mask-2" fill="white">
                <use xlink:href="#path-1"></use>
            </mask>
            <use id="Mask" fill="#FFFFFF" xlink:href="#path-1"></use>
        </g>
    </g>
</svg>