<?xml version="1.0" encoding="UTF-8"?>
<svg width="28px" height="28px" viewBox="0 0 28 28" version="1.1" xmlns="http://www.w3.org/2000/svg" xmlns:xlink="http://www.w3.org/1999/xlink">
    <!-- Generator: Sketch 48.2 (47327) - http://www.bohemiancoding.com/sketch -->
    <title>about_outline_28</title>
    <desc>Created with Sketch.</desc>
    <defs>
        <path d="M3,14 C3,7.928 7.928,3 14,3 C20.072,3 25,7.928 25,14 C25,20.072 20.072,25 14,25 C7.928,25 3,20.072 3,14 Z M13.9999876,4.80000019 C8.92158771,4.80000019 4.79998779,8.92160011 4.79998779,14 C4.79998779,19.0783999 8.92158771,23.1999998 13.9999876,23.1999998 C19.0783875,23.1999998 23.1999874,19.0783999 23.1999874,14 C23.1999874,8.92160011 19.0783875,4.80000019 13.9999876,4.80000019 Z M13,18.5 L13,13.5 C13,12.9477153 13.4477153,12.5 14,12.5 C14.5522847,12.5 15,12.9477153 15,13.5 L15,18.5 C15,19.0522847 14.5522847,19.5 14,19.5 C13.4477153,19.5 13,19.0522847 13,18.5 Z M12.7501087,9.75 C12.7501087,9.05970409 13.3097041,8.5001087 14,8.5001087 L14.0001012,8.5001087 C14.6903971,8.5001087 15.2499925,9.05970409 15.2499925,9.75 C15.2499925,10.4402959 14.6903971,10.9998913 14.0001012,10.9998913 L14,10.9998913 C13.3097041,10.9998913 12.7501087,10.4402959 12.7501087,9.75 Z" id="path-1"></path>
    </defs>
    <g id="Page-1" stroke="none" stroke-width="1" fill="none" fill-rule="evenodd">
        <g id="about_outline_28">
            <polygon id="Bounds" points="0 0 28 0 28 28 0 28"></polygon>
            <mask id="mask-2" fill="white">
                <use xlink:href="#path-1"></use>
            </mask>
            <use id="Mask" fill="#FFFFFF" xlink:href="#path-1"></use>
        </g>
    </g>
</svg>