<?xml version="1.0" encoding="UTF-8"?>
<svg width="28px" height="28px" viewBox="0 0 28 28" version="1.1" xmlns="http://www.w3.org/2000/svg" xmlns:xlink="http://www.w3.org/1999/xlink">
    <!-- Generator: Sketch 48.2 (47327) - http://www.bohemiancoding.com/sketch -->
    <title>attach_outline_28</title>
    <desc>Created with Sketch.</desc>
    <defs>
        <path d="M21.4020324,16.3824101 L16.0173064,21.6127988 C13.7824535,23.7835962 10.218732,23.7579207 8.01538935,21.5551474 C5.75528333,19.2956253 5.75480991,15.6317429 8.01433194,13.3716369 C8.0176152,13.3683528 10.9843775,10.4293062 16.1007111,5.360816 C17.5077101,3.9669804 19.7782375,3.97765143 21.1720745,5.38465187 C22.5970493,6.8481051 22.5882201,9.15502662 21.1588352,10.5839529 L13.0279685,18.712211 C12.5071053,19.2329071 11.6763976,19.2741171 11.1065569,18.8075289 L10.9728442,18.6980443 C10.4626743,18.2803149 10.3877366,17.5281038 10.805466,17.017934 C10.8274512,16.9910836 10.8505967,16.9652046 10.8748364,16.9403706 L16.342169,11.339002 C16.6893593,10.9833 16.6824592,10.4134933 16.3267573,10.0663031 C15.9710554,9.71911279 15.4012487,9.72601284 15.0540584,10.0817148 L9.5867258,15.6830834 C9.52594065,15.7453587 9.46789962,15.8102547 9.41276807,15.8775865 C8.36524209,17.1569222 8.55316101,19.0432163 9.83249673,20.0907423 L9.96620943,20.2002268 C11.251664,21.252763 13.125586,21.159801 14.3005565,19.9852074 L22.4314232,11.8569493 C24.5589924,9.73006272 24.5721342,6.29631766 22.456261,4.1233806 C20.3573651,2.00461547 16.9471534,1.98858814 14.8339133,4.08205749 C9.17444797,9.6886005 6.74823835,12.0921443 6.74137529,12.0990091 C3.77900036,15.0621497 3.77962104,19.8657291 6.74276161,22.828104 C9.64185825,25.7264516 14.3309035,25.7602347 17.2714604,22.9039601 L22.6561864,17.6735714 C23.0127308,17.3272463 23.0210151,16.7574581 22.6746901,16.4009137 C22.328365,16.0443694 21.7585767,16.036085 21.4020324,16.3824101 Z" id="path-1"></path>
    </defs>
    <g id="Page-1" stroke="none" stroke-width="1" fill="none" fill-rule="evenodd">
        <g id="attach_outline_28">
            <rect id="Bounds" x="0" y="0" width="28" height="28"></rect>
            <mask id="mask-2" fill="white">
                <use xlink:href="#path-1"></use>
            </mask>
            <use id="Mask" fill="#FFFFFF" fill-rule="nonzero" xlink:href="#path-1"></use>
        </g>
    </g>
</svg>