<?xml version="1.0" encoding="UTF-8"?>
<svg width="28px" height="28px" viewBox="0 0 28 28" version="1.1" xmlns="http://www.w3.org/2000/svg" xmlns:xlink="http://www.w3.org/1999/xlink">
    <!-- Generator: Sketch 48.2 (47327) - http://www.bohemiancoding.com/sketch -->
    <title>backspace_28</title>
    <desc>Created with Sketch.</desc>
    <defs>
        <path d="M9,5 C8.31,5 7.77,5.35 7.41,5.88 L2,14 L7.41,22.11 C7.77,22.64 8.31,23 9,23 L22.985,23 C24.6501385,23 26,21.6501385 26,19.985 L26,8.015 C26,6.34986148 24.6501385,5 22.985,5 L9,5 Z M18.885,18.295 L16,15.41 L13.115,18.295 C12.7256393,18.6843607 12.0943607,18.6843607 11.705,18.295 L11.705,18.295 C11.3156393,17.9056393 11.3156393,17.2743607 11.705,16.885 L14.59,14 L11.705,11.115 C11.3156393,10.7256393 11.3156393,10.0943607 11.705,9.705 L11.705,9.705 C12.0943607,9.31563925 12.7256393,9.31563925 13.115,9.705 L16,12.59 L18.885,9.705 C19.2743607,9.31563925 19.9056393,9.31563925 20.295,9.705 L20.295,9.705 C20.6843607,10.0943607 20.6843607,10.7256393 20.295,11.115 L17.41,14 L20.295,16.885 C20.6843607,17.2743607 20.6843607,17.9056393 20.295,18.295 L20.295,18.295 C19.9056393,18.6843607 19.2743607,18.6843607 18.885,18.295 Z" id="path-1"></path>
    </defs>
    <g id="Page-1" stroke="none" stroke-width="1" fill="none" fill-rule="evenodd">
        <g id="backspace_28">
            <polygon id="Shape" points="0 0 28 0 28 28 0 28"></polygon>
            <mask id="mask-2" fill="white">
                <use xlink:href="#path-1"></use>
            </mask>
            <use id="Mask" fill="#FFFFFF" xlink:href="#path-1"></use>
        </g>
    </g>
</svg>