<?xml version="1.0" encoding="UTF-8"?>
<svg width="28px" height="28px" viewBox="0 0 28 28" version="1.1" xmlns="http://www.w3.org/2000/svg" xmlns:xlink="http://www.w3.org/1999/xlink">
    <!-- Generator: Sketch 48.2 (47327) - http://www.bohemiancoding.com/sketch -->
    <title>camera_28</title>
    <desc>Created with Sketch.</desc>
    <defs>
        <path d="M6.5,7.5 C6.55416464,7.5 6.72083131,7.5 7,7.5 C7.74789429,7.5 8.56259582,7.20367696 8.96265641,6.70986744 C9.36271701,6.21605792 9.73015109,5.75915383 9.75252319,5.73286951 C10.188315,5.2208708 10.6330184,5 11.3918114,5 C11.9985335,5 12.4491496,5 12.7436599,5 C13.1162271,5 13.5350073,5 14.0000005,5 L14.0000005,23 L7.5,23 C4.99999948,23 3,21 3,19 L3,11.5 C3,9 4.5,7.5 6.5,7.5 Z M21.5,7.5 C21.4458354,7.5 21.2791687,7.5 21,7.5 C20.2521057,7.5 19.4374042,7.20367696 19.0373436,6.70986744 C18.637283,6.21605792 18.2698489,5.75915383 18.2474768,5.73286951 C17.811685,5.2208708 17.3669816,5 16.6081886,5 C16.0014665,5 15.5508504,5 15.2563401,5 C14.8837729,5 14.4649929,5 14,5 L14,23 L20.5,23 C23,23 25,21 25,19 L25,11.5 C25,9 23.5,7.5 21.5,7.5 Z M8.6499939,14.7500243 C8.6499939,17.7032243 11.0467939,20.1000242 13.9999938,20.1000242 C16.9531937,20.1000242 19.3499937,17.7032243 19.3499937,14.7500243 C19.3499937,11.7968244 16.9531937,9.40002441 13.9999938,9.40002441 C11.0467939,9.40002441 8.6499939,11.7968244 8.6499939,14.7500243 Z M10.25,14.75 C10.25,12.6787109 11.9287109,11 14,11 C16.0712891,11 17.75,12.6787109 17.75,14.75 C17.75,16.8212891 16.0712891,18.5 14,18.5 C11.9287109,18.5 10.25,16.8212891 10.25,14.75 Z" id="path-1"></path>
    </defs>
    <g id="Page-1" stroke="none" stroke-width="1" fill="none" fill-rule="evenodd">
        <g id="camera_28">
            <rect id="bounds" opacity="0.4" x="0" y="0" width="28" height="28"></rect>
            <mask id="mask-2" fill="white">
                <use xlink:href="#path-1"></use>
            </mask>
            <use id="Mask" fill="#FFFFFF" xlink:href="#path-1"></use>
        </g>
    </g>
</svg>