<?xml version="1.0" encoding="UTF-8"?>
<svg width="28px" height="28px" viewBox="0 0 28 28" version="1.1" xmlns="http://www.w3.org/2000/svg" xmlns:xlink="http://www.w3.org/1999/xlink">
    <!-- Generator: Sketch 48.2 (47327) - http://www.bohemiancoding.com/sketch -->
    <title>delete_28</title>
    <desc>Created with Sketch.</desc>
    <defs>
        <path d="M9.98485,25 L18.01515,25 C19.6636371,25 21,23.6636371 21,22.01515 L21,8 L7,8 L7,22.01515 C7,23.6636371 8.33636286,25 9.98485,25 Z M9.56075685,4.5 C9.77901132,3.63790167 10.5599607,3 11.4899,3 L16.5101,3 C17.4400393,3 18.2209887,3.63790167 18.4392431,4.5 L20.75,4.5 C21.4403559,4.5 22,5.05964406 22,5.75 L22,6.70980625 C22,6.87007583 21.8700758,7 21.7098062,7 L6.29019375,7 C6.12992417,7 6,6.87007583 6,6.70980625 L6,5.75 C6,5.05964406 6.55964406,4.5 7.25,4.5 L9.56075685,4.5 Z" id="path-1"></path>
    </defs>
    <g id="Page-1" stroke="none" stroke-width="1" fill="none" fill-rule="evenodd">
        <g id="delete_28">
            <polygon id="Shape" points="0 0 28 0 28 28 0 28"></polygon>
            <mask id="mask-2" fill="white">
                <use xlink:href="#path-1"></use>
            </mask>
            <use id="Mask" fill="#FFFFFF" fill-rule="nonzero" xlink:href="#path-1"></use>
        </g>
    </g>
</svg>