<?xml version="1.0" encoding="UTF-8"?>
<svg width="28px" height="28px" viewBox="0 0 28 28" version="1.1" xmlns="http://www.w3.org/2000/svg" xmlns:xlink="http://www.w3.org/1999/xlink">
    <!-- Generator: Sketch 48.2 (47327) - http://www.bohemiancoding.com/sketch -->
    <title>document_28</title>
    <desc>Created with Sketch.</desc>
    <defs>
        <path d="M5,5.5 L5,21.5 C5,23.4329966 6.56700338,25 8.5,25 L20.5,25 C22.4329966,25 24,23.4329966 24,21.5 L24,10.2460667 C24,9.76488347 23.8265197,9.29983046 23.5113782,8.93620558 L18.0981204,2.69013892 C17.7182389,2.25181407 17.1667756,2 16.5867422,2 L8.5,2 C6.56700338,2 5,3.56700338 5,5.5 Z M16.5974874,4.5974874 L21.3905773,9.39057734 C21.5272608,9.52726084 21.5272608,9.74886859 21.3905773,9.88555209 C21.3237477,9.95238168 21.2327315,9.98934349 21.1382293,9.98803096 L16.4930562,9.92351467 C16.2196481,9.91971734 16,9.69699735 16,9.42356289 L16,4.84497478 C16,4.65167511 16.1567003,4.49497477 16.35,4.49497477 C16.4428258,4.49497477 16.5318497,4.53184966 16.5974874,4.5974874 Z" id="path-1"></path>
    </defs>
    <g id="Page-1" stroke="none" stroke-width="1" fill="none" fill-rule="evenodd">
        <g id="document_28">
            <rect id="Bounds" opacity="0.4" x="0" y="0" width="28" height="28"></rect>
            <mask id="mask-2" fill="white">
                <use xlink:href="#path-1"></use>
            </mask>
            <use id="Mask" fill="#FFFFFF" xlink:href="#path-1"></use>
        </g>
    </g>
</svg>