<?xml version="1.0" encoding="UTF-8"?>
<svg width="28px" height="28px" viewBox="0 0 28 28" version="1.1" xmlns="http://www.w3.org/2000/svg" xmlns:xlink="http://www.w3.org/1999/xlink">
    <!-- Generator: Sketch 48.2 (47327) - http://www.bohemiancoding.com/sketch -->
    <title>error_outline_28</title>
    <desc>Created with Sketch.</desc>
    <defs>
        <path d="M3,14 C3,20.072 7.928,25 14,25 C20.072,25 25,20.072 25,14 C25,7.928 20.072,3 14,3 C7.928,3 3,7.928 3,14 Z M13.9999876,4.80000019 C8.92158771,4.80000019 4.79998779,8.92160011 4.79998779,14 C4.79998779,19.0783999 8.92158771,23.1999998 13.9999876,23.1999998 C19.0783875,23.1999998 23.1999874,19.0783999 23.1999874,14 C23.1999874,8.92160011 19.0783875,4.80000019 13.9999876,4.80000019 L13.9999876,4.80000019 Z M13,14.5 L13,9.5 C13,8.94771525 13.4477153,8.5 14,8.5 L14,8.5 C14.5522847,8.5 15,8.94771525 15,9.5 L15,14.5 C15,15.0522847 14.5522847,15.5 14,15.5 L14,15.5 C13.4477153,15.5 13,15.0522847 13,14.5 Z M12.7501087,18.25 L12.7501087,18.25 C12.7501087,17.5597041 13.3097041,17.0001087 14,17.0001087 L14.0001012,17.0001087 C14.6903971,17.0001087 15.2499925,17.5597041 15.2499925,18.25 L15.2499925,18.25 C15.2499925,18.9402959 14.6903971,19.4998913 14.0001012,19.4998913 L14,19.4998913 C13.3097041,19.4998913 12.7501087,18.9402959 12.7501087,18.25 Z" id="path-1"></path>
    </defs>
    <g id="Page-1" stroke="none" stroke-width="1" fill="none" fill-rule="evenodd">
        <g id="error_outline_28">
            <polygon id="Bounds" points="0 0 28 0 28 28 0 28"></polygon>
            <mask id="mask-2" fill="white">
                <use xlink:href="#path-1"></use>
            </mask>
            <use id="Mask" fill="#FFFFFF" xlink:href="#path-1"></use>
            <path d="M2.66666667,14.3333333 C2.66666667,20.4053333 7.59466667,25.3333333 13.6666667,25.3333333 C19.7386667,25.3333333 24.6666667,20.4053333 24.6666667,14.3333333 C24.6666667,8.26133333 19.7386667,3.33333333 13.6666667,3.33333333 C7.59466667,3.33333333 2.66666667,8.26133333 2.66666667,14.3333333 Z M13.6666543,5.13333352 C8.58825437,5.13333352 4.46665446,9.25493344 4.46665446,14.3333333 C4.46665446,19.4117332 8.58825437,23.5333331 13.6666543,23.5333331 C18.7450542,23.5333331 22.8666541,19.4117332 22.8666541,14.3333333 C22.8666541,9.25493344 18.7450542,5.13333352 13.6666543,5.13333352 L13.6666543,5.13333352 Z M12.6666667,14.8333333 L12.6666667,9.83333333 C12.6666667,9.28104858 13.1143819,8.83333333 13.6666667,8.83333333 L13.6666667,8.83333333 C14.2189514,8.83333333 14.6666667,9.28104858 14.6666667,9.83333333 L14.6666667,14.8333333 C14.6666667,15.3856181 14.2189514,15.8333333 13.6666667,15.8333333 L13.6666667,15.8333333 C13.1143819,15.8333333 12.6666667,15.3856181 12.6666667,14.8333333 Z M12.4167754,18.5833333 L12.4167754,18.5833333 C12.4167754,17.8930374 12.9763708,17.333442 13.6666667,17.333442 L13.6667678,17.333442 C14.3570637,17.333442 14.9166591,17.8930374 14.9166591,18.5833333 L14.9166591,18.5833333 C14.9166591,19.2736292 14.3570637,19.8332246 13.6667678,19.8332246 L13.6666667,19.8332246 C12.9763708,19.8332246 12.4167754,19.2736292 12.4167754,18.5833333 Z" id="1,5x" fill="#FFFFFF" mask="url(#mask-2)"></path>
        </g>
    </g>
</svg>