<?xml version="1.0" encoding="UTF-8"?>
<svg width="28px" height="28px" viewBox="0 0 28 28" version="1.1" xmlns="http://www.w3.org/2000/svg" xmlns:xlink="http://www.w3.org/1999/xlink">
    <!-- Generator: Sketch 48.2 (47327) - http://www.bohemiancoding.com/sketch -->
    <title>error_outline_28</title>
    <desc>Created with Sketch.</desc>
    <defs>
        <path d="M3,14 C3,7.928 7.928,3 14,3 C20.072,3 25,7.928 25,14 C25,20.072 20.072,25 14,25 C7.928,25 3,20.072 3,14 Z M13.9999876,4.80000019 C8.92158771,4.80000019 4.79998779,8.92160011 4.79998779,14 C4.79998779,19.0783999 8.92158771,23.1999998 13.9999876,23.1999998 C19.0783875,23.1999998 23.1999874,19.0783999 23.1999874,14 C23.1999874,8.92160011 19.0783875,4.80000019 13.9999876,4.80000019 Z M13,14.5 L13,9.5 C13,8.94771525 13.4477153,8.5 14,8.5 C14.5522847,8.5 15,8.94771525 15,9.5 L15,14.5 C15,15.0522847 14.5522847,15.5 14,15.5 C13.4477153,15.5 13,15.0522847 13,14.5 Z M12.7501087,18.25 C12.7501087,17.5597041 13.3097041,17.0001087 14,17.0001087 L14.0001012,17.0001087 C14.6903971,17.0001087 15.2499925,17.5597041 15.2499925,18.25 C15.2499925,18.9402959 14.6903971,19.4998913 14.0001012,19.4998913 L14,19.4998913 C13.3097041,19.4998913 12.7501087,18.9402959 12.7501087,18.25 Z" id="path-1"></path>
    </defs>
    <g id="Page-1" stroke="none" stroke-width="1" fill="none" fill-rule="evenodd">
        <g id="error_outline_28">
            <polygon id="Bounds" points="0 0 28 0 28 28 0 28"></polygon>
            <mask id="mask-2" fill="white">
                <use xlink:href="#path-1"></use>
            </mask>
            <use id="Mask" fill="#FFFFFF" xlink:href="#path-1"></use>
        </g>
    </g>
</svg>