<?xml version="1.0" encoding="UTF-8"?>
<svg width="28px" height="28px" viewBox="0 0 28 28" version="1.1" xmlns="http://www.w3.org/2000/svg" xmlns:xlink="http://www.w3.org/1999/xlink">
    <!-- Generator: Sketch 48.2 (47327) - http://www.bohemiancoding.com/sketch -->
    <title>favorite_28</title>
    <desc>Created with Sketch.</desc>
    <defs>
        <path d="M14,19.6250002 L8.19155153,23.1727783 C7.83806109,23.3886889 7.37647035,23.2771584 7.16055975,22.9236679 C7.05727097,22.7545628 7.02510165,22.5514537 7.07107875,22.3587071 L8.65030688,15.7382207 L3.48126018,11.3103816 C3.16668244,11.0409123 3.13011486,10.5674486 3.39958419,10.2528708 C3.52849476,10.102381 3.71172213,10.009022 3.90924269,9.99318685 L10.6937078,9.44927923 L13.3075097,3.16494615 C13.4665804,2.78249434 13.9055712,2.60140818 14.288023,2.76047888 C14.4709829,2.8365762 14.6163929,2.98198626 14.6924903,3.16494615 L17.3062922,9.44927923 L24.0907573,9.99318685 C24.5036461,10.026288 24.8115249,10.3878343 24.7784238,10.8007231 C24.7625887,10.9982437 24.6692297,11.181471 24.5187398,11.3103816 L19.3496931,15.7382207 L20.9289212,22.3587071 C21.0250299,22.7616166 20.7763187,23.1661506 20.3734093,23.2622593 C20.1806627,23.3082364 19.9775536,23.276067 19.8084485,23.1727783 L14,19.6250002 Z" id="path-1"></path>
    </defs>
    <g id="Page-1" stroke="none" stroke-width="1" fill="none" fill-rule="evenodd">
        <g id="favorite_28">
            <rect id="Bounds" x="0" y="0" width="28" height="28"></rect>
            <mask id="mask-2" fill="white">
                <use xlink:href="#path-1"></use>
            </mask>
            <use id="Mask" fill="#FFFFFF" xlink:href="#path-1"></use>
        </g>
    </g>
</svg>