<?xml version="1.0" encoding="UTF-8"?>
<svg width="28px" height="28px" viewBox="0 0 28 28" version="1.1" xmlns="http://www.w3.org/2000/svg" xmlns:xlink="http://www.w3.org/1999/xlink">
    <!-- Generator: Sketch 48.2 (47327) - http://www.bohemiancoding.com/sketch -->
    <title>games_28</title>
    <desc>Created with Sketch.</desc>
    <defs>
        <path d="M9.5,11.75 L9.5,10.5025 C9.5,10.2249769 9.27502309,10 8.9975,10 L8.5025,10 C8.22497691,10 8,10.2249769 8,10.5025 L8,11.75 L6.7525,11.75 C6.47497691,11.75 6.25,11.9749769 6.25,12.2525 L6.25,12.7475 C6.25,13.0250231 6.47497691,13.25 6.7525,13.25 L8,13.25 L8,14.4975 C8,14.7750231 8.22497691,15 8.5025,15 L8.9975,15 C9.27502309,15 9.5,14.7750231 9.5,14.4975 L9.5,13.25 L10.7475,13.25 C11.0250231,13.25 11.25,13.0250231 11.25,12.7475 L11.25,12.2525 C11.25,11.9749769 11.0250231,11.75 10.7475,11.75 L9.5,11.75 Z M18,18 C16.5,18 11.5,18 10,18 C8.5,18 5.98890904,23 4.5,23 C2.5,23 2,22 2,19 C2,16 2.5,7 8,7 L20,7 C25.5,7 26,16 26,19 C26,22 25.5,23 23.5,23 C21.5,23 19.5,18 18,18 Z M17.2525,11.75 C16.9749769,11.75 16.75,11.9749769 16.75,12.2525 L16.75,12.7475 C16.75,13.0250231 16.9749769,13.25 17.2525,13.25 L17.7475,13.25 C18.0250231,13.25 18.25,13.0250231 18.25,12.7475 L18.25,12.2525 C18.25,11.9749769 18.0250231,11.75 17.7475,11.75 L17.2525,11.75 Z M20.7525,11.75 C20.4749769,11.75 20.25,11.9749769 20.25,12.2525 L20.25,12.7475 C20.25,13.0250231 20.4749769,13.25 20.7525,13.25 L21.2475,13.25 C21.5250231,13.25 21.75,13.0250231 21.75,12.7475 L21.75,12.2525 C21.75,11.9749769 21.5250231,11.75 21.2475,11.75 L20.7525,11.75 Z M19.0025,13.5 C18.7249769,13.5 18.5,13.7249769 18.5,14.0025 L18.5,14.4975 C18.5,14.7750231 18.7249769,15 19.0025,15 L19.4975,15 C19.7750231,15 20,14.7750231 20,14.4975 L20,14.0025 C20,13.7249769 19.7750231,13.5 19.4975,13.5 L19.0025,13.5 Z M19.0025,10 C18.7249769,10 18.5,10.2249769 18.5,10.5025 L18.5,10.9975 C18.5,11.2750231 18.7249769,11.5 19.0025,11.5 L19.4975,11.5 C19.7750231,11.5 20,11.2750231 20,10.9975 L20,10.5025 C20,10.2249769 19.7750231,10 19.4975,10 L19.0025,10 Z" id="path-1"></path>
    </defs>
    <g id="Page-1" stroke="none" stroke-width="1" fill="none" fill-rule="evenodd">
        <g id="games_28">
            <polygon id="Bounds" opacity="0.4" points="0 0 28 0 28 28 0 28"></polygon>
            <mask id="mask-2" fill="white">
                <use xlink:href="#path-1"></use>
            </mask>
            <use id="Mask" fill="#FFFFFF" xlink:href="#path-1"></use>
        </g>
    </g>
</svg>