<?xml version="1.0" encoding="UTF-8"?>
<svg width="28px" height="28px" viewBox="0 0 28 28" version="1.1" xmlns="http://www.w3.org/2000/svg" xmlns:xlink="http://www.w3.org/1999/xlink">
    <!-- Generator: Sketch 48.2 (47327) - http://www.bohemiancoding.com/sketch -->
    <title>messages_outline_28</title>
    <desc>Created with Sketch.</desc>
    <defs>
        <path d="M7.09556114,24.3591053 C6.80197842,24.4304378 6.49221334,24.3863113 6.23022727,24.2358373 C5.66574478,23.9116216 5.47097001,23.1911895 5.79518563,22.626707 C6.3655502,21.6329182 6.77965451,20.7824385 7.04411318,20.0696206 C5.27106062,18.4591232 4.25,16.3041334 4.25,14.0000772 C4.25,9.14139899 8.74938664,5.25 14.25,5.25 C19.7506134,5.25 24.25,9.14139899 24.25,14.0000772 C24.25,18.8587555 19.7506134,22.7501545 14.25,22.7501545 C13.4658824,22.7501545 12.693235,22.6711851 11.9432486,22.5163853 C10.7709321,23.2481857 9.15699714,23.8582329 7.09556114,24.3591053 Z M11.3746438,21.0966651 C11.5489554,20.9775977 11.7653741,20.9375022 11.9707712,20.9862217 C12.7064036,21.1607112 13.4709221,21.2501545 14.25,21.2501545 C18.9666545,21.2501545 22.75,17.9780403 22.75,14.0000772 C22.75,10.0221142 18.9666545,6.75 14.25,6.75 C9.53334549,6.75 5.75,10.0221142 5.75,14.0000772 C5.75,16.0039683 6.71049354,17.8839668 8.38956847,19.2487619 C8.6260062,19.4409445 8.72267819,19.7570688 8.63416857,20.0486216 C8.40265787,20.8112233 8.01205043,21.6986511 7.46261372,22.7163461 C9.17293238,22.252214 10.4786331,21.7087053 11.3746438,21.0966651 Z" id="path-1"></path>
    </defs>
    <g id="Page-1" stroke="none" stroke-width="1" fill="none" fill-rule="evenodd">
        <g id="messages_outline_28">
            <rect id="Mask" opacity="0.1" x="0" y="0" width="28" height="28"></rect>
            <mask id="mask-2" fill="white">
                <use xlink:href="#path-1"></use>
            </mask>
            <use id="Mask" fill="#FFFFFF" fill-rule="nonzero" xlink:href="#path-1"></use>
        </g>
    </g>
</svg>