<?xml version="1.0" encoding="UTF-8"?>
<svg width="28px" height="28px" viewBox="0 0 28 28" version="1.1" xmlns="http://www.w3.org/2000/svg" xmlns:xlink="http://www.w3.org/1999/xlink">
    <!-- Generator: Sketch 48.2 (47327) - http://www.bohemiancoding.com/sketch -->
    <title>message_28</title>
    <desc>Created with Sketch.</desc>
    <defs>
        <path d="M10.4401678,22.4915065 C9.19206862,23.4624824 7.2578117,24.2766245 4.63739699,24.933933 C4.51328579,24.9650652 4.38197309,24.9476827 4.27023698,24.88533 C4.02787154,24.7500817 3.94103596,24.4439653 4.07628428,24.2015998 L4.07632432,24.2016222 C5.05647093,22.4451963 5.66206608,21.0183775 5.89310977,19.9211658 C4.09656295,18.2303017 3,15.9757464 3,13.5 C3,8.25329488 7.92486775,4 14,4 C20.0751322,4 25,8.25329488 25,13.5 C25,18.7467051 20.0751322,23 14,23 C12.7541649,23 11.5567033,22.821131 10.4401678,22.4915065 Z" id="path-1"></path>
    </defs>
    <g id="Page-1" stroke="none" stroke-width="1" fill="none" fill-rule="evenodd">
        <g id="message_28">
            <rect id="Bounds" opacity="0.1" x="0" y="0" width="28" height="28"></rect>
            <mask id="mask-2" fill="white">
                <use xlink:href="#path-1"></use>
            </mask>
            <use id="Mask" fill="#FFFFFF" xlink:href="#path-1"></use>
        </g>
    </g>
</svg>