<?xml version="1.0" encoding="UTF-8"?>
<svg width="28px" height="28px" viewBox="0 0 28 28" version="1.1" xmlns="http://www.w3.org/2000/svg" xmlns:xlink="http://www.w3.org/1999/xlink">
    <!-- Generator: Sketch 48.2 (47327) - http://www.bohemiancoding.com/sketch -->
    <title>money_transfer_28</title>
    <desc>Created with Sketch.</desc>
    <defs>
        <path d="M19,19 L19,16.0728584 C19,15.7953353 19.2249769,15.5703584 19.5025,15.5703584 C19.6200531,15.5703584 19.7338859,15.6115716 19.8241927,15.6868272 L24.5367626,19.6139688 C24.7499617,19.7916348 24.7787671,20.1084935 24.6011011,20.3216927 C24.5816447,20.3450404 24.5601103,20.3665748 24.5367626,20.3860312 L19.8241927,24.3131728 C19.6109935,24.4908387 19.2941348,24.4620334 19.1164688,24.2488343 C19.0412132,24.1585275 19,24.0446947 19,23.9271416 L19,21 L6.015,21 C4.34986148,21 3,19.6501385 3,17.985 L3,7.01483629 C3,5.34969777 4.34986148,3.99983629 6.015,3.99983629 L21.985,3.99983629 C23.6501385,3.99983629 25,5.34969777 25,7.01483629 L25,16.7457293 L23,15.0790626 L23,13 L5,13 L5,17.995 C5,18.5500462 5.44995383,19 6.005,19 L19,19 Z M23,9 L23,7.005 C23,6.44995383 22.5500462,6 21.995,6 L6.005,6 C5.44995383,6 5,6.44995383 5,7.005 L5,9 L23,9 Z" id="path-1"></path>
    </defs>
    <g id="Page-1" stroke="none" stroke-width="1" fill="none" fill-rule="evenodd">
        <g id="money_transfer_28">
            <rect id="Bounds" x="0" y="0" width="28" height="28"></rect>
            <mask id="mask-2" fill="white">
                <use xlink:href="#path-1"></use>
            </mask>
            <use id="Mask" fill="#FFFFFF" xlink:href="#path-1"></use>
        </g>
    </g>
</svg>