<?xml version="1.0" encoding="UTF-8"?>
<svg width="28px" height="28px" viewBox="0 0 28 28" version="1.1" xmlns="http://www.w3.org/2000/svg" xmlns:xlink="http://www.w3.org/1999/xlink">
    <!-- Generator: Sketch 48.2 (47327) - http://www.bohemiancoding.com/sketch -->
    <title>more_horizontal_28</title>
    <desc>Created with Sketch.</desc>
    <defs>
        <path d="M6.75,16.5 C5.50735931,16.5 4.5,15.4926407 4.5,14.25 C4.5,13.0073593 5.50735931,12 6.75,12 C7.99264069,12 9,13.0073593 9,14.25 C9,15.4926407 7.99264069,16.5 6.75,16.5 Z M13.75,16.5 C12.5073593,16.5 11.5,15.4926407 11.5,14.25 C11.5,13.0073593 12.5073593,12 13.75,12 C14.9926407,12 16,13.0073593 16,14.25 C16,15.4926407 14.9926407,16.5 13.75,16.5 Z M20.75,16.5 C19.5073593,16.5 18.5,15.4926407 18.5,14.25 C18.5,13.0073593 19.5073593,12 20.75,12 C21.9926407,12 23,13.0073593 23,14.25 C23,15.4926407 21.9926407,16.5 20.75,16.5 Z" id="path-1"></path>
    </defs>
    <g id="Page-1" stroke="none" stroke-width="1" fill="none" fill-rule="evenodd">
        <g id="more_horizontal_28">
            <rect id="Bounds" opacity="0.4" x="0" y="0" width="28" height="28"></rect>
            <mask id="mask-2" fill="white">
                <use xlink:href="#path-1"></use>
            </mask>
            <use id="Mask" fill="#FFFFFF" xlink:href="#path-1"></use>
        </g>
    </g>
</svg>