<?xml version="1.0" encoding="UTF-8"?>
<svg width="28px" height="28px" viewBox="0 0 28 28" version="1.1" xmlns="http://www.w3.org/2000/svg" xmlns:xlink="http://www.w3.org/1999/xlink">
    <!-- Generator: Sketch 48.2 (47327) - http://www.bohemiancoding.com/sketch -->
    <title>music_28</title>
    <desc>Created with Sketch.</desc>
    <defs>
        <path d="M19.5045594,13 L19.5,13 L19.5,9.20306905 C19.5,8.92708666 19.4147491,8.79704075 19.0975844,8.87636589 L10.9252553,10.4240754 C10.5698389,10.5129675 10.5,10.6605685 10.5,11 L10.5,16 L10.5,19.4561129 C10.5,23.7949579 8.95511329,24.7299506 6.39899729,25.0736067 C5.07106081,25.2521406 3,24.5558598 3,22.0335013 C3,20.8013824 4.02630782,19.5773514 5.3073214,19.3255693 C6.49534988,19.0920633 4.92201009,19.3973712 7.60968522,18.8856086 C8.04264139,18.803169 8.0061131,18.4948524 8.0061131,18.1607906 C8.0061131,17.9994911 8.00562309,17.0572018 8.00504404,16 L7.99666659,16 L7.99666659,9.97459005 C7.99666659,9.97459005 7.99189618,8.13862873 7.99666659,7.2206574 C8.00237215,6.12273629 8.59199842,5.71924082 10.3299999,5.36176855 C11.0718934,5.22474048 11.6283136,5.12196944 11.9992603,5.05345541 C13.7023877,4.73888704 16.2570786,4.26703449 19.6633333,3.63789775 C19.6633333,3.63789775 21.9966666,2.90841866 21.9966666,4.80506429 L21.9966666,10.475746 L22,10.4756033 L22,17.3317178 C22,21.6705627 20.4551133,22.6055554 17.8989973,22.9492115 C16.5710608,23.1277455 14.5,22.4314646 14.5,19.9091062 C14.5,18.6769872 15.5263078,17.4529562 16.8073214,17.2011741 C17.9953499,16.9676681 16.4220101,17.2729761 19.1096852,16.7612134 C19.5426414,16.6787739 19.5061131,16.3704572 19.5061131,16.0363954 C19.5061131,15.8311809 19.5053199,14.3618258 19.5045594,13 Z" id="path-1"></path>
    </defs>
    <g id="Page-1" stroke="none" stroke-width="1" fill="none" fill-rule="evenodd">
        <g id="music_28">
            <polygon id="Bounds" opacity="0.4" points="0 0 28 0 28 28 0 28"></polygon>
            <mask id="mask-2" fill="white">
                <use xlink:href="#path-1"></use>
            </mask>
            <use id="Mask" fill="#FFFFFF" xlink:href="#path-1"></use>
        </g>
    </g>
</svg>