<?xml version="1.0" encoding="UTF-8"?>
<svg width="28px" height="28px" viewBox="0 0 28 28" version="1.1" xmlns="http://www.w3.org/2000/svg" xmlns:xlink="http://www.w3.org/1999/xlink">
    <!-- Generator: Sketch 48.2 (47327) - http://www.bohemiancoding.com/sketch -->
    <title>recent_outline_28</title>
    <desc>Created with Sketch.</desc>
    <defs>
        <path d="M14,24.9999154 C7.92461538,24.9999154 3,20.0753 3,13.9999154 C3,7.92453077 7.92461538,2.99991538 14,2.99991538 C20.0736923,2.99991538 25,7.92453077 25,13.9999154 C25,20.0753 20.0736923,24.9999154 14,24.9999154 Z M14,23.1999154 C19.0802071,23.1999154 23.2,19.0805602 23.2,13.9999154 C23.2,8.91927056 19.0802071,4.79991538 14,4.79991538 C8.91872793,4.79991538 4.8,8.91864332 4.8,13.9999154 C4.8,19.0811875 8.91872793,23.1999154 14,23.1999154 Z M14.5,9.74545761 L14.5,14.0603179 L18.7503668,15.4954304 C19.2736294,15.6721071 19.5545928,16.2395201 19.3779161,16.7627827 C19.2012394,17.2860454 18.6338265,17.5670088 18.1105639,17.3903321 L13.1800985,15.725588 C12.7736378,15.5883488 12.5,15.2071418 12.5,14.7781372 L12.5,9.74545761 C12.5,9.19317286 12.9477153,8.74545761 13.5,8.74545761 C14.0522847,8.74545761 14.5,9.19317286 14.5,9.74545761 Z" id="path-1"></path>
    </defs>
    <g id="Page-1" stroke="none" stroke-width="1" fill="none" fill-rule="evenodd">
        <g id="recent_outline_28">
            <rect id="Rectangle-6" x="0" y="0" width="28" height="28"></rect>
            <mask id="mask-2" fill="white">
                <use xlink:href="#path-1"></use>
            </mask>
            <use id="Mask" fill="#FFFFFF" fill-rule="nonzero" xlink:href="#path-1"></use>
        </g>
    </g>
</svg>