<?xml version="1.0" encoding="UTF-8"?>
<svg width="28px" height="28px" viewBox="0 0 28 28" version="1.1" xmlns="http://www.w3.org/2000/svg" xmlns:xlink="http://www.w3.org/1999/xlink">
    <!-- Generator: Sketch 48.2 (47327) - http://www.bohemiancoding.com/sketch -->
    <title>search_outline_28</title>
    <desc>Created with Sketch.</desc>
    <defs>
        <path d="M18.9633363,17.5491228 L23.2071068,21.7928932 C23.5976311,22.1834175 23.5976311,22.8165825 23.2071068,23.2071068 C22.8165825,23.5976311 22.1834175,23.5976311 21.7928932,23.2071068 L17.5491228,18.9633363 C16.2873239,19.9273642 14.7105351,20.5 13,20.5 C8.85786438,20.5 5.5,17.1421356 5.5,13 C5.5,8.85786438 8.85786438,5.5 13,5.5 C17.1421356,5.5 20.5,8.85786438 20.5,13 C20.5,14.7105351 19.9273642,16.2873239 18.9633363,17.5491228 Z M13,18.5 C16.0375661,18.5 18.5,16.0375661 18.5,13 C18.5,9.96243388 16.0375661,7.5 13,7.5 C9.96243388,7.5 7.5,9.96243388 7.5,13 C7.5,16.0375661 9.96243388,18.5 13,18.5 Z" id="path-1"></path>
    </defs>
    <g id="Page-1" stroke="none" stroke-width="1" fill="none" fill-rule="evenodd">
        <g id="search_outline_28">
            <rect id="Bounds" opacity="0.1" x="0" y="0" width="28" height="28"></rect>
            <mask id="mask-2" fill="white">
                <use xlink:href="#path-1"></use>
            </mask>
            <use id="Mask" fill="#FFFFFF" fill-rule="nonzero" xlink:href="#path-1"></use>
        </g>
    </g>
</svg>