<?xml version="1.0" encoding="UTF-8"?>
<svg width="28px" height="28px" viewBox="0 0 28 28" version="1.1" xmlns="http://www.w3.org/2000/svg" xmlns:xlink="http://www.w3.org/1999/xlink">
    <!-- Generator: Sketch 48.2 (47327) - http://www.bohemiancoding.com/sketch -->
    <title>send_28</title>
    <desc>Created with Sketch.</desc>
    <defs>
        <path d="M6.93444324,18.122659 C6.17111854,20.1666508 5.69152938,21.602505 5.49567576,22.4302216 C4.88085257,25.0285873 4.43380151,25.6138572 6.72532205,24.378996 C9.01684259,23.1441348 20.1104179,17.0270573 22.5854748,15.6676078 C25.8118169,13.8955074 25.8549307,14.0339578 22.412382,12.1524069 C19.7904299,10.7193594 8.82689354,4.76182814 6.72532209,3.59206955 C4.62375064,2.42231096 4.88085262,2.94247803 5.49567577,5.54084394 C5.69406787,6.37928872 6.18062257,7.82796582 6.95533987,9.88687522 L6.95534708,9.88687251 C7.49471324,11.3203064 8.74065273,12.3701428 10.2447972,12.6585836 L16.6774552,13.8921361 C16.7376285,13.9040504 16.7766526,13.9620012 16.7646179,14.0215728 C16.755821,14.0651175 16.7214398,14.0991549 16.6774552,14.1078639 L10.2302867,15.3402412 C8.72124232,15.6286942 7.47193845,16.6833818 6.93444324,18.122659 Z" id="path-1"></path>
    </defs>
    <g id="Page-1" stroke="none" stroke-width="1" fill="none" fill-rule="evenodd">
        <g id="send_28">
            <rect id="Rectangle-76" x="0" y="0" width="28" height="28"></rect>
            <mask id="mask-2" fill="white">
                <use xlink:href="#path-1"></use>
            </mask>
            <use id="Mask" fill="#FFFFFF" xlink:href="#path-1"></use>
        </g>
    </g>
</svg>