<?xml version="1.0" encoding="UTF-8"?>
<svg width="28px" height="28px" viewBox="0 0 28 28" version="1.1" xmlns="http://www.w3.org/2000/svg" xmlns:xlink="http://www.w3.org/1999/xlink">
    <!-- Generator: Sketch 48.2 (47327) - http://www.bohemiancoding.com/sketch -->
    <title>settings_28</title>
    <desc>Created with Sketch.</desc>
    <defs>
        <path d="M10.6479449,5.89424326 C12.1130909,5.05494738 12.3667168,4.18025147 12.5416667,3.30555556 C12.736123,2.33333333 13.0277778,2.33333333 13.5138889,2.33333333 C14,2.33333333 14,2.33333333 14.4861111,2.33333333 C14.9722222,2.33333333 15.1666785,2.33333333 15.4583333,3.30555556 C15.7211337,4.18159258 15.9050167,5.05762961 17.3613746,5.89810353 C18.9908611,6.3406464 19.7887052,5.9014836 20.5309168,5.40668842 C21.3558831,4.85672487 21.5621142,5.06295596 21.9058467,5.40668842 C22.2495791,5.75042089 22.2495791,5.75042089 22.5933116,6.09415335 C22.937044,6.43788581 23.0745454,6.57538719 22.5933116,7.4690832 C22.1596878,8.27436288 21.6702609,9.02383945 22.1057567,10.6479449 C22.9450526,12.1130909 23.8197485,12.3667168 24.6944444,12.5416667 C25.6666667,12.736123 25.6666667,13.0277778 25.6666667,13.5138889 C25.6666667,14 25.6666667,14 25.6666667,14.4861111 C25.6666667,14.9722222 25.6666667,15.1666785 24.6944444,15.4583333 C23.8184074,15.7211337 22.9423704,15.9050167 22.1018965,17.3613746 C21.6593536,18.9908611 22.0985164,19.7887052 22.5933116,20.5309168 C23.1432751,21.3558831 22.937044,21.5621142 22.5933116,21.9058467 C22.2495791,22.2495791 22.2495791,22.2495791 21.9058467,22.5933116 C21.5621142,22.937044 21.4246128,23.0745454 20.5309168,22.5933116 C19.7256371,22.1596878 18.9761605,21.6702609 17.3520551,22.1057567 C15.8869091,22.9450526 15.6332832,23.8197485 15.4583333,24.6944444 C15.263877,25.6666667 14.9722222,25.6666667 14.4861111,25.6666667 C14,25.6666667 14,25.6666667 13.5138889,25.6666667 C13.0277778,25.6666667 12.8333215,25.6666667 12.5416667,24.6944444 C12.2788663,23.8184074 12.0949833,22.9423704 10.6386254,22.1018965 C9.00913886,21.6593536 8.21129484,22.0985164 7.4690832,22.5933116 C6.6441169,23.1432751 6.43788581,22.937044 6.09415335,22.5933116 C5.75042089,22.2495791 5.75042089,22.2495791 5.40668842,21.9058467 C5.06295596,21.5621142 4.92545458,21.4246128 5.40668842,20.5309168 C5.84031219,19.7256371 6.32973906,18.9761605 5.89424326,17.3520551 C5.05494738,15.8869091 4.18025147,15.6332832 3.30555556,15.4583333 C2.33333333,15.263877 2.33333333,14.9722222 2.33333333,14.4861111 C2.33333333,14 2.33333333,14 2.33333333,13.5138889 C2.33333333,13.0277778 2.33333333,12.8333215 3.30555556,12.5416667 C4.18159258,12.2788663 5.05762961,12.0949833 5.89810353,10.6386254 C6.3406464,9.00913886 5.9014836,8.21129484 5.40668842,7.4690832 C4.85672487,6.6441169 5.06295596,6.43788581 5.40668842,6.09415335 C5.75042089,5.75042089 5.75042089,5.75042089 6.09415335,5.40668842 C6.43788581,5.06295596 6.57538719,4.92545458 7.4690832,5.40668842 C8.27436288,5.84031219 9.02383945,6.32973906 10.6479449,5.89424326 Z M14,19.5016658 C17.0375661,19.5016658 19.5,17.0392319 19.5,14.0016658 C19.5,10.9640996 17.0375661,8.50166575 14,8.50166575 C10.9624339,8.50166575 8.5,10.9640996 8.5,14.0016658 C8.5,17.0392319 10.9624339,19.5016658 14,19.5016658 Z" id="path-1"></path>
    </defs>
    <g id="Artboard" stroke="none" stroke-width="1" fill="none" fill-rule="evenodd" transform="translate(-1151.000000, -232.000000)">
        <g id="settings_28" transform="translate(1151.000000, 232.000000)">
            <rect id="Bounds" opacity="0.4" x="0" y="0" width="28" height="28"></rect>
            <mask id="mask-2" fill="white">
                <use xlink:href="#path-1"></use>
            </mask>
            <use id="Mask" fill="#FFFFFF" xlink:href="#path-1"></use>
        </g>
    </g>
</svg>