<?xml version="1.0" encoding="UTF-8"?>
<svg width="28px" height="28px" viewBox="0 0 28 28" version="1.1" xmlns="http://www.w3.org/2000/svg" xmlns:xlink="http://www.w3.org/1999/xlink">
    <!-- Generator: Sketch 48.2 (47327) - http://www.bohemiancoding.com/sketch -->
    <title>skip_next_28</title>
    <desc>Created with Sketch.</desc>
    <defs>
        <path d="M14.9827973,13.1109562 L14.9827973,8.27351167 C14.9827973,7.86219235 15.3162375,7.52875215 15.7275568,7.52875215 C15.8541561,7.52875215 15.9786657,7.56102417 16.0893256,7.62252006 L26.3972749,13.3508494 C26.7568077,13.5506488 26.8862972,14.0040771 26.6864978,14.3636098 C26.6189719,14.4851205 26.5187856,14.5853068 26.3972749,14.6528327 L16.0893256,20.381162 C15.7297929,20.5809614 15.2763646,20.451472 15.0765652,20.0919392 C15.0150693,19.9812793 14.9827973,19.8567696 14.9827973,19.7301704 L14.9827973,14.8927259 L5.1067603,20.3810331 C4.74715218,20.5808744 4.29362884,20.4513578 4.09378756,20.0917497 C4.03227879,19.9810665 4,19.8565308 4,19.729905 L4,8.27377707 C4,7.86237151 4.3335101,7.52886141 4.74491566,7.52886141 C4.87154142,7.52886141 4.99607718,7.5611402 5.1067603,7.62264898 L14.9827973,13.1109562 Z" id="path-1"></path>
    </defs>
    <g id="Page-1" stroke="none" stroke-width="1" fill="none" fill-rule="evenodd">
        <g id="skip_next_28">
            <rect id="Rectangle-737" opacity="0.4" x="0" y="0" width="28" height="28"></rect>
            <mask id="mask-2" fill="white">
                <use xlink:href="#path-1"></use>
            </mask>
            <use id="Mask" fill="#FFFFFF" xlink:href="#path-1"></use>
        </g>
    </g>
</svg>