<?xml version="1.0" encoding="UTF-8"?>
<svg width="28px" height="28px" viewBox="0 0 28 28" version="1.1" xmlns="http://www.w3.org/2000/svg" xmlns:xlink="http://www.w3.org/1999/xlink">
    <!-- Generator: Sketch 48.2 (47327) - http://www.bohemiancoding.com/sketch -->
    <title>skip_previous_28</title>
    <desc>Created with Sketch.</desc>
    <defs>
        <path d="M12.2027985,13.1109562 L12.2027985,8.27351167 C12.2027985,7.86219235 12.5362387,7.52875215 12.9475581,7.52875215 C13.0741573,7.52875215 13.1986669,7.56102417 13.3093269,7.62252006 L23.6172762,13.3508494 C23.9768089,13.5506488 24.1062984,14.0040771 23.906499,14.3636098 C23.8389731,14.4851205 23.7387868,14.5853068 23.6172762,14.6528327 L13.3093269,20.381162 C12.9497941,20.5809614 12.4963658,20.451472 12.2965665,20.0919392 C12.2350706,19.9812793 12.2027985,19.8567696 12.2027985,19.7301704 L12.2027985,14.8927259 L2.32676152,20.3810331 C1.9671534,20.5808744 1.51363006,20.4513578 1.31378878,20.0917497 C1.25228001,19.9810665 1.22000122,19.8565308 1.22000122,19.729905 L1.22000122,8.27377707 C1.22000122,7.86237151 1.55351132,7.52886141 1.96491688,7.52886141 C2.09154264,7.52886141 2.2160784,7.5611402 2.32676152,7.62264898 L12.2027985,13.1109562 Z" id="path-1"></path>
    </defs>
    <g id="Page-1" stroke="none" stroke-width="1" fill="none" fill-rule="evenodd">
        <g id="skip_previous_28">
            <rect id="Rectangle-737" opacity="0.4" x="0" y="0" width="28" height="28"></rect>
            <mask id="mask-2" fill="white">
                <use xlink:href="#path-1"></use>
            </mask>
            <use id="Mask" fill="#FFFFFF" transform="translate(12.612163, 14.001909) scale(-1, 1) translate(-12.612163, -14.001909) " xlink:href="#path-1"></use>
        </g>
    </g>
</svg>