<?xml version="1.0" encoding="UTF-8"?>
<svg width="28px" height="28px" viewBox="0 0 28 28" version="1.1" xmlns="http://www.w3.org/2000/svg" xmlns:xlink="http://www.w3.org/1999/xlink">
    <!-- Generator: Sketch 48.2 (47327) - http://www.bohemiancoding.com/sketch -->
    <title>smile_outline_28</title>
    <desc>Created with Sketch.</desc>
    <defs>
        <path d="M3,14 C3,7.92486775 7.92486775,3 14,3 C20.0751322,3 25,7.92486775 25,14 C25,20.0751322 20.0751322,25 14,25 C7.92486775,25 3,20.0751322 3,14 Z M23.1999874,14.0000124 C23.1999874,8.91899281 19.0810072,4.80001259 13.9999876,4.80001259 C8.91896801,4.80001259 4.79998779,8.91899281 4.79998779,14.0000124 C4.79998779,19.081032 8.91896801,23.2000122 13.9999876,23.2000122 C19.0810072,23.2000122 23.1999874,19.081032 23.1999874,14.0000124 Z M10.5,13.5 C9.67157288,13.5 9,12.8284271 9,12 C9,11.1715729 9.67157288,10.5 10.5,10.5 C11.3284271,10.5 12,11.1715729 12,12 C12,12.8284271 11.3284271,13.5 10.5,13.5 Z M17.4999878,13.5 C16.6715607,13.5 15.9999878,12.8284271 15.9999878,12 C15.9999878,11.1715729 16.6715607,10.5 17.4999878,10.5 C18.328415,10.5 18.9999878,11.1715729 18.9999878,12 C18.9999878,12.8284271 18.328415,13.5 17.4999878,13.5 Z M9.19585002,17.4265432 C8.90681382,17.0221634 9.00031829,16.4600387 9.40469808,16.1710025 C9.80907788,15.8819663 10.3712026,15.9754708 10.6602388,16.3798505 C10.7914533,16.5634279 10.9385127,16.7370277 11.100792,16.899307 C12.7019416,18.5004566 15.297918,18.5004566 16.8990676,16.899307 C17.0615511,16.7368235 17.2087763,16.562991 17.3401158,16.3791578 C17.6290677,15.9747177 18.1911729,15.8810961 18.5956129,16.170048 C19.000053,16.4589999 19.0936746,17.0211051 18.8047227,17.4255452 C18.6158427,17.6899166 18.404474,17.9394849 18.1718598,18.1720992 C15.8677664,20.4761925 12.1320931,20.4761925 9.82799975,18.1720992 C9.59567859,17.939778 9.3845492,17.6905452 9.19585002,17.4265432 Z" id="path-1"></path>
    </defs>
    <g id="Page-1" stroke="none" stroke-width="1" fill="none" fill-rule="evenodd">
        <g id="smile_outline_28">
            <rect id="Bounds" opacity="0.4" x="0" y="0" width="28" height="28"></rect>
            <mask id="mask-2" fill="white">
                <use xlink:href="#path-1"></use>
            </mask>
            <use id="Mask" fill="#FFFFFF" fill-rule="nonzero" xlink:href="#path-1"></use>
        </g>
    </g>
</svg>