<?xml version="1.0" encoding="UTF-8"?>
<svg width="22px" height="22px" viewBox="0 0 22 22" version="1.1" xmlns="http://www.w3.org/2000/svg" xmlns:xlink="http://www.w3.org/1999/xlink">
    <!-- Generator: Sketch 48.2 (47327) - http://www.bohemiancoding.com/sketch -->
    <title>sticker_outline_28</title>
    <desc>Created with Sketch.</desc>
    <defs>
        <path d="M20.0320798,12.8213322 C19.0262486,13.2579469 17.9163916,13.5 16.75,13.5 C12.1936508,13.5 8.5,9.80634919 8.5,5.25 C8.5,4.08360869 8.74205295,2.97375188 9.17866753,1.9679209 C4.94471691,2.81873595 1.8,6.56341045 1.8,10.9934742 C1.8,16.078098 5.92190198,20.2 11.0065258,20.2 C15.4385494,20.2 19.1815858,17.0533708 20.0320798,12.8213322 Z M10.9329892,2.45899631 C10.5186423,3.32038599 10.3,4.26773006 10.3,5.25 C10.3,8.81223664 13.1877634,11.7 16.75,11.7 C17.7322538,11.7 18.6795877,11.4813683 19.5410031,11.0670102 L10.9329892,2.45899631 Z M11.0065258,22 C4.92778943,22 0,17.0722106 0,10.9934742 C0,5.30016033 4.32270693,0.616468712 9.86510235,0.0454178205 C9.90257978,0.0415564003 9.98372698,0.0362183457 10.108544,0.0294036567 C10.6760369,-0.00158001181 11.2299118,0.210339166 11.6317876,0.612214909 L21.3900634,10.3704861 C21.7914751,10.7718978 22.0033919,11.3249816 21.972981,11.8918483 C21.9685733,11.9738143 21.9650355,12.0287689 21.9623571,12.0567115 C21.427512,17.6365861 16.7265839,22 11.0065258,22 Z" id="path-1"></path>
    </defs>
    <g id="Page-1" stroke="none" stroke-width="1" fill="none" fill-rule="evenodd">
        <g id="sticker_outline_28">
            <mask id="mask-2" fill="white">
                <use xlink:href="#path-1"></use>
            </mask>
            <use id="Mask" fill="#FFFFFF" fill-rule="nonzero" xlink:href="#path-1"></use>
        </g>
    </g>
</svg>