<?xml version="1.0" encoding="UTF-8"?>
<svg width="28px" height="28px" viewBox="0 0 28 28" version="1.1" xmlns="http://www.w3.org/2000/svg" xmlns:xlink="http://www.w3.org/1999/xlink">
    <!-- Generator: Sketch 48.2 (47327) - http://www.bohemiancoding.com/sketch -->
    <title>users_28</title>
    <desc>Created with Sketch.</desc>
    <defs>
        <path d="M22.5,10 C22.5,8.06625 20.93375,6.5 19,6.5 C17.06625,6.5 15.5,8.06625 15.5,10 C15.5,11.93375 17.06625,13.5 19,13.5 C20.93375,13.5 22.5,11.93375 22.5,10 Z M16.3297018,15.2927053 C17.2867664,15.0809758 18.2406336,15 19,15 C21.4705882,15 26,15.8571429 26,19.2857143 C26,20.7857143 25.5882353,21 24.7647059,21 L17.7549569,21 C17.9175523,20.5125223 18,19.9397013 18,19.2857143 C18,17.5965998 17.372519,16.2770959 16.3297018,15.2927053 Z M12.5,10 C12.5,11.93375 10.93375,13.5 9,13.5 C7.06625,13.5 5.5,11.93375 5.5,10 C5.5,8.06625 7.06625,6.5 9,6.5 C10.93375,6.5 12.5,8.06625 12.5,10 Z M2,19.2857143 C2,15.8571429 6.52941176,15 9,15 C11.4705882,15 16,15.8571429 16,19.2857143 C16,20.7857143 15.5882353,21 14.7647059,21 L3.23529412,21 C2.41176471,21 2,20.7857143 2,19.2857143 Z" id="path-1"></path>
    </defs>
    <g id="Page-1" stroke="none" stroke-width="1" fill="none" fill-rule="evenodd">
        <g id="users_28">
            <rect id="Bounds" x="0" y="0" width="28" height="28"></rect>
            <mask id="mask-2" fill="white">
                <use xlink:href="#path-1"></use>
            </mask>
            <use id="Mask" fill="#FFFFFF" xlink:href="#path-1"></use>
        </g>
    </g>
</svg>