<?xml version="1.0" encoding="UTF-8"?>
<svg width="28px" height="28px" viewBox="0 0 28 28" version="1.1" xmlns="http://www.w3.org/2000/svg" xmlns:xlink="http://www.w3.org/1999/xlink">
    <!-- Generator: Sketch 48.2 (47327) - http://www.bohemiancoding.com/sketch -->
    <title>user_add_outline_28</title>
    <desc>Created with Sketch.</desc>
    <defs>
        <path d="M22.5,9.75 C22.5,7.95421356 21.0457864,6.5 19.25,6.5 C17.4542136,6.5 16,7.95421356 16,9.75 C16,11.5457864 17.4542136,13 19.25,13 C21.0457864,13 22.5,11.5457864 22.5,9.75 Z M24,9.75 C24,12.3742136 21.8742136,14.5 19.25,14.5 C16.6257864,14.5 14.5,12.3742136 14.5,9.75 C14.5,7.12578644 16.6257864,5 19.25,5 C21.8742136,5 24,7.12578644 24,9.75 Z M12.75,20.5357143 C12.75,21.5017063 12.7484386,21.5 13.3235294,21.5 L25.6764706,21.5 C26.2515614,21.5 26.25,21.5017063 26.25,20.5357143 C26.25,18.2826924 23.1690233,17 19.5,17 C15.8309767,17 12.75,18.2826924 12.75,20.5357143 Z M6.5,12 L10.75,12 C11.1642136,12 11.5,12.3357864 11.5,12.75 C11.5,13.1642136 11.1642136,13.5 10.75,13.5 L6.5,13.5 L6.5,17.75 C6.5,18.1642136 6.16421356,18.5 5.75,18.5 C5.33578644,18.5 5,18.1642136 5,17.75 L5,13.5 L0.75,13.5 C0.335786438,13.5 5.07265313e-17,13.1642136 0,12.75 C-5.07265313e-17,12.3357864 0.335786438,12 0.75,12 L5,12 L5,7.75 C5,7.33578644 5.33578644,7 5.75,7 C6.16421356,7 6.5,7.33578644 6.5,7.75 L6.5,12 Z M11.25,20.5357143 C11.25,17.0948587 15.080788,15.5 19.5,15.5 C23.919212,15.5 27.75,17.0948587 27.75,20.5357143 C27.75,22.3018651 27.1111837,23 25.6764706,23 L13.3235294,23 C11.8888163,23 11.25,22.3018651 11.25,20.5357143 Z" id="path-1"></path>
    </defs>
    <g id="Page-1" stroke="none" stroke-width="1" fill="none" fill-rule="evenodd">
        <g id="user_add_outline_28">
            <polygon id="Bounds" opacity="0.100000001" points="0 0 28 0 28 28 0 28"></polygon>
            <mask id="mask-2" fill="white">
                <use xlink:href="#path-1"></use>
            </mask>
            <use id="Mask" fill="#FFFFFF" fill-rule="nonzero" xlink:href="#path-1"></use>
        </g>
    </g>
</svg>