<?xml version="1.0" encoding="UTF-8"?>
<svg width="28px" height="28px" viewBox="0 0 28 28" version="1.1" xmlns="http://www.w3.org/2000/svg" xmlns:xlink="http://www.w3.org/1999/xlink">
    <!-- Generator: Sketch 48.2 (47327) - http://www.bohemiancoding.com/sketch -->
    <title>user_28</title>
    <desc>Created with Sketch.</desc>
    <defs>
        <path d="M18.5,9 C18.5,6.51375 16.48625,4.5 14,4.5 C11.51375,4.5 9.5,6.51375 9.5,9 C9.5,11.48625 11.51375,13.5 14,13.5 C16.48625,13.5 18.5,11.48625 18.5,9 Z M5.5,20 C5.5,21.75 6,22 7,22 L21,22 C22,22 22.5,21.75 22.5,20 C22.5,16 17,15 14,15 C11,15 5.5,16 5.5,20 Z" id="path-1"></path>
    </defs>
    <g id="Page-1" stroke="none" stroke-width="1" fill="none" fill-rule="evenodd">
        <g id="user_28">
            <rect id="Bounds" x="0" y="0" width="28" height="28"></rect>
            <mask id="mask-2" fill="white">
                <use xlink:href="#path-1"></use>
            </mask>
            <use id="Mask" fill="#FFFFFF" xlink:href="#path-1"></use>
        </g>
    </g>
</svg>