<?xml version="1.0" encoding="UTF-8"?>
<svg width="28px" height="28px" viewBox="0 0 28 28" version="1.1" xmlns="http://www.w3.org/2000/svg" xmlns:xlink="http://www.w3.org/1999/xlink">
    <!-- Generator: Sketch 48.2 (47327) - http://www.bohemiancoding.com/sketch -->
    <title>video_28</title>
    <desc>Created with Sketch.</desc>
    <defs>
        <path d="M7,4 L20,4 C21.6568542,4 23,5.34314575 23,7 L23,22 C23,23.6568542 21.6568542,25 20,25 L7,25 C5.34314575,25 4,23.6568542 4,22 L4,7 C4,5.34314575 5.34314575,4 7,4 Z M7.75,7 C7.33578644,7 7,7.33578644 7,7.75 L7,9.25 C7,9.66421356 7.33578644,10 7.75,10 L9.25,10 C9.66421356,10 10,9.66421356 10,9.25 L10,7.75 C10,7.33578644 9.66421356,7 9.25,7 L7.75,7 Z M17.75,7 C17.3357864,7 17,7.33578644 17,7.75 L17,9.25 C17,9.66421356 17.3357864,10 17.75,10 L19.25,10 C19.6642136,10 20,9.66421356 20,9.25 L20,7.75 C20,7.33578644 19.6642136,7 19.25,7 L17.75,7 Z M7.75,19 C7.33578644,19 7,19.3357864 7,19.75 L7,21.25 C7,21.6642136 7.33578644,22 7.75,22 L9.25,22 C9.66421356,22 10,21.6642136 10,21.25 L10,19.75 C10,19.3357864 9.66421356,19 9.25,19 L7.75,19 Z M17.75,19 C17.3357864,19 17,19.3357864 17,19.75 L17,21.25 C17,21.6642136 17.3357864,22 17.75,22 L19.25,22 C19.6642136,22 20,21.6642136 20,21.25 L20,19.75 C20,19.3357864 19.6642136,19 19.25,19 L17.75,19 Z M7.75,13 C7.33578644,13 7,13.3357864 7,13.75 L7,15.25 C7,15.6642136 7.33578644,16 7.75,16 L9.25,16 C9.66421356,16 10,15.6642136 10,15.25 L10,13.75 C10,13.3357864 9.66421356,13 9.25,13 L7.75,13 Z M17.75,13 C17.3357864,13 17,13.3357864 17,13.75 L17,15.25 C17,15.6642136 17.3357864,16 17.75,16 L19.25,16 C19.6642136,16 20,15.6642136 20,15.25 L20,13.75 C20,13.3357864 19.6642136,13 19.25,13 L17.75,13 Z" id="path-1"></path>
    </defs>
    <g id="Page-1" stroke="none" stroke-width="1" fill="none" fill-rule="evenodd">
        <g id="video_28">
            <polygon id="Bounds" opacity="0.4" points="0 0 28 0 28 28 0 28"></polygon>
            <mask id="mask-2" fill="white">
                <use xlink:href="#path-1"></use>
            </mask>
            <use id="Mask" fill="#FFFFFF" xlink:href="#path-1"></use>
        </g>
    </g>
</svg>