<?xml version="1.0" encoding="UTF-8"?>
<svg width="28px" height="28px" viewBox="0 0 28 28" version="1.1" xmlns="http://www.w3.org/2000/svg" xmlns:xlink="http://www.w3.org/1999/xlink">
    <!-- Generator: Sketch 48.2 (47327) - http://www.bohemiancoding.com/sketch -->
    <title>voice_28</title>
    <desc>Created with Sketch.</desc>
    <defs>
        <path d="M15,22.4698493 L15,25.5 C15,26.0522847 14.5522847,26.5 14,26.5 C13.4477153,26.5 13,26.0522847 13,25.5 L13,22.4698493 C8.94913239,22.1430331 5.56736574,19.1918922 4.7080697,15.209044 C4.59159473,14.6691811 4.93481852,14.137114 5.47468149,14.0206391 C6.01454446,13.9041641 6.54661149,14.2473879 6.66308646,14.7872509 C7.37724253,18.0973735 10.3188683,20.5 13.75,20.5 L14.25,20.5 C17.6807608,20.5 20.6221605,18.0978867 21.3367003,14.7882388 C21.4532511,14.2483922 21.9853663,13.9052431 22.5252129,14.0217939 C23.0650595,14.1383446 23.4082086,14.6704598 23.2916579,15.2103064 C22.431906,19.1925557 19.0504077,22.1430696 15,22.4698493 Z M14,2 C16.7614237,2 19,4.23857625 19,7 L19,13 C19,15.7614237 16.7614237,18 14,18 C11.2385763,18 9,15.7614237 9,13 L9,7 C9,4.23857625 11.2385763,2 14,2 Z" id="path-1"></path>
    </defs>
    <g id="Page-1" stroke="none" stroke-width="1" fill="none" fill-rule="evenodd">
        <g id="voice_28">
            <polygon id="Bounds" opacity="0.100000001" points="0 0 28 0 28 28 0 28"></polygon>
            <mask id="mask-2" fill="white">
                <use xlink:href="#path-1"></use>
            </mask>
            <use id="Mask" fill="#FFFFFF" fill-rule="nonzero" xlink:href="#path-1"></use>
        </g>
    </g>
</svg>