<?xml version="1.0" encoding="UTF-8"?>
<svg width="28px" height="28px" viewBox="0 0 28 28" version="1.1" xmlns="http://www.w3.org/2000/svg" xmlns:xlink="http://www.w3.org/1999/xlink">
    <!-- Generator: Sketch 48.2 (47327) - http://www.bohemiancoding.com/sketch -->
    <title>write_28</title>
    <desc>Created with Sketch.</desc>
    <defs>
        <path d="M17.1882845,7.27304088 L20.7278744,10.8126308 L9.10416767,22.4354608 C8.33090389,23.2086702 7.37950373,23.7800423 6.33363339,24.0993305 L3.43116121,24.9854108 C3.2548849,25.0392252 3.06835948,24.9399503 3.01454502,24.763674 C2.99515549,24.700161 2.99515549,24.6323075 3.01454502,24.5687946 L3.90055258,21.6665607 C4.21988711,20.6205385 4.79137793,19.6690164 5.56475393,18.8956947 L17.1882845,7.27304088 Z M18.2489847,6.21242071 L20.017722,4.44381677 C20.6035145,3.85806547 21.5532332,3.85808215 22.1390051,4.44385404 L23.5573492,5.86204905 C24.1431356,6.44783549 24.1431356,7.39758296 23.5573492,7.98336939 C23.5573368,7.98338182 23.5573243,7.98339424 23.5573119,7.98340666 L21.7885746,9.7520106 L18.2489847,6.21242071 Z" id="path-1"></path>
    </defs>
    <g id="Page-1" stroke="none" stroke-width="1" fill="none" fill-rule="evenodd">
        <g id="write_28">
            <polygon id="Shape" points="0 0 28 0 28 28 0 28"></polygon>
            <mask id="mask-2" fill="white">
                <use xlink:href="#path-1"></use>
            </mask>
            <use id="Mask" fill="#FFFFFF" xlink:href="#path-1"></use>
        </g>
    </g>
</svg>