<?xml version="1.0" encoding="UTF-8"?>
<svg width="12px" height="12px" viewBox="0 0 12 12" version="1.1" xmlns="http://www.w3.org/2000/svg" xmlns:xlink="http://www.w3.org/1999/xlink">
    <!-- Generator: Sketch 48.2 (47327) - http://www.bohemiancoding.com/sketch -->
    <title>fire_verified_12</title>
    <desc>Created with Sketch.</desc>
    <defs>
        <path d="M6.09252932,0.786897167 C6.13635963,0.754398235 6.19217003,0.74259832 6.24540378,0.754575134 C6.34645972,0.777311237 6.40995049,0.877664515 6.38721439,0.978720454 L6.38716383,0.978709079 C6.36060748,1.096745 6.3273591,1.18659736 6.2874187,1.24826614 C4.87153848,3.43441356 5.49338196,4.7484933 6.44812809,4.8897056 C7.4356247,5.03576188 8.15799383,4.37418333 8.00343037,2.94620692 C7.97680704,2.70024003 7.95455105,2.49296276 7.9366624,2.3243751 C7.9324501,2.28467726 7.94215438,2.24474861 7.96411691,2.2114123 C8.01646456,2.13195532 8.12331332,2.10997886 8.2027703,2.1623265 L8.20288809,2.16214771 C8.52386569,2.37361333 8.90799868,2.75826208 9.35528706,3.31609395 C10.946714,5.30082847 11.0089574,6.96208597 11,7.67660087 C10.9678854,10.2383371 9.07142857,12.0000578 6.5,12.0000578 C3.92857143,12.0000578 2,10.2386494 2,7.67660087 C2.01138971,5.73691513 2.99124145,3.00657776 5.6963282,1.07643338 C5.79736695,1.00433981 5.92943399,0.907827737 6.09252932,0.786897167 Z M4.62123106,7.12882675 C4.41620581,6.9238015 4.08379419,6.9238015 3.87876894,7.12882675 C3.67374369,7.333852 3.67374369,7.66626362 3.87876894,7.87128887 L5.37876894,9.37128887 C5.58379419,9.57631412 5.91620581,9.57631412 6.12123106,9.37128887 L9.12123106,6.37128887 C9.32625631,6.16626362 9.32625631,5.833852 9.12123106,5.62882675 C8.91620581,5.4238015 8.58379419,5.4238015 8.37876894,5.62882675 L5.75,8.25759569 L4.62123106,7.12882675 Z" id="path-1"></path>
    </defs>
    <g id="Artboard" stroke="none" stroke-width="1" fill="none" fill-rule="evenodd" transform="translate(-1046.000000, -663.000000)">
        <g id="fire_verified_12" transform="translate(1046.000000, 663.000000)">
            <rect id="Rectangle-5" x="0" y="0" width="12" height="12"></rect>
            <mask id="mask-2" fill="white">
                <use xlink:href="#path-1"></use>
            </mask>
            <use id="Mask" fill="#FFFFFF" fill-rule="nonzero" xlink:href="#path-1"></use>
        </g>
    </g>
</svg>