<svg xmlns="http://www.w3.org/2000/svg" xmlns:xlink="http://www.w3.org/1999/xlink" width="12" height="12" viewBox="0 0 12 12">
    <defs>
        <path id="a" d="M3 5V3.497a3 3 0 0 1 6-.002V5h.539c.334 0 .455.035.577.1a.681.681 0 0 1 .284.284c.065.122.1.243.1.577v4.078c0 .334-.035.455-.1.577a.681.681 0 0 1-.284.284c-.122.065-.243.1-.577.1H2.46c-.334 0-.455-.035-.577-.1a.681.681 0 0 1-.284-.284c-.065-.122-.1-.243-.1-.577V5.96c0-.334.035-.455.1-.577a.681.681 0 0 1 .284-.284c.122-.065.243-.1.577-.1H3zm3-3a1.5 1.5 0 0 0-1.5 1.5V5h3V3.5A1.5 1.5 0 0 0 6 2z"/>
    </defs>
    <g fill="none" fill-rule="evenodd"><path d="M0 0H12V12H0z"/>
        <use fill="#FFF" xlink:href="#a"/>
    </g>
</svg>
