<?xml version="1.0" encoding="UTF-8"?>
<svg width="12px" height="12px" viewBox="0 0 12 12" version="1.1" xmlns="http://www.w3.org/2000/svg" xmlns:xlink="http://www.w3.org/1999/xlink">
    <!-- Generator: Sketch 48.2 (47327) - http://www.bohemiancoding.com/sketch -->
    <title>verified_12</title>
    <desc>Created with Sketch.</desc>
    <defs>
        <path d="M5.80896116,11.2931493 L4.52686318,11.7124285 C4.27296523,11.7954597 3.99450716,11.7049832 3.83790392,11.4885721 L3.047111,10.3957698 C2.97055129,10.2899714 2.86228217,10.2113093 2.73800366,10.1711902 L1.45431848,9.75679591 C1.2001062,9.67473209 1.02800965,9.43786151 1.02851823,9.17073215 L1.03108639,7.82182012 C1.03133503,7.69122675 0.989979903,7.56394877 0.913017896,7.45844265 L0.118069611,6.36865942 C-0.039356537,6.15284616 -0.039356537,5.86005803 0.118069611,5.64424477 L0.913017896,4.55446154 C0.989979903,4.44895543 1.03133503,4.32167744 1.03108639,4.19108407 L1.02851823,2.84217204 C1.02800965,2.57504268 1.2001062,2.3381721 1.45431848,2.25610828 L2.73800366,1.841714 C2.86228217,1.8015949 2.97055129,1.72293278 3.047111,1.61713438 L3.83790392,0.52433209 C3.99450716,0.307920963 4.27296523,0.217444452 4.52686318,0.300475653 L5.80896116,0.719754861 C5.933086,0.760346897 6.066914,0.760346897 6.19103884,0.719754861 L7.47313682,0.300475653 C7.72703477,0.217444452 8.00549284,0.307920963 8.16209608,0.52433209 L8.952889,1.61713438 C9.02944871,1.72293278 9.13771783,1.8015949 9.26199634,1.841714 L10.5456815,2.25610828 C10.7998938,2.3381721 10.9719903,2.57504268 10.9714818,2.84217204 L10.9689136,4.19108407 C10.968665,4.32167744 11.0100201,4.44895543 11.0869821,4.55446154 L11.8819304,5.64424477 C12.0393565,5.86005803 12.0393565,6.15284616 11.8819304,6.36865942 L11.0869821,7.45844265 C11.0100201,7.56394877 10.968665,7.69122675 10.9689136,7.82182012 L10.9714818,9.17073215 C10.9719903,9.43786151 10.7998938,9.67473209 10.5456815,9.75679591 L9.26199634,10.1711902 C9.13771783,10.2113093 9.02944871,10.2899714 8.952889,10.3957698 L8.16209608,11.4885721 C8.00549284,11.7049832 7.72703477,11.7954597 7.47313682,11.7124285 L6.19103884,11.2931493 C6.066914,11.2525573 5.933086,11.2525573 5.80896116,11.2931493 Z M3.95961941,6.04038059 C3.70577862,5.7865398 3.29422138,5.7865398 3.04038059,6.04038059 C2.7865398,6.29422138 2.7865398,6.70577862 3.04038059,6.95961941 L4.54038059,8.45961941 C4.79422138,8.7134602 5.20577862,8.7134602 5.45961941,8.45961941 L8.95961941,4.95961941 C9.2134602,4.70577862 9.2134602,4.29422138 8.95961941,4.04038059 C8.70577862,3.7865398 8.29422138,3.7865398 8.04038059,4.04038059 L5,7.08076118 L3.95961941,6.04038059 Z" id="path-1"></path>
    </defs>
    <g id="Artboard" stroke="none" stroke-width="1" fill="none" fill-rule="evenodd" transform="translate(-1046.000000, -727.000000)">
        <g id="verified_12" transform="translate(1046.000000, 727.000000)">
            <rect id="Rectangle-9" x="0" y="0" width="12" height="12"></rect>
            <mask id="mask-2" fill="white">
                <use xlink:href="#path-1"></use>
            </mask>
            <use id="Mask" fill="#FFFFFF" xlink:href="#path-1"></use>
        </g>
    </g>
</svg>