<?xml version="1.0" encoding="UTF-8"?>
<svg width="24px" height="24px" viewBox="0 0 24 24" version="1.1" xmlns="http://www.w3.org/2000/svg" xmlns:xlink="http://www.w3.org/1999/xlink">
    <!-- Generator: Sketch 48.1 (47250) - http://www.bohemiancoding.com/sketch -->
    <title>add_24</title>
    <desc>Created with Sketch.</desc>
    <defs>
        <path d="M13.000006,11 L19.5,11 C20.0522847,11 20.5,11.4477153 20.5,12 C20.5,12.5522847 20.0522847,13 19.5,13 L13.000006,13 L13.000006,19.500084 C13.000006,20.0523464 12.5523089,20.5000435 12.0000465,20.5000435 C12.000032,20.5000435 12.0000175,20.5000435 12.000003,20.5000435 C11.4477096,20.5000195 11,20.0522904 11,19.499997 L11,13 L4.5,13 C3.94771525,13 3.5,12.5522847 3.5,12 C3.5,11.4477153 3.94771525,11 4.5,11 L11,11 L11,4.50000301 C11,3.9477166 11.4477166,3.5 12.000003,3.5 C12.5522894,3.5 13.000006,3.9477166 13.000006,4.50000301 L13.000006,11 Z" id="path-1"></path>
    </defs>
    <g id="Artboard" stroke="none" stroke-width="1" fill="none" fill-rule="evenodd" transform="translate(-740.000000, -221.000000)">
        <g id="add_24" transform="translate(740.000000, 221.000000)">
            <rect id="Mask" opacity="0.100000001" x="0" y="0" width="24" height="24"></rect>
            <mask id="mask-2" fill="white">
                <use xlink:href="#path-1"></use>
            </mask>
            <use id="Mask" fill="#FFFFFF" xlink:href="#path-1"></use>
        </g>
    </g>
</svg>
