<?xml version="1.0" encoding="UTF-8"?>
<svg width="24px" height="24px" viewBox="0 0 24 24" version="1.1" xmlns="http://www.w3.org/2000/svg" xmlns:xlink="http://www.w3.org/1999/xlink">
    <!-- Generator: Sketch 49.2 (51160) - http://www.bohemiancoding.com/sketch -->
    <title>airplay_24</title>
    <desc>Created with Sketch.</desc>
    <defs><path d="M18.8284271,17 L17.1617605,15.3333333 L18.8590287,15.3333333 C19.0819084,15.3333333 19.1627299,15.3101269 19.2442114,15.2665502 C19.3256929,15.2229734 19.3896401,15.1590262 19.4332168,15.0775448 C19.4767936,14.9960633 19.5,14.9152417 19.5,14.692362 L19.5,6.6409713 C19.5,6.41809162 19.4767936,6.33727006 19.4332168,6.25578857 C19.3896401,6.17430709 19.3256929,6.11035995 19.2442114,6.06678318 C19.1627299,6.0232064 19.0819084,6 18.8590287,6 L5.1409713,6 C4.91809162,6 4.83727006,6.0232064 4.75578857,6.06678318 C4.67430709,6.11035995 4.61035995,6.17430709 4.56678318,6.25578857 C4.5232064,6.33727006 4.5,6.41809162 4.5,6.6409713 L4.5,14.692362 C4.5,14.9152417 4.5232064,14.9960633 4.56678318,15.0775448 C4.61035995,15.1590262 4.67430709,15.2229734 4.75578857,15.2665502 C4.83727006,15.3101269 4.91809162,15.3333333 5.1409713,15.3333333 L6.83823954,15.3333333 L5.17157288,17 L5.0638852,17 C4.17236646,17 3.84908022,16.9071744 3.5231543,16.7328673 C3.19722837,16.5585602 2.9414398,16.3027716 2.7671327,15.9768457 C2.59282561,15.6509198 2.5,15.3276335 2.5,14.4361148 L2.5,6.5638852 C2.5,5.67236646 2.59282561,5.34908022 2.7671327,5.0231543 C2.9414398,4.69722837 3.19722837,4.4414398 3.5231543,4.2671327 C3.84908022,4.09282561 4.17236646,4 5.0638852,4 L18.9361148,4 C19.8276335,4 20.1509198,4.09282561 20.4768457,4.2671327 C20.8027716,4.4414398 21.0585602,4.69722837 21.2328673,5.0231543 C21.4071744,5.34908022 21.5,5.67236646 21.5,6.5638852 L21.5,14.4361148 C21.5,15.3276335 21.4071744,15.6509198 21.2328673,15.9768457 C21.0585602,16.3027716 20.8027716,16.5585602 20.4768457,16.7328673 C20.1509198,16.9071744 19.8276335,17 18.9361148,17 L18.8284271,17 Z M5.85355339,19.1464466 L11.6464466,13.3535534 C11.8417088,13.1582912 12.1582912,13.1582912 12.3535534,13.3535534 L18.1464466,19.1464466 C18.3417088,19.3417088 18.3417088,19.6582912 18.1464466,19.8535534 C18.0526784,19.9473216 17.9255015,20 17.7928932,20 L6.20710678,20 C5.93096441,20 5.70710678,19.7761424 5.70710678,19.5 C5.70710678,19.3673918 5.7597852,19.2402148 5.85355339,19.1464466 Z" id="Mask" fill="#FFFFFF"></path></defs>
    <g id="Page-1" stroke="none" stroke-width="1" fill="none" fill-rule="evenodd">
        <g id="airplay_24">
            <rect id="Rectangle-8" opacity="0.600000024" x="0" y="0" width="24" height="24"></rect>
            <path d="M18.8284271,17 L17.1617605,15.3333333 L18.8590287,15.3333333 C19.0819084,15.3333333 19.1627299,15.3101269 19.2442114,15.2665502 C19.3256929,15.2229734 19.3896401,15.1590262 19.4332168,15.0775448 C19.4767936,14.9960633 19.5,14.9152417 19.5,14.692362 L19.5,6.6409713 C19.5,6.41809162 19.4767936,6.33727006 19.4332168,6.25578857 C19.3896401,6.17430709 19.3256929,6.11035995 19.2442114,6.06678318 C19.1627299,6.0232064 19.0819084,6 18.8590287,6 L5.1409713,6 C4.91809162,6 4.83727006,6.0232064 4.75578857,6.06678318 C4.67430709,6.11035995 4.61035995,6.17430709 4.56678318,6.25578857 C4.5232064,6.33727006 4.5,6.41809162 4.5,6.6409713 L4.5,14.692362 C4.5,14.9152417 4.5232064,14.9960633 4.56678318,15.0775448 C4.61035995,15.1590262 4.67430709,15.2229734 4.75578857,15.2665502 C4.83727006,15.3101269 4.91809162,15.3333333 5.1409713,15.3333333 L6.83823954,15.3333333 L5.17157288,17 L5.0638852,17 C4.17236646,17 3.84908022,16.9071744 3.5231543,16.7328673 C3.19722837,16.5585602 2.9414398,16.3027716 2.7671327,15.9768457 C2.59282561,15.6509198 2.5,15.3276335 2.5,14.4361148 L2.5,6.5638852 C2.5,5.67236646 2.59282561,5.34908022 2.7671327,5.0231543 C2.9414398,4.69722837 3.19722837,4.4414398 3.5231543,4.2671327 C3.84908022,4.09282561 4.17236646,4 5.0638852,4 L18.9361148,4 C19.8276335,4 20.1509198,4.09282561 20.4768457,4.2671327 C20.8027716,4.4414398 21.0585602,4.69722837 21.2328673,5.0231543 C21.4071744,5.34908022 21.5,5.67236646 21.5,6.5638852 L21.5,14.4361148 C21.5,15.3276335 21.4071744,15.6509198 21.2328673,15.9768457 C21.0585602,16.3027716 20.8027716,16.5585602 20.4768457,16.7328673 C20.1509198,16.9071744 19.8276335,17 18.9361148,17 L18.8284271,17 Z M5.85355339,19.1464466 L11.6464466,13.3535534 C11.8417088,13.1582912 12.1582912,13.1582912 12.3535534,13.3535534 L18.1464466,19.1464466 C18.3417088,19.3417088 18.3417088,19.6582912 18.1464466,19.8535534 C18.0526784,19.9473216 17.9255015,20 17.7928932,20 L6.20710678,20 C5.93096441,20 5.70710678,19.7761424 5.70710678,19.5 C5.70710678,19.3673918 5.7597852,19.2402148 5.85355339,19.1464466 Z" id="Mask" fill="#FFFFFF"></path>
        </g>
    </g>
</svg>
