<?xml version="1.0" encoding="UTF-8"?>
<svg width="24px" height="24px" viewBox="0 0 24 24" version="1.1" xmlns="http://www.w3.org/2000/svg" xmlns:xlink="http://www.w3.org/1999/xlink">
    <!-- Generator: Sketch 49.2 (51160) - http://www.bohemiancoding.com/sketch -->
    <title>artist_24</title>
    <desc>Created with Sketch.</desc>
    <defs><path d="M15.1330598,14.1236745 C13.0774171,14.6402427 11.75,16.3546045 11.75,18.3752874 C11.75,18.9655218 11.837705,19.5090315 11.998075,20 L4,20 C3.44771525,20 3,19.5522847 3,19 L3,18 C3,14.5 8.33277086,13.5 11.0041589,13.5 C12.1126126,13.5 13.6792805,13.6721715 15.1330598,14.1236745 Z M15.0062383,8 C15.0062383,10.21 13.2153078,12 11.0041589,12 C8.79301,12 7.00207944,10.21 7.00207944,8 C7.00207944,5.79 8.79301,4 11.0041589,4 C13.2153078,4 15.0062383,5.79 15.0062383,8 Z M19.5037182,16.6434374 C19.5037182,19.4310862 18.758297,20.1007595 16.6689467,20.4633634 C15.5591109,20.6559739 14.25,20.1077524 14.25,18.3752874 C14.25,17.5290148 14.7849582,16.725369 15.8920394,16.5153624 C16.7375175,16.3549804 15.5760988,16.5542937 17.4888226,16.202793 C17.9531674,16.1174605 18.0057857,15.953 18.0057857,15.6026036 C18.0057857,15.4266598 18.0017088,15.2842169 17.9961594,14.2282681 L17.9961594,11.3766703 C17.9961594,11.3766703 17.9925259,10.0173335 17.9961594,9.33767193 C18.0005052,8.52477647 18.6212142,8.22603038 19.9450084,7.96135963 C19.9450084,7.96135963 21.4591628,7.71374795 22.5680348,7.51466109 C22.8134144,7.47060563 23.0007463,7.56101016 23.0007463,7.83960783 L23.0007463,10.3972053 C23.0007463,10.6718972 22.8883762,10.7962355 22.607126,10.8456494 C21.4851205,11.0427787 19.8642046,11.3233195 19.8642046,11.3233195 C19.6147576,11.3839648 19.5005208,11.5577705 19.5005208,11.8076045 L19.5037182,16.6434374 Z" id="Mask" fill="#FFFFFF"></path></defs>
    <g id="Page-1" stroke="none" stroke-width="1" fill="none" fill-rule="evenodd">
        <g id="artist_24">
            <polygon id="Bounds" opacity="0.100000001" points="0 0 24 0 24 24 0 24"></polygon>
            <path d="M15.1330598,14.1236745 C13.0774171,14.6402427 11.75,16.3546045 11.75,18.3752874 C11.75,18.9655218 11.837705,19.5090315 11.998075,20 L4,20 C3.44771525,20 3,19.5522847 3,19 L3,18 C3,14.5 8.33277086,13.5 11.0041589,13.5 C12.1126126,13.5 13.6792805,13.6721715 15.1330598,14.1236745 Z M15.0062383,8 C15.0062383,10.21 13.2153078,12 11.0041589,12 C8.79301,12 7.00207944,10.21 7.00207944,8 C7.00207944,5.79 8.79301,4 11.0041589,4 C13.2153078,4 15.0062383,5.79 15.0062383,8 Z M19.5037182,16.6434374 C19.5037182,19.4310862 18.758297,20.1007595 16.6689467,20.4633634 C15.5591109,20.6559739 14.25,20.1077524 14.25,18.3752874 C14.25,17.5290148 14.7849582,16.725369 15.8920394,16.5153624 C16.7375175,16.3549804 15.5760988,16.5542937 17.4888226,16.202793 C17.9531674,16.1174605 18.0057857,15.953 18.0057857,15.6026036 C18.0057857,15.4266598 18.0017088,15.2842169 17.9961594,14.2282681 L17.9961594,11.3766703 C17.9961594,11.3766703 17.9925259,10.0173335 17.9961594,9.33767193 C18.0005052,8.52477647 18.6212142,8.22603038 19.9450084,7.96135963 C19.9450084,7.96135963 21.4591628,7.71374795 22.5680348,7.51466109 C22.8134144,7.47060563 23.0007463,7.56101016 23.0007463,7.83960783 L23.0007463,10.3972053 C23.0007463,10.6718972 22.8883762,10.7962355 22.607126,10.8456494 C21.4851205,11.0427787 19.8642046,11.3233195 19.8642046,11.3233195 C19.6147576,11.3839648 19.5005208,11.5577705 19.5005208,11.8076045 L19.5037182,16.6434374 Z" id="Mask" fill="#FFFFFF"></path>
        </g>
    </g>
</svg>
