<?xml version="1.0" encoding="UTF-8"?>
<svg width="24px" height="24px" viewBox="0 0 24 24" version="1.1" xmlns="http://www.w3.org/2000/svg" xmlns:xlink="http://www.w3.org/1999/xlink">
    <!-- Generator: Sketch 48.1 (47250) - http://www.bohemiancoding.com/sketch -->
    <title>attachments_24</title>
    <desc>Created with Sketch.</desc>
    <defs>
        <path d="M20,17.9999774 L20,6.76375 C20,5.23737302 18.762627,4 17.23625,4 L6.00002261,4 C6.00540939,2.89450829 6.90324289,2 8.01,2 L18.4825,2 C20.4251616,2 22,3.57483839 22,5.5175 L22,15.99 C22,17.0967571 21.1054917,17.9945906 20,17.9999756 Z M15.99,6 L4.01,6 C2.89990765,6 2,6.89990765 2,8.01 L2,19.99 C2,21.1000923 2.89990765,22 4.01,22 L15.99,22 C17.1000923,22 18,21.1000923 18,19.99 L18,8.01 C18,6.89990765 17.1000923,6 15.99,6 Z M7,15.25 L9.14285714,17.7583333 L12.1428571,14 L15.4647859,18.3062039 C15.6100819,18.4945507 15.5751825,18.7650216 15.3868357,18.9103176 C15.311462,18.9684631 15.218949,19 15.123754,19 L4.89615485,19 C4.65827791,19 4.46544056,18.8071626 4.46544056,18.5692857 C4.46544056,18.4714828 4.49872648,18.3765919 4.55982349,18.3002206 L7,15.25 Z" id="path-1"></path>
    </defs>
    <g id="Artboard" stroke="none" stroke-width="1" fill="none" fill-rule="evenodd" transform="translate(-692.000000, -509.000000)">
        <g id="attachments_24" transform="translate(692.000000, 509.000000)">
            <polygon id="Mask" points="0 0 24 0 24 24 0 24"></polygon>
            <mask id="mask-2" fill="white">
                <use xlink:href="#path-1"></use>
            </mask>
            <use id="Mask" fill="#FFFFFF" fill-rule="nonzero" xlink:href="#path-1"></use>
        </g>
    </g>
</svg>