<?xml version="1.0" encoding="UTF-8"?>
<svg width="24px" height="24px" viewBox="0 0 24 24" version="1.1" xmlns="http://www.w3.org/2000/svg" xmlns:xlink="http://www.w3.org/1999/xlink">
    <!-- Generator: Sketch 48.2 (47327) - http://www.bohemiancoding.com/sketch -->
    <title>camera_24</title>
    <desc>Created with Sketch.</desc>
    <defs><path d="M9.62891942,3.5 L14.3710806,3.5 C15.0608924,3.5 15.4651682,3.70079164 15.8613426,4.16624501 C15.8816808,4.19013985 16.2157118,4.6055072 16.5794033,5.05442495 C16.9430947,5.5033427 17.6837325,6 18.3636364,6 L18.8181818,6 C21,6 22,7.33333333 22,9.55555556 L22,16.4444444 C22,18.4081236 20.3719445,20 18.3636364,20 L5.63636364,20 C3.62805546,20 2,18.4081236 2,16.4444444 L2,9.55555556 C2,7.33333333 3,6 5.18181818,6 L5.63636364,6 C6.31626753,6 7.05690529,5.5033427 7.42059674,5.05442495 C7.78428819,4.6055072 8.11831917,4.19013985 8.13865745,4.16624501 C8.53483179,3.70079164 8.93910759,3.5 9.62891942,3.5 Z M7,12.5 C7,15.26 9.24,17.5 12,17.5 C14.76,17.5 17,15.26 17,12.5 C17,9.74 14.76,7.5 12,7.5 C9.24,7.5 7,9.74 7,12.5 Z M8.60000038,12.5000062 C8.60000038,10.6220374 10.1220317,9.1000061 12.0000005,9.1000061 C13.8779693,9.1000061 15.4000006,10.6220374 15.4000006,12.5000062 C15.4000006,14.377975 13.8779693,15.9000063 12.0000005,15.9000063 C10.1220317,15.9000063 8.60000038,14.377975 8.60000038,12.5000062 Z" id="Shape" fill="#FFFFFF"></path></defs>
    <g id="Page-1" stroke="none" stroke-width="1" fill="none" fill-rule="evenodd">
        <g id="camera_24">
            <rect id="Bounds" opacity="0.4" x="0" y="0" width="24" height="24"></rect>
            <path d="M9.62891942,3.5 L14.3710806,3.5 C15.0608924,3.5 15.4651682,3.70079164 15.8613426,4.16624501 C15.8816808,4.19013985 16.2157118,4.6055072 16.5794033,5.05442495 C16.9430947,5.5033427 17.6837325,6 18.3636364,6 L18.8181818,6 C21,6 22,7.33333333 22,9.55555556 L22,16.4444444 C22,18.4081236 20.3719445,20 18.3636364,20 L5.63636364,20 C3.62805546,20 2,18.4081236 2,16.4444444 L2,9.55555556 C2,7.33333333 3,6 5.18181818,6 L5.63636364,6 C6.31626753,6 7.05690529,5.5033427 7.42059674,5.05442495 C7.78428819,4.6055072 8.11831917,4.19013985 8.13865745,4.16624501 C8.53483179,3.70079164 8.93910759,3.5 9.62891942,3.5 Z M7,12.5 C7,15.26 9.24,17.5 12,17.5 C14.76,17.5 17,15.26 17,12.5 C17,9.74 14.76,7.5 12,7.5 C9.24,7.5 7,9.74 7,12.5 Z M8.60000038,12.5000062 C8.60000038,10.6220374 10.1220317,9.1000061 12.0000005,9.1000061 C13.8779693,9.1000061 15.4000006,10.6220374 15.4000006,12.5000062 C15.4000006,14.377975 13.8779693,15.9000063 12.0000005,15.9000063 C10.1220317,15.9000063 8.60000038,14.377975 8.60000038,12.5000062 Z" id="Shape" fill="#FFFFFF"></path>
        </g>
    </g>
</svg>
