<?xml version="1.0" encoding="UTF-8"?>
<svg width="24px" height="24px" viewBox="0 0 24 24" version="1.1" xmlns="http://www.w3.org/2000/svg" xmlns:xlink="http://www.w3.org/1999/xlink">
    <!-- Generator: Sketch 48.1 (47250) - http://www.bohemiancoding.com/sketch -->
    <title>delete_24</title>
    <desc>Created with Sketch.</desc>
    <defs>
        <path d="M8.5,21 L15.5,21 C16.8807119,21 18,19.8807119 18,18.5 L18,7 L6,7 L6,18.5 C6,19.8807119 7.11928813,21 8.5,21 Z M8.76756439,4 C9.11337381,3.40219863 9.75971764,3 10.5,3 L13.5,3 C14.2402824,3 14.8866262,3.40219863 15.2324356,4 L18,4 C18.5522847,4 19,4.44771525 19,5 L19,5.75 C19,5.88807119 18.8880712,6 18.75,6 L5.25,6 C5.11192881,6 5,5.88807119 5,5.75 L5,5 C5,4.44771525 5.44771525,4 6,4 L8.76756439,4 Z" id="path-1"></path>
    </defs>
    <g id="Artboard" stroke="none" stroke-width="1" fill="none" fill-rule="evenodd" transform="translate(-548.000000, -317.000000)">
        <g id="delete_24" transform="translate(548.000000, 317.000000)">
            <polygon id="Mask" points="0 0 24 0 24 24 0 24"></polygon>
            <mask id="mask-2" fill="white">
                <use xlink:href="#path-1"></use>
            </mask>
            <use id="Mask" fill="#FFFFFF" fill-rule="nonzero" xlink:href="#path-1"></use>
        </g>
    </g>
</svg>