<?xml version="1.0" encoding="UTF-8"?>
<svg width="24px" height="24px" viewBox="0 0 24 24" version="1.1" xmlns="http://www.w3.org/2000/svg" xmlns:xlink="http://www.w3.org/1999/xlink">
    <!-- Generator: Sketch 48.1 (47250) - http://www.bohemiancoding.com/sketch -->
    <title>document_24</title>
    <desc>Created with Sketch.</desc>
    <defs>
        <path d="M4,5 L4,17.9999819 C4,19.6568362 5.34314575,20.9999819 7,20.9999819 L17.9999776,21.0022887 C19.6568319,21.0022887 20.9999776,19.659143 20.9999776,18.0022887 C20.9999776,18.0015195 20.9999773,18.0007503 20.9999767,17.9999811 L20.9906142,8.8275199 C20.9902066,8.29762029 20.7795242,7.78954084 20.4048286,7.41484505 L15.575772,2.5857867 C15.2006992,2.21071378 14.6919913,2 14.1615582,2 L7,2 C5.34314575,2 4,3.34314575 4,5 Z M14.0121321,4.01213205 L17.987871,7.987871 C18.1050283,8.10502829 18.1050283,8.2949778 17.987871,8.41213509 C17.9316104,8.46839569 17.8553047,8.50000272 17.7757402,8.50000306 L14,8.50002111 C13.7238576,8.50002227 13.4999991,8.27616559 13.4999979,8.00002322 C13.4999979,8.00002252 13.4999979,8.00002181 13.4999979,8.00002111 L13.5,4.2242641 C13.5,4.05857867 13.6343146,3.92426409 13.8,3.92426409 C13.879565,3.92426409 13.9558711,3.95587114 14.0121321,4.01213205 Z" id="path-1"></path>
    </defs>
    <g id="Artboard" stroke="none" stroke-width="1" fill="none" fill-rule="evenodd" transform="translate(-500.000000, -221.000000)">
        <g id="document_24" transform="translate(500.000000, 221.000000)">
            <rect id="Mask" opacity="0.4" x="0" y="0" width="24" height="24"></rect>
            <mask id="mask-2" fill="white">
                <use xlink:href="#path-1"></use>
            </mask>
            <use id="Mask" fill="#FFFFFF" xlink:href="#path-1"></use>
        </g>
    </g>
</svg>