<?xml version="1.0" encoding="UTF-8"?>
<svg width="24px" height="24px" viewBox="0 0 24 24" version="1.1" xmlns="http://www.w3.org/2000/svg" xmlns:xlink="http://www.w3.org/1999/xlink">
    <!-- Generator: Sketch 48.1 (47250) - http://www.bohemiancoding.com/sketch -->
    <title>download_24</title>
    <desc>Created with Sketch.</desc>
    <defs>
        <path d="M9,3 L15,3 L15,9 L18.0343146,9 C18.2552285,9 18.4343146,9.1790861 18.4343146,9.4 C18.4343146,9.5060866 18.3921718,9.60782816 18.3171573,9.68284271 L12.2828427,15.7171573 C12.126633,15.873367 11.873367,15.873367 11.7171573,15.7171573 L5.68284271,9.68284271 C5.526633,9.526633 5.526633,9.273367 5.68284271,9.11715729 C5.75785726,9.04214274 5.85959883,9 5.96568542,9 L9,9 L9,3 Z M6,18 L18,18 C18.5522847,18 19,18.4477153 19,19 L19,19 C19,19.5522847 18.5522847,20 18,20 L6,20 C5.44771525,20 5,19.5522847 5,19 L5,19 C5,18.4477153 5.44771525,18 6,18 Z" id="path-1"></path>
    </defs>
    <g id="Artboard" stroke="none" stroke-width="1" fill="none" fill-rule="evenodd" transform="translate(-692.000000, -365.000000)">
        <g id="download_24" transform="translate(692.000000, 365.000000)">
            <polygon id="Mask" points="0 0 24 0 24 24 0 24"></polygon>
            <mask id="mask-2" fill="white">
                <use xlink:href="#path-1"></use>
            </mask>
            <use id="Mask" fill="#FFFFFF" xlink:href="#path-1"></use>
        </g>
    </g>
</svg>