<?xml version="1.0" encoding="UTF-8"?>
<svg width="24px" height="24px" viewBox="0 0 24 24" version="1.1" xmlns="http://www.w3.org/2000/svg" xmlns:xlink="http://www.w3.org/1999/xlink">
    <!-- Generator: Sketch 48.1 (47250) - http://www.bohemiancoding.com/sketch -->
    <title>fullscreen_exit_24</title>
    <desc>Created with Sketch.</desc>
    <defs>
        <path d="M19.4203095,13.9787492 L19.4203095,13.9787492 C19.4203095,14.5251657 18.9773514,14.9681238 18.4309349,14.9681238 L16.3814454,14.9681238 L19.7025773,18.2877789 C20.0931732,18.6782316 20.0932893,19.3113966 19.7028366,19.7019924 C19.7027934,19.7020357 19.7027502,19.7020789 19.702707,19.7021221 L19.7021221,19.702707 C19.3115978,20.0932313 18.6784328,20.0932313 18.2879085,19.702707 C18.2878653,19.7026638 18.2878221,19.7026205 18.2877789,19.7025773 L14.9681238,16.3814454 L14.9681238,18.4309349 C14.9681238,18.9773514 14.5251657,19.4203095 13.9787492,19.4203095 L13.9787492,19.4203095 C13.4323327,19.4203095 12.9893746,18.9773514 12.9893746,18.4309349 L12.9893746,13.9787492 C12.9893746,13.4323327 13.4323327,12.9893746 13.9787492,12.9893746 L18.4309349,12.9893746 C18.9773514,12.9893746 19.4203095,13.4323327 19.4203095,13.9787492 Z M9.03187619,7.61855457 L9.03187619,5.56906508 C9.03187619,5.02264857 9.47483429,4.57969048 10.0212508,4.57969048 L10.0212508,4.57969048 C10.5676673,4.57969048 11.0106254,5.02264857 11.0106254,5.56906508 L11.0106254,10.0106254 C11.0106254,10.5629101 10.5629101,11.0106254 10.0106254,11.0106254 L5.56906508,11.0106254 C5.02264857,11.0106254 4.57969048,10.5676673 4.57969048,10.0212508 L4.57969048,10.0212508 C4.57969048,9.47483429 5.02264857,9.03187619 5.56906508,9.03187619 L7.61855457,9.03187619 L4.29742268,5.71222109 C3.90682679,5.32176841 3.90671071,4.68860344 4.29716339,4.29800755 C4.2972066,4.29796433 4.29724981,4.29792111 4.29729303,4.2978779 L4.2978779,4.29729302 C4.68840219,3.90676873 5.32156717,3.90676873 5.71209146,4.29729302 C5.71213468,4.29733624 5.71217789,4.29737946 5.71222109,4.29742268 L9.03187619,7.61855457 Z" id="path-1"></path>
    </defs>
    <g id="Artboard" stroke="none" stroke-width="1" fill="none" fill-rule="evenodd" transform="translate(-644.000000, -655.000000)">
        <g id="fullscreen_exit_24" transform="translate(644.000000, 655.000000)">
            <polygon id="Mask" opacity="0.4" points="0 0 24 0 24 24 0 24"></polygon>
            <mask id="mask-2" fill="white">
                <use xlink:href="#path-1"></use>
            </mask>
            <use id="Mask" fill="#FFFFFF" transform="translate(12.000000, 12.000000) scale(-1, 1) translate(-12.000000, -12.000000) " xlink:href="#path-1"></use>
        </g>
    </g>
</svg>