<?xml version="1.0" encoding="UTF-8"?>
<svg width="24px" height="24px" viewBox="0 0 24 24" version="1.1" xmlns="http://www.w3.org/2000/svg" xmlns:xlink="http://www.w3.org/1999/xlink">
    <!-- Generator: Sketch 48.1 (47250) - http://www.bohemiancoding.com/sketch -->
    <title>gift_24</title>
    <desc>Created with Sketch.</desc>
    <defs>
        <path d="M21.0000036,10 L21,12 C20.9999993,12.5522843 20.5522843,12.9999988 20,12.9999988 L19,13 L19,19.5 C19,20.8807119 17.8807119,22 16.5,22 L7.5,22 C6.11928813,22 5,20.8807119 5,19.5 L5,13 L6,13 C5.33333333,13 4.66666667,13 4,13 L4,13 C3.44771525,13 3,12.5522847 3,12 L3,10 C3,8.8954305 3.8954305,8 5,8 L19.000006,7.99999759 C20.1045755,7.99999759 21.000006,8.89542809 21.000006,9.99999759 C21.000006,9.99999839 21.000006,9.9999992 21.000006,10 Z M13,13 L19,13 L19,15 L13,15 L13,22 L11,22 L11,15 L5,15 L5,13 L11,13 L11,8 L13,8 L13,13 Z M12,8 C9,8 5.5,7 5.5,5.5 C5.5,4 7.5,2.5 9,3 C10,3.33333333 11,5 12,8 C13,5 14,3.33333333 15,3 C16.5,2.5 18.5,4 18.5,5.5 C18.5,7 15,8 12,8 Z" id="path-1"></path>
    </defs>
    <g id="Artboard" stroke="none" stroke-width="1" fill="none" fill-rule="evenodd" transform="translate(-740.000000, -413.000000)">
        <g id="gift_24" transform="translate(740.000000, 413.000000)">
            <polygon id="Mask" opacity="0.100000001" points="0 0 24 0 24 24 0 24"></polygon>
            <mask id="mask-2" fill="white">
                <use xlink:href="#path-1"></use>
            </mask>
            <use id="Mask" fill="#FFFFFF" xlink:href="#path-1"></use>
        </g>
    </g>
</svg>