<?xml version="1.0" encoding="UTF-8"?>
<svg width="24px" height="24px" viewBox="0 0 24 24" version="1.1" xmlns="http://www.w3.org/2000/svg" xmlns:xlink="http://www.w3.org/1999/xlink">
    <!-- Generator: Sketch 48.1 (47250) - http://www.bohemiancoding.com/sketch -->
    <title>globe_24</title>
    <desc>Created with Sketch.</desc>
    <defs>
        <path d="M14.3139017,9.5 L9.76986204,9.5 C9.59398792,10.4564417 9.5,11.4612378 9.5,12.5 C9.5,13.1826997 9.54059749,13.8507278 9.61835697,14.5 L14.3139017,14.5 C14.4356838,13.6953397 14.5,12.8592914 14.5,12 C14.5,11.1407086 14.4356838,10.3046603 14.3139017,9.5 Z M15.828868,9.5 C15.941236,10.3101606 16,11.1458159 16,12 C16,12.8541841 15.941236,13.6898394 15.828868,14.5 L20.1264018,14.5 C20.3692775,13.709578 20.5,12.8700549 20.5,12 C20.5,11.1299451 20.3692775,10.290422 20.1264018,9.5 L15.828868,9.5 Z M11.9787868,20.4999741 C12.8743955,19.2484901 13.5784582,17.7173329 14.0123348,16 L9.8701737,16 C10.2381057,17.6910752 10.8647268,19.2171111 11.679348,20.4940636 C11.7787343,20.4977496 11.8785567,20.4997292 11.9787868,20.4999741 Z M13.8941081,20.2881873 C16.323929,19.7352123 18.3578489,18.1411601 19.5018987,16 L15.5537509,16 C15.1931202,17.5715502 14.6255781,19.0202886 13.8941081,20.2881873 Z M13.8941081,3.71181266 C14.6255781,4.97971137 15.1931202,6.42844979 15.5537509,8 L19.5018987,8 C18.3578489,5.85883989 16.323929,4.26478773 13.8941081,3.71181266 Z M14.0123348,8 C13.611081,6.41179201 12.9787439,4.98281555 12.1775251,3.78702389 C11.297434,4.95651582 10.5894785,6.38836004 10.1230965,8 L14.0123348,8 Z M8.24779603,9.5 L3.87359822,9.5 C3.63072245,10.290422 3.5,11.1299451 3.5,12 C3.5,12.8700549 3.63072245,13.709578 3.87359822,14.5 L8.10898255,14.5 C8.0371936,13.8473992 8,13.1795634 8,12.5 C8,11.4689181 8.08562382,10.4648341 8.24779603,9.5 Z M9.79014964,20.2099028 C9.13825906,18.9471579 8.64213019,17.5269419 8.33935209,16 L4.49810129,16 C5.59223541,18.0477398 7.50028235,19.5950716 9.79014964,20.2099028 Z M10.4546882,3.64012814 C7.87125626,4.11462111 5.69648108,5.75715794 4.49810129,8 L8.56901903,8 C8.99233147,6.38315756 9.63732117,4.90768197 10.4546882,3.64012814 Z M12,22 C6.4771525,22 2,17.5228475 2,12 C2,6.4771525 6.4771525,2 12,2 C17.5228475,2 22,6.4771525 22,12 C22,17.5228475 17.5228475,22 12,22 Z" id="path-1"></path>
    </defs>
    <g id="Artboard" stroke="none" stroke-width="1" fill="none" fill-rule="evenodd" transform="translate(-452.000000, -365.000000)">
        <g id="globe_24" transform="translate(452.000000, 365.000000)">
            <polygon id="Mask" points="0 0 24 0 24 24 0 24"></polygon>
            <mask id="mask-2" fill="white">
                <use xlink:href="#path-1"></use>
            </mask>
            <use id="Mask" fill="#FFFFFF" fill-rule="nonzero" xlink:href="#path-1"></use>
        </g>
    </g>
</svg>