<?xml version="1.0" encoding="UTF-8"?>
<svg width="28px" height="28px" viewBox="0 0 28 28" version="1.1" xmlns="http://www.w3.org/2000/svg" xmlns:xlink="http://www.w3.org/1999/xlink">
    <!-- Generator: Sketch 49.1 (51147) - http://www.bohemiancoding.com/sketch -->
    <title>help_outline_24</title>
    <desc>Created with Sketch.</desc>
    <defs>
        <path d="M3,14 C3,7.928 7.928,3 14,3 C20.072,3 25,7.928 25,14 C25,20.072 20.072,25 14,25 C7.928,25 3,20.072 3,14 Z M4.8,14 C4.8,19.0778875 8.92211255,23.2 14,23.2 C19.0778875,23.2 23.2,19.0778875 23.2,14 C23.2,8.92211255 19.0778875,4.8 14,4.8 C8.92211255,4.8 4.8,8.92211255 4.8,14 Z M12.8999939,19.6500016 L12.8999939,19.3500015 C12.8999939,18.825331 13.3253234,18.4000015 13.8499939,18.4000015 L14.1499939,18.4000015 C14.6746645,18.4000015 15.0999939,18.825331 15.0999939,19.3500015 L15.0999939,19.6500016 C15.0999939,20.1746721 14.6746645,20.6000016 14.1499939,20.6000016 L13.8499939,20.6000016 C13.3253234,20.6000016 12.8999939,20.1746721 12.8999939,19.6500016 Z M15.8697627,14.203 C15.3929385,14.6914178 15.0490421,15.1151752 14.9039529,15.8551257 C14.8908728,15.9218338 14.8812849,16.020984 14.8751893,16.1525764 L14.8752297,16.1525783 C14.8532624,16.6268088 14.462384,17 13.987645,17 L13.9787491,17.0000266 C13.4864946,17.0000266 13.0874435,16.6009755 13.0874435,16.108721 C13.0874435,16.1079309 13.0874446,16.1071408 13.0874467,16.1063508 C13.0881106,15.8566721 13.0958847,15.6931002 13.1107689,15.6156349 C13.2485712,14.8984385 13.5981619,14.2548328 14.0880826,13.753 L15.1927243,12.619 C15.508833,12.3009398 15.7183199,11.845 15.7183199,11.35 C15.7183199,10.36 14.9165639,9.55 13.9366398,9.55 C13.3139716,9.55 12.7632413,9.8770496 12.4444383,10.3695145 C12.3813786,10.4669248 12.3020629,10.6221895 12.206491,10.8353088 L12.2064788,10.8353034 C12.0182003,11.2551528 11.5412639,11.4626642 11.1057298,11.3142308 L11.0715905,11.3025959 C10.6270938,11.151108 10.3895632,10.667967 10.5410511,10.2234704 C10.5465897,10.2072189 10.5526193,10.1911389 10.5591316,10.1752525 C10.6225695,10.0204251 10.6835169,9.88358479 10.741948,9.76472117 C11.3538438,8.51997172 12.5059482,7.75 13.9366398,7.75 C15.9053963,7.75 17.5,9.361 17.5,11.35 C17.5,12.142 17.1792976,12.862 16.6715188,13.375 L15.8697627,14.203 Z" id="path-1"></path>
    </defs>
    <g id="Page-1" stroke="none" stroke-width="1" fill="none" fill-rule="evenodd">
        <g id="help_outline_24">
            <polygon id="Bounds" points="0 0 28 0 28 28 0 28"></polygon>
            <mask id="mask-2" fill="white">
                <use xlink:href="#path-1"></use>
            </mask>
            <use id="Mask" fill="#FFFFFF" fill-rule="nonzero" xlink:href="#path-1"></use>
        </g>
    </g>
</svg>