<?xml version="1.0" encoding="UTF-8"?>
<svg width="24px" height="24px" viewBox="0 0 24 24" version="1.1" xmlns="http://www.w3.org/2000/svg" xmlns:xlink="http://www.w3.org/1999/xlink">
    <!-- Generator: Sketch 48.1 (47250) - http://www.bohemiancoding.com/sketch -->
    <title>like_outline_24</title>
    <desc>Created with Sketch.</desc>
    <defs>
        <path d="M16.6184211,3.5 C19.8667274,3.5 22.5,6.13327259 22.5,9.38157895 C22.5,12.6619811 21.1856917,14.3067196 15.6109402,18.6426374 L13.0743961,20.615505 C12.4424527,21.1070165 11.5575473,21.1070165 10.9256039,20.615505 L8.38905981,18.6426374 C2.81430834,14.3067196 1.5,12.6619811 1.5,9.38157895 C1.5,6.13327259 4.13327259,3.5 7.38157895,3.5 C9.12192,3.5 10.6683172,4.31928187 12,5.90439937 C13.3316828,4.31928187 14.87808,3.5 16.6184211,3.5 Z M7.38157895,5 C4.96169971,5 3,6.96169971 3,9.38157895 C3,12.0375948 4.0836664,13.3937057 9.30997073,17.4586091 L11.8465148,19.4314767 C11.9367925,19.5016926 12.0632075,19.5016926 12.1534852,19.4314767 L14.6900293,17.4586091 C19.9163336,13.3937057 21,12.0375948 21,9.38157895 C21,6.96169971 19.0383003,5 16.6184211,5 C15.1433392,5 13.8202517,5.82852838 12.6168655,7.56868114 L12.4112437,7.86601995 C12.2541785,8.09314356 11.9427319,8.14993714 11.7156083,7.99287195 C11.6660225,7.95858135 11.6230469,7.91560576 11.5887563,7.86601995 L11.3831345,7.56868114 C10.1797483,5.82852838 8.85666078,5 7.38157895,5 Z" id="path-1"></path>
    </defs>
    <g id="Artboard" stroke="none" stroke-width="1" fill="none" fill-rule="evenodd" transform="translate(-452.000000, -751.000000)">
        <g id="like_outline_24" transform="translate(452.000000, 751.000000)">
            <rect id="Mask" opacity="0.4" x="0" y="0" width="24" height="24"></rect>
            <mask id="mask-2" fill="white">
                <use xlink:href="#path-1"></use>
            </mask>
            <use id="Mask" fill="#FFFFFF" fill-rule="nonzero" xlink:href="#path-1"></use>
        </g>
    </g>
</svg>