<?xml version="1.0" encoding="UTF-8"?>
<svg width="24px" height="24px" viewBox="0 0 24 24" version="1.1" xmlns="http://www.w3.org/2000/svg" xmlns:xlink="http://www.w3.org/1999/xlink">
    <!-- Generator: Sketch 48.2 (47327) - http://www.bohemiancoding.com/sketch -->
    <title>linked_24</title>
    <desc>Created with Sketch.</desc>
    <defs>
        <path d="M10.59,13.41 C11,13.8 11,14.44 10.59,14.83 C10.2,15.22 9.56,15.22 9.17,14.83 C7.22,12.88 7.22,9.71 9.17,7.76 L12.71,4.22 C14.66,2.27 17.83,2.27 19.78,4.22 C21.73,6.17 21.73,9.34 19.78,11.29 L18.29,12.78 C18.3,11.96 18.17,11.14 17.89,10.36 L18.36,9.88 C19.54,8.71 19.54,6.81 18.36,5.64 C17.19,4.46 15.29,4.46 14.12,5.64 L10.59,9.17 C9.41,10.34 9.41,12.24 10.59,13.41 Z M13.41,9.17 C13.8,8.78 14.44,8.78 14.83,9.17 C16.78,11.12 16.78,14.29 14.83,16.24 L11.29,19.78 C9.34,21.73 6.17,21.73 4.22,19.78 C2.27,17.83 2.27,14.66 4.22,12.71 L5.71,11.22 C5.7,12.04 5.83,12.86 6.11,13.65 L5.64,14.12 C4.46,15.29 4.46,17.19 5.64,18.36 C6.81,19.54 8.71,19.54 9.88,18.36 L13.41,14.83 C14.59,13.66 14.59,11.76 13.41,10.59 C13,10.2 13,9.56 13.41,9.17 Z" id="path-1"></path>
    </defs>
    <g id="Icons-24/linked_24" stroke="none" stroke-width="1" fill="none" fill-rule="evenodd">
        <g id="linked_24">
            <polygon id="Bounds" opacity="0.100000001" points="0 0 24 0 24 24 0 24"></polygon>
            <mask id="mask-2" fill="white">
                <use xlink:href="#path-1"></use>
            </mask>
            <use id="Mask" fill="#A9AEB3" fill-rule="nonzero" xlink:href="#path-1"></use>
        </g>
    </g>
</svg>