<?xml version="1.0" encoding="UTF-8"?>
<svg width="24px" height="24px" viewBox="0 0 24 24" version="1.1" xmlns="http://www.w3.org/2000/svg" xmlns:xlink="http://www.w3.org/1999/xlink">
    <!-- Generator: Sketch 48.1 (47250) - http://www.bohemiancoding.com/sketch -->
    <title>link_24</title>
    <desc>Created with Sketch.</desc>
    <defs>
        <path d="M16.5438596,9.19289385 L7.09644692,18.6403066 C6.61685569,19.1198978 5.83928466,19.1198978 5.35969343,18.6403066 C4.88010219,18.1607153 4.88010219,17.3831443 5.35969343,16.9035531 L14.8071062,7.45614035 L8.92982456,7.45614035 C8.25158013,7.45614035 7.70175439,6.90631461 7.70175439,6.22807018 C7.70175439,5.54982575 8.25158013,5 8.92982456,5 L17.7719298,5 C18.4501743,5 19,5.54982575 19,6.22807018 L19,15.0701754 C19,15.7484199 18.4501743,16.2982456 17.7719298,16.2982456 C17.0936854,16.2982456 16.5438596,15.7484199 16.5438596,15.0701754 L16.5438596,9.19289385 Z" id="path-1"></path>
    </defs>
    <g id="Artboard" stroke="none" stroke-width="1" fill="none" fill-rule="evenodd" transform="translate(-452.000000, -509.000000)">
        <g id="link_24" transform="translate(452.000000, 509.000000)">
            <rect id="Mask" opacity="0.100000001" x="0" y="0" width="24" height="24"></rect>
            <mask id="mask-2" fill="white">
                <use xlink:href="#path-1"></use>
            </mask>
            <use id="Mask" fill="#FFFFFF" fill-rule="nonzero" xlink:href="#path-1"></use>
        </g>
    </g>
</svg>