<?xml version="1.0" encoding="UTF-8"?>
<svg width="24px" height="24px" viewBox="0 0 24 24" version="1.1" xmlns="http://www.w3.org/2000/svg" xmlns:xlink="http://www.w3.org/1999/xlink">
    <!-- Generator: Sketch 48.1 (47250) - http://www.bohemiancoding.com/sketch -->
    <title>list_add_24</title>
    <desc>Created with Sketch.</desc>
    <defs>
        <path d="M14,11 C14,10.4477153 13.544239,10 12.9975267,10 L3.00247329,10 C2.44882258,10 2,10.4438648 2,11 L2,11 C2,11.5522847 2.45576096,12 3.00247329,12 L12.9975267,12 C13.5511774,12 14,11.5561352 14,11 L14,11 Z M14,7 C14,6.44771525 13.544239,6 12.9975267,6 L3.00247329,6 C2.44882258,6 2,6.44386482 2,7 L2,7 C2,7.55228475 2.45576096,8 3.00247329,8 L12.9975267,8 C13.5511774,8 14,7.55613518 14,7 L14,7 Z M18,14 L18,11.0093689 C18,10.4519098 17.5561352,10 17,10 L17,10 C16.4477153,10 16,10.4433532 16,11.0093689 L16,14 L13.0093689,14 C12.4519098,14 12,14.4438648 12,15 L12,15 C12,15.5522847 12.4433532,16 13.0093689,16 L16,16 L16,18.9906311 C16,19.5480902 16.4438648,20 17,20 L17,20 C17.5522847,20 18,19.5566468 18,18.9906311 L18,16 L20.9906311,16 C21.5480902,16 22,15.5561352 22,15 L22,15 C22,14.4477153 21.5566468,14 20.9906311,14 L18,14 Z M2,15 C2,15.5522847 2.45303631,16 2.99703014,16 L9.00296986,16 C9.5536144,16 10,15.5561352 10,15 L10,15 C10,14.4477153 9.54696369,14 9.00296986,14 L2.99703014,14 C2.4463856,14 2,14.4438648 2,15 L2,15 Z" id="path-1"></path>
    </defs>
    <g id="Artboard" stroke="none" stroke-width="1" fill="none" fill-rule="evenodd" transform="translate(-788.000000, -607.000000)">
        <g id="list_add_24" transform="translate(788.000000, 607.000000)">
            <polygon id="Mask" points="0 0 24 0 24 24 0 24"></polygon>
            <mask id="mask-2" fill="white">
                <use xlink:href="#path-1"></use>
            </mask>
            <use id="Mask" fill="#FFFFFF" xlink:href="#path-1"></use>
        </g>
    </g>
</svg>