<?xml version="1.0" encoding="UTF-8"?>

<svg width="24px" height="24px" viewBox="0 0 24 24" version="1.1" xmlns="http://www.w3.org/2000/svg" xmlns:xlink="http://www.w3.org/1999/xlink">
    <!-- Generator: Sketch 48.1 (47250) - http://www.bohemiancoding.com/sketch -->
    <title>list_24</title>
    <desc>Created with Sketch.</desc>
    <defs>
        <path d="M4,10.5 C3.17,10.5 2.5,11.17 2.5,12 C2.5,12.83 3.17,13.5 4,13.5 C4.83,13.5 5.5,12.83 5.5,12 C5.5,11.17 4.83,10.5 4,10.5 L4,10.5 Z M4,4.5 C3.17,4.5 2.5,5.17 2.5,6 C2.5,6.83 3.17,7.5 4,7.5 C4.83,7.5 5.5,6.83 5.5,6 C5.5,5.17 4.83,4.5 4,4.5 L4,4.5 Z M4,16.5 C3.16541353,16.5 2.5,17.1766917 2.5,18 C2.5,18.8233083 3.17669173,19.5 4,19.5 C4.82330827,19.5 5.5,18.8233083 5.5,18 C5.5,17.1766917 4.83458647,16.5 4,16.5 L4,16.5 Z M21,18 L21,18 C21,17.4477153 20.5522847,17 20,17 L8,17 C7.44771525,17 7,17.4477153 7,18 L7,18 C7,18.5522847 7.44771525,19 8,19 L20,19 C20.5522847,19 21,18.5522847 21,18 Z M21,12 L21,12 C21,11.4477153 20.5522847,11 20,11 L8,11 C7.44771525,11 7,11.4477153 7,12 L7,12 C7,12.5522847 7.44771525,13 8,13 L20,13 C20.5522847,13 21,12.5522847 21,12 Z M8,7 L20,7 C20.5522847,7 21,6.55228475 21,6 L21,6 C21,5.44771525 20.5522847,5 20,5 L8,5 C7.44771525,5 7,5.44771525 7,6 L7,6 C7,6.55228475 7.44771525,7 8,7 Z" id="path-1"></path>
    </defs>
    <g id="Artboard" stroke="none" stroke-width="1" fill="none" fill-rule="evenodd" transform="translate(-596.000000, -317.000000)">
        <g id="list_24" transform="translate(596.000000, 317.000000)">
            <polygon id="Mask" opacity="0.4" points="0 0 24 0 24 24 0 24"></polygon>
            <mask id="mask-2" fill="white">
                <use xlink:href="#path-1"></use>
            </mask>
            <use id="Mask" fill="#FFFFFF" xlink:href="#path-1"></use>
        </g>
    </g>
</svg>
