<?xml version="1.0" encoding="UTF-8"?>
<svg width="24px" height="24px" viewBox="0 0 24 24" version="1.1" xmlns="http://www.w3.org/2000/svg" xmlns:xlink="http://www.w3.org/1999/xlink">
    <!-- Generator: Sketch 48.2 (47327) - http://www.bohemiancoding.com/sketch -->
    <title>locate_24</title>
    <desc>Created with Sketch.</desc>
    <defs>
        <path d="M16.0535412,16.423664 C15.6463542,16.7967822 15.0137919,16.7691639 14.6406737,16.3619769 C14.2675555,15.9547899 14.2951738,15.3222275 14.7023608,14.9491093 C16.3311089,13.4566367 16.441582,10.9263873 14.9491093,9.29763917 C13.4566367,7.66889105 10.9263873,7.55841798 9.29763917,9.05089065 C7.66889105,10.5433633 7.55841798,13.0736127 9.05089065,14.7023608 C9.13068188,14.7894377 9.21372169,14.8725237 9.29983323,14.9515273 C9.706792,15.3248944 9.73402342,15.9574735 9.3606563,16.3644323 C8.98728918,16.7713911 8.35471006,16.7986225 7.94775129,16.4252554 C7.8190781,16.3072033 7.6951746,16.1832308 7.57633598,16.0535412 C5.33762697,13.6104191 5.50333658,9.81504499 7.94645875,7.57633598 C10.3895809,5.33762697 14.184955,5.50333658 16.423664,7.94645875 C18.662373,10.3895809 18.4966634,14.184955 16.0535412,16.423664 Z M18.0737581,19.9441464 C17.635015,20.2795908 17.007412,20.1958507 16.6719676,19.7571076 C16.3365232,19.3183645 16.4202634,18.6907616 16.8590065,18.3553172 C20.3689512,15.671762 21.0388723,10.6509383 18.3553172,7.14099354 C15.671762,3.63104879 10.6509383,2.96112767 7.14099354,5.64468284 C3.63104879,8.32823801 2.96112767,13.3490617 5.64468284,16.8590065 C6.08475367,17.4345953 6.59281214,17.9409362 7.15748363,18.3707377 C7.59694759,18.7052372 7.68203816,19.3326585 7.34753872,19.7721224 C7.01303929,20.2115864 6.38561799,20.296677 5.94615403,19.9621775 C5.23972685,19.4244782 4.60463125,18.7915296 4.05585355,18.0737581 C0.701409591,13.6863271 1.53881099,7.41029751 5.92624192,4.05585355 C10.3136729,0.701409591 16.5897025,1.53881099 19.9441464,5.92624192 C23.2985904,10.3136729 22.461189,16.5897025 18.0737581,19.9441464 Z M12,14 C10.8954305,14 10,13.1045695 10,12 C10,10.8954305 10.8954305,10 12,10 C13.1045695,10 14,10.8954305 14,12 C14,13.1045695 13.1045695,14 12,14 Z" id="path-1"></path>
    </defs>
    <g id="Icons-24/locate_24" stroke="none" stroke-width="1" fill="none" fill-rule="evenodd">
        <g id="locate_24">
            <polygon id="Bounds" opacity="0.100000001" points="0 0 24 0 24 24 0 24"></polygon>
            <mask id="mask-2" fill="white">
                <use xlink:href="#path-1"></use>
            </mask>
            <use id="Mask" fill="#AAAEB3" fill-rule="nonzero" xlink:href="#path-1"></use>
        </g>
    </g>
</svg>