<?xml version="1.0" encoding="UTF-8"?>
<svg width="24px" height="24px" viewBox="0 0 24 24" version="1.1" xmlns="http://www.w3.org/2000/svg" xmlns:xlink="http://www.w3.org/1999/xlink">
    <!-- Generator: Sketch 48.2 (47327) - http://www.bohemiancoding.com/sketch -->
    <title>logo_twitter_24</title>
    <desc>Created with Sketch.</desc>
    <defs>
        <path d="M8.2899,20 C5.97267778,20 3.81601111,19.3314286 1.9999,18.1851429 C2.32101111,18.2228571 2.64767778,18.2417143 2.97878889,18.2417143 C4.90101111,18.2417143 6.67045556,17.596 8.0749,16.5125714 C6.27934444,16.48 4.76378889,15.312 4.24156667,13.7074286 C4.49212222,13.7548571 4.74934444,13.78 5.01378889,13.78 C5.38767778,13.78 5.75045556,13.7308571 6.0949,13.6382857 C4.21767778,13.2674286 2.80323333,11.6348571 2.80323333,9.67771429 C2.80323333,9.66057143 2.80323333,9.64342857 2.80378889,9.62685714 C3.35712222,9.92914286 3.98934444,10.1108571 4.66212222,10.132 C3.56101111,9.408 2.83656667,8.17142857 2.83656667,6.77028571 C2.83656667,6.02971429 3.03878889,5.336 3.39212222,4.73942857 C5.41601111,7.18285714 8.43934444,8.79142857 11.8499,8.95942857 C11.7799,8.664 11.7432333,8.35542857 11.7432333,8.03885714 C11.7432333,5.80857143 13.5804556,4 15.8465667,4 C17.0271222,4 18.0932333,4.49085714 18.8415667,5.27542857 C19.7765667,5.09428571 20.6549,4.75828571 21.4476778,4.29542857 C21.1410111,5.23828571 20.4904556,6.03028571 19.6432333,6.53028571 C20.4732333,6.43257143 21.2643444,6.21542857 21.9999,5.89428571 C21.4499,6.704 20.7543444,7.41542857 19.9526778,7.98514286 C19.9604556,8.15828571 19.9643444,8.33257143 19.9643444,8.50742857 C19.9643444,13.8451429 15.8371222,20 8.2899,20" id="path-1"></path>
    </defs>
    <g id="Page-1" stroke="none" stroke-width="1" fill="none" fill-rule="evenodd">
        <g id="logo_twitter_24">
            <rect id="Rectangle-530" opacity="0.4" x="0" y="0" width="24" height="24"></rect>
            <mask id="mask-2" fill="white">
                <use xlink:href="#path-1"></use>
            </mask>
            <use id="Mask" fill="#FFFFFF" xlink:href="#path-1"></use>
        </g>
    </g>
</svg>