<?xml version="1.0" encoding="UTF-8"?>
<svg width="24px" height="24px" viewBox="0 0 24 24" version="1.1" xmlns="http://www.w3.org/2000/svg" xmlns:xlink="http://www.w3.org/1999/xlink">
    <!-- Generator: Sketch 48.2 (47327) - http://www.bohemiancoding.com/sketch -->
    <title>logo_vk_24</title>
    <desc>Created with Sketch.</desc>
    <defs>
        <path d="M21.4614929,6.72617589 C21.5529856,6.26081363 21.3514793,6 20.874939,6 L18.4744574,6 C17.9247599,6 17.7230684,6.24199591 17.5582332,6.59576908 C17.5582332,6.59576908 16.2859612,9.54276432 14.7066922,11.3133238 C14.1997778,11.8857589 14.1108033,12.057941 13.830954,12.057941 C13.6051854,12.057941 13.5010984,11.866753 13.5010984,11.3503947 L13.5010984,6.82623797 C13.5010984,6.1932098 13.4286986,6 12.9147298,6 L9.09371948,6 C8.79894066,6 8.60205034,6.16315044 8.60205034,6.39950103 C8.60205034,6.99564646 9.49993896,7.13019317 9.49993896,8.74550643 L9.49993896,12.078125 C9.49993896,12.7484123 9.46326777,13.0090377 9.15174783,13.0090377 C8.32720159,13.0090377 6.18582541,10.1404152 5.08643042,6.86349706 C4.86640326,6.1932098 4.62929378,6 4.00423526,6 L1.60989631,6 C1.26170518,6 1,6.24891026 1,6.60268343 C1,7.25434114 1.75120385,10.2706338 4.70156809,14.3107987 C6.68051611,17.0290187 9.45133921,18.5 11.796814,18.5 C13.2262497,18.5 13.501098,18.2478618 13.501098,17.633275 L13.501098,15.5480832 C13.501098,15.0268323 13.7026044,14.8032777 13.9957887,14.8032777 C14.3256442,14.8032777 14.812446,14.9212456 16.1727991,16.2844014 C17.7852204,17.8483423 17.895234,18.5 18.7749722,18.5 L21.4684529,18.5 C21.7434869,18.5 22,18.3695932 22,17.9042309 C22,17.2896441 21.2119397,16.1912537 20.0025312,14.8879383 C19.5078405,14.217651 18.7014446,13.4916633 18.4449315,13.1565197 C18.0784047,12.7654874 18.1884183,12.5419329 18.4449315,12.1324592 C18.4449315,12.1324592 21.1864589,8.02949132 21.4614929,6.72617589 Z" id="path-1"></path>
    </defs>
    <g id="Page-1" stroke="none" stroke-width="1" fill="none" fill-rule="evenodd">
        <g id="logo_vk_24">
            <rect id="Bounds" opacity="0.4" x="0" y="0" width="24" height="24"></rect>
            <mask id="mask-2" fill="white">
                <use xlink:href="#path-1"></use>
            </mask>
            <use id="2x" fill="#FFFFFF" xlink:href="#path-1"></use>
        </g>
    </g>
</svg>