<?xml version="1.0" encoding="UTF-8"?>
<svg width="24px" height="24px" viewBox="0 0 24 24" version="1.1" xmlns="http://www.w3.org/2000/svg" xmlns:xlink="http://www.w3.org/1999/xlink">
    <!-- Generator: Sketch 48.2 (47327) - http://www.bohemiancoding.com/sketch -->
    <title>logo_google_24</title>
    <desc>Created with Sketch.</desc>
    <defs>
        <path d="M12.1788791,2.00838571 C14.6913767,1.89369302 17.0531869,2.9677884 18.9774836,4.47649082 C18.1561501,5.39335171 17.3057183,6.27651949 16.39709,7.1025111 C14.083777,5.53186782 10.7939397,5.08296673 8.4806267,6.89728945 C5.17139054,9.14587887 5.02070303,14.4550956 8.20384666,16.8755539 C11.2993491,19.6353256 16.9665426,18.3080215 17.9642969,14.5 C16.2749086,14.4714119 13.916541,14.5619409 11.9776951,14.5 C11.9728454,13.3636234 11.9728454,11.8860362 11.9776951,10.75 C15.2190353,10.7404706 18.7092003,10.7258363 21.9553902,10.75 C22.1497251,13.4236671 21.7425127,16.0975494 20.0707475,18.3080214 C17.538851,21.8076801 12.4560056,22.829364 8.49032613,21.3301909 C4.51044396,19.8405472 1.69172161,15.7105892 2.02704461,11.4996316 C2.11468584,6.34798972 6.93530036,1.83651684 12.1788791,2.00838571 Z" id="path-1"></path>
    </defs>
    <g id="Page-1" stroke="none" stroke-width="1" fill="none" fill-rule="evenodd">
        <g id="logo_google_24">
            <rect id="Rectangle-537" opacity="0.4" x="0" y="0" width="24" height="24"></rect>
            <mask id="mask-2" fill="white">
                <use xlink:href="#path-1"></use>
            </mask>
            <use id="Mask" fill="#FFFFFF" xlink:href="#path-1"></use>
        </g>
    </g>
</svg>