<?xml version="1.0" encoding="UTF-8"?>
<svg width="24px" height="24px" viewBox="0 0 24 24" version="1.1" xmlns="http://www.w3.org/2000/svg" xmlns:xlink="http://www.w3.org/1999/xlink">
    <!-- Generator: Sketch 48.2 (47327) - http://www.bohemiancoding.com/sketch -->
    <title>logo_skype_24</title>
    <desc>Created with Sketch.</desc>
    <defs>
        <path d="M12.0433,17.7512 C8.6878,17.7512 7.1873,16.0977 7.1873,14.8582 C7.1873,14.2227 7.6553,13.7772 8.3003,13.7772 C9.7363,13.7772 9.3643,15.8442 12.0433,15.8442 C13.4143,15.8442 14.1718,15.0977 14.1718,14.3337 C14.1718,13.8742 13.9458,13.3652 13.0428,13.1417 L10.0583,12.3952 C7.6553,11.7912 7.2188,10.4887 7.2188,9.2642 C7.2188,6.7222 9.6068,5.7682 11.8488,5.7682 C13.9138,5.7682 16.3488,6.9122 16.3488,8.4372 C16.3488,9.0907 15.7843,9.4707 15.1393,9.4707 C13.9138,9.4707 14.1398,7.7702 11.6713,7.7702 C10.4468,7.7702 9.7678,8.3262 9.7678,9.1222 C9.7678,9.9162 10.7358,10.1697 11.5753,10.3617 L13.7843,10.8532 C16.2038,11.3932 16.8173,12.8092 16.8173,14.1432 C16.8173,16.2087 15.2358,17.7512 12.0433,17.7512 M21.2923,13.6692 C21.2858,13.7047 21.2813,13.7402 21.2748,13.7757 L21.2408,13.5737 C21.2593,13.6052 21.2748,13.6377 21.2923,13.6692 C21.3953,13.1062 21.4493,12.5297 21.4493,11.9537 C21.4493,10.6757 21.1998,9.4357 20.7068,8.2687 C20.2313,7.1412 19.5508,6.1287 18.6828,5.2597 C17.8158,4.3902 16.8053,3.7077 15.6813,3.2307 C14.5173,2.7372 13.2803,2.4872 12.0058,2.4872 C11.4048,2.4872 10.8028,2.5437 10.2173,2.6562 C10.2158,2.6562 10.2143,2.6567 10.2128,2.6572 C10.2458,2.6742 10.2788,2.6897 10.3113,2.7082 L10.1128,2.6772 C10.1458,2.6707 10.1793,2.6637 10.2128,2.6572 C9.4093,2.2287 8.5058,2.0002 7.5908,2.0002 C6.0973,2.0002 4.6933,2.5827 3.6373,3.6417 C2.5818,4.7002 1.9998,6.1077 1.9998,7.6047 C1.9998,8.5577 2.2443,9.4942 2.7033,10.3217 C2.7093,10.2872 2.7133,10.2527 2.7203,10.2187 L2.7543,10.4172 C2.7363,10.3857 2.7208,10.3532 2.7033,10.3217 C2.6103,10.8582 2.5613,11.4062 2.5613,11.9537 C2.5613,13.2317 2.8108,14.4712 3.3038,15.6387 C3.7788,16.7662 4.4598,17.7782 5.3268,18.6477 C6.1948,19.5167 7.2043,20.2002 8.3293,20.6757 C9.4933,21.1707 10.7308,21.4207 12.0058,21.4207 C12.5603,21.4207 13.1168,21.3702 13.6593,21.2737 C13.6278,21.2557 13.5953,21.2397 13.5633,21.2207 L13.7648,21.2562 C13.7298,21.2632 13.6948,21.2672 13.6593,21.2737 C14.4958,21.7477 15.4428,22.0002 16.4098,22.0002 C17.9033,22.0002 19.3068,21.4177 20.3623,20.3587 C21.4188,19.3007 21.9998,17.8932 21.9998,16.3962 C21.9998,15.4402 21.7543,14.5002 21.2923,13.6692" id="path-1"></path>
    </defs>
    <g id="Page-1" stroke="none" stroke-width="1" fill="none" fill-rule="evenodd">
        <g id="logo_skype_24">
            <rect id="Rectangle-537" opacity="0.4" x="0" y="0" width="24" height="24"></rect>
            <mask id="mask-2" fill="white">
                <use xlink:href="#path-1"></use>
            </mask>
            <use id="Mask" fill="#FFFFFF" xlink:href="#path-1"></use>
        </g>
    </g>
</svg>