<?xml version="1.0" encoding="UTF-8"?>
<svg width="24px" height="24px" viewBox="0 0 24 24" version="1.1" xmlns="http://www.w3.org/2000/svg" xmlns:xlink="http://www.w3.org/1999/xlink">
    <!-- Generator: Sketch 48.2 (47327) - http://www.bohemiancoding.com/sketch -->
    <title>logo_livejournal_24</title>
    <desc>Created with Sketch.</desc>
    <defs>
        <path d="M6.80125,4.44805 C7.64625,3.81955 9.24675,3.32805 9.96775,3.82205 C9.14575,3.91655 8.17425,4.31655 7.26925,4.99055 C6.30925,5.70555 5.62625,6.57605 5.32475,7.37305 C4.91175,6.50905 5.90025,5.11955 6.80125,4.44805 L6.80125,4.44805 Z M9.09975,8.12305 L13.60375,14.13155 C13.60375,14.13155 14.29125,15.88655 12.96625,17.59355 L7.50825,10.31355 C7.74325,9.59705 8.29925,8.80955 9.09975,8.12305 L9.09975,8.12305 Z M17.44875,13.74505 C16.61325,14.46805 14.41675,14.35955 13.96475,13.86405 L9.44875,7.84105 L9.49125,7.80605 C10.37825,7.14705 11.32675,6.74955 12.13475,6.64505 L17.44875,13.74505 Z M5.93125,8.21155 C6.20725,7.38505 6.90775,6.46255 7.91275,5.71305 C8.80425,5.05055 9.75625,4.65505 10.56825,4.55055 L11.58425,5.90955 C10.75475,5.99655 9.76825,6.39855 8.84925,7.08255 C7.87825,7.80605 7.18875,8.69055 6.89375,9.49505 L5.93125,8.21155 Z M18.51725,18.95005 C18.30825,18.99205 18.09625,19.08555 17.90275,19.22805 C17.70975,19.37155 17.56275,19.54855 17.46325,19.73455 L13.38825,17.89505 C13.69375,17.42255 14.56225,16.01705 14.28625,14.59705 C15.63975,15.13105 17.15525,14.57855 17.74375,14.14005 L17.81925,14.24155 L18.51725,18.95005 Z M20.00225,22.00005 L18.94625,13.74255 L10.93275,3.07405 C10.12775,2.00005 7.99225,2.23405 6.16275,3.59705 C4.33275,4.95905 3.50225,6.93255 4.30725,8.00705 L12.33125,18.71005 L17.74825,21.03155 C17.80275,21.06205 17.85925,21.08755 17.91925,21.10555 L20.00225,22.00005 Z" id="path-1"></path>
    </defs>
    <g id="Page-1" stroke="none" stroke-width="1" fill="none" fill-rule="evenodd">
        <g id="logo_livejournal_24">
            <rect id="Rectangle-537" opacity="0.4" x="0" y="0" width="24" height="24"></rect>
            <mask id="mask-2" fill="white">
                <use xlink:href="#path-1"></use>
            </mask>
            <use id="Mask" fill="#FFFFFF" xlink:href="#path-1"></use>
        </g>
    </g>
</svg>