<?xml version="1.0" encoding="UTF-8"?>
<svg width="24px" height="24px" viewBox="0 0 24 24" version="1.1" xmlns="http://www.w3.org/2000/svg" xmlns:xlink="http://www.w3.org/1999/xlink">
    <!-- Generator: Sketch 48.1 (47250) - http://www.bohemiancoding.com/sketch -->
    <title>money_transfer_24</title>
    <desc>Created with Sketch.</desc>
    <defs>
        <path d="M16,18 L16,15.160704 C16,14.8845616 16.2238576,14.660704 16.5,14.660704 C16.6078441,14.660704 16.7127978,14.6955723 16.7992019,14.7601066 L21.7266072,18.4403333 C21.947851,18.6055779 21.9932473,18.9188887 21.8280027,19.1401325 C21.7992514,19.1786272 21.7651019,19.2127767 21.7266072,19.241528 L16.7992019,22.9217546 C16.5779581,23.0869993 16.2646473,23.041603 16.0994027,22.8203592 C16.0348684,22.7339551 16,22.6290014 16,22.5211573 L16,20 L5,20 C3.34314575,20 2,18.6568542 2,17 L2,6.99983629 C2,5.34298204 3.34314575,3.99983629 5,3.99983629 L19,3.99983629 C20.6568542,3.99983629 22,5.34298204 22,6.99983629 L22,16.1482553 L20,14.6544765 L20,12 L4,12 L4,17 C4,17.5522847 4.44771525,18 5,18 L16,18 Z M20,8 L20,6.99994543 C20,6.44766068 19.5522847,5.99994543 19,5.99994543 L5,5.99994543 C4.44771525,5.99994543 4,6.44766068 4,6.99994543 L4,8 L20,8 Z" id="path-1"></path>
    </defs>
    <g id="Artboard" stroke="none" stroke-width="1" fill="none" fill-rule="evenodd" transform="translate(-548.000000, -221.000000)">
        <g id="money_transfer_24" transform="translate(548.000000, 221.000000)">
            <rect id="Mask" opacity="0.400000006" x="0" y="0" width="24" height="24"></rect>
            <mask id="mask-2" fill="white">
                <use xlink:href="#path-1"></use>
            </mask>
            <use id="Mask" fill="#FFFFFF" xlink:href="#path-1"></use>
        </g>
    </g>
</svg>