<?xml version="1.0" encoding="UTF-8"?>
<svg width="24px" height="24px" viewBox="0 0 24 24" version="1.1" xmlns="http://www.w3.org/2000/svg" xmlns:xlink="http://www.w3.org/1999/xlink">
    <!-- Generator: Sketch 49.3 (51167) - http://www.bohemiancoding.com/sketch -->
    <title>money_circle_24</title>
    <desc>Created with Sketch.</desc>
    <defs>
        <path d="M12,22 C6.4771525,22 2,17.5228475 2,12 C2,6.4771525 6.4771525,2 12,2 C17.5228475,2 22,6.4771525 22,12 C22,17.5228475 17.5228475,22 12,22 Z M13.7696892,15.9958786 C13.9906031,15.9958786 14.1696892,15.8167925 14.1696892,15.5958786 L14.1696892,15.1458786 C14.1696892,14.9249647 13.9906031,14.7458786 13.7696892,14.7458786 L10.9978142,14.7458786 L10.9978142,13.4969745 L13.0759392,13.4969745 C15.2634392,13.4969745 16.7087517,12.2385559 16.7087517,10.2073059 C16.7087517,8.16824343 15.2946892,6.45009954 13.1306267,6.45009954 L9.64781418,6.45009954 C9.42690028,6.45009954 9.24781418,6.62918564 9.24781418,6.85009954 L9.24781418,12.0125995 L8.14000168,12.0125995 C7.91908778,12.0125995 7.74000168,12.1916856 7.74000168,12.4125995 L7.74000168,13.0813495 C7.74000168,13.3022634 7.91908778,13.4813495 8.14000168,13.4813495 L9.24781418,13.4813495 L9.24781418,14.7458786 L8.14000168,14.7458786 C7.91908778,14.7458786 7.74000168,14.9249647 7.74000168,15.1458786 L7.74000168,15.5958786 C7.74000168,15.8167925 7.91908778,15.9958786 8.14000168,15.9958786 L9.24781418,15.9958786 L9.24781418,17.35 C9.24781418,17.5709139 9.42690028,17.75 9.64781418,17.75 L10.5978142,17.75 C10.8187281,17.75 10.9978142,17.5709139 10.9978142,17.35 L10.9978142,15.9958786 L13.7696892,15.9958786 Z M10.9978142,7.99697454 L12.6384392,7.99697454 C14.1618767,7.99697454 14.9196892,8.77041204 14.9196892,9.99697454 C14.9196892,11.223537 14.1618767,11.9969745 12.6384392,11.9969745 L10.9978142,11.9969745 L10.9978142,7.99697454 Z" id="Mask" fill="#FFFFFF"></path>
    </defs>
    <g id="Page-1" stroke="none" stroke-width="1" fill="none" fill-rule="evenodd">
        <g id="money_circle_24">
            <polygon id="Shape" opacity="0.173120471" points="0 0 24 0 24 24 0 24"></polygon>
            <path d="M12,22 C6.4771525,22 2,17.5228475 2,12 C2,6.4771525 6.4771525,2 12,2 C17.5228475,2 22,6.4771525 22,12 C22,17.5228475 17.5228475,22 12,22 Z M13.7696892,15.9958786 C13.9906031,15.9958786 14.1696892,15.8167925 14.1696892,15.5958786 L14.1696892,15.1458786 C14.1696892,14.9249647 13.9906031,14.7458786 13.7696892,14.7458786 L10.9978142,14.7458786 L10.9978142,13.4969745 L13.0759392,13.4969745 C15.2634392,13.4969745 16.7087517,12.2385559 16.7087517,10.2073059 C16.7087517,8.16824343 15.2946892,6.45009954 13.1306267,6.45009954 L9.64781418,6.45009954 C9.42690028,6.45009954 9.24781418,6.62918564 9.24781418,6.85009954 L9.24781418,12.0125995 L8.14000168,12.0125995 C7.91908778,12.0125995 7.74000168,12.1916856 7.74000168,12.4125995 L7.74000168,13.0813495 C7.74000168,13.3022634 7.91908778,13.4813495 8.14000168,13.4813495 L9.24781418,13.4813495 L9.24781418,14.7458786 L8.14000168,14.7458786 C7.91908778,14.7458786 7.74000168,14.9249647 7.74000168,15.1458786 L7.74000168,15.5958786 C7.74000168,15.8167925 7.91908778,15.9958786 8.14000168,15.9958786 L9.24781418,15.9958786 L9.24781418,17.35 C9.24781418,17.5709139 9.42690028,17.75 9.64781418,17.75 L10.5978142,17.75 C10.8187281,17.75 10.9978142,17.5709139 10.9978142,17.35 L10.9978142,15.9958786 L13.7696892,15.9958786 Z M10.9978142,7.99697454 L12.6384392,7.99697454 C14.1618767,7.99697454 14.9196892,8.77041204 14.9196892,9.99697454 C14.9196892,11.223537 14.1618767,11.9969745 12.6384392,11.9969745 L10.9978142,11.9969745 L10.9978142,7.99697454 Z" id="Mask" fill="#FFFFFF"></path>
        </g>
    </g>
</svg>
