<?xml version="1.0" encoding="UTF-8"?>
<svg width="24px" height="24px" viewBox="0 0 24 24" version="1.1" xmlns="http://www.w3.org/2000/svg" xmlns:xlink="http://www.w3.org/1999/xlink">
    <!-- Generator: Sketch 48.1 (47250) - http://www.bohemiancoding.com/sketch -->
    <title>music_24</title>
    <desc>Created with Sketch.</desc>
    <defs>
        <path d="M19,10.0330156 L19,14.4855012 C19,17.956963 17.7640906,18.7050403 15.7191978,18.9799957 C14.6568486,19.1228388 13,18.5657522 13,16.5476411 C13,15.5618364 13.8210463,14.5825028 14.8458571,14.3810547 C15.7962799,14.1942291 14.5376081,14.4385026 16.6877482,14.029047 C17.0341131,13.963088 17.0048905,13.7164073 17.0048905,13.4491281 C17.0048905,13.2322124 17.003783,11.2499769 17.0030913,10.0330156 L17,10.0330156 L17.0048905,7.45692129 C17.0048905,7.22036495 16.9318183,7.10889704 16.6599628,7.17689001 L9.36450452,8.50635031 C9.05986192,8.58254359 9,8.70905871 9,9 L9,11.5017817 L9,16.4855012 C9,19.956963 7.76409063,20.7050403 5.71919783,20.9799957 C4.65684865,21.1228388 3,20.5657522 3,18.5476411 C3,17.5618364 3.82104626,16.5825028 4.84585712,16.3810547 C5.79627991,16.1942291 4.53760807,16.4385026 6.68774818,16.029047 C7.03411311,15.963088 7.00489048,15.7164073 7.00489048,15.4491281 C7.00489048,15.1337045 7.00254873,11.0855243 7.00254873,11.0855243 L7.00420079,11.0854536 L7,8.54964861 C7,8.54964861 6.99591107,6.97596748 7,6.18913492 C7.00489048,5.24805968 7.51028442,4.90220642 9,4.59580161 L17,3.11819807 C17,3.11819807 19,2.49293028 19,4.11862654 L19,10.0330156 Z" id="path-1"></path>
    </defs>
    <g id="Artboard" stroke="none" stroke-width="1" fill="none" fill-rule="evenodd" transform="translate(-740.000000, -173.000000)">
        <g id="music_24" transform="translate(740.000000, 173.000000)">
            <polygon id="Mask" opacity="0.4" points="0 0 24 0 24 24 0 24"></polygon>
            <mask id="mask-2" fill="white">
                <use xlink:href="#path-1"></use>
            </mask>
            <use id="Mask" fill="#FFFFFF" xlink:href="#path-1"></use>
        </g>
    </g>
</svg>