<?xml version="1.0" encoding="UTF-8"?>
<svg width="24px" height="24px" viewBox="0 0 24 24" version="1.1" xmlns="http://www.w3.org/2000/svg" xmlns:xlink="http://www.w3.org/1999/xlink">
    <!-- Generator: Sketch 48.1 (47250) - http://www.bohemiancoding.com/sketch -->
    <title>params_24</title>
    <desc>Created with Sketch.</desc>
    <defs>
        <path d="M6.17070571,7 C6.58254212,5.83480763 7.69378117,5 9,5 C10.3062188,5 11.4174579,5.83480763 11.8292943,7 L20,7 C20.5522847,7 21,7.44771525 21,8 C21,8.55228475 20.5522847,9 20,9 L11.8292943,9 C11.4174579,10.1651924 10.3062188,11 9,11 C7.69378117,11 6.58254212,10.1651924 6.17070571,9 L4,9 C3.44771525,9 3,8.55228475 3,8 C3,7.44771525 3.44771525,7 4,7 L6.17070571,7 Z M12.1707057,15 C12.5825421,13.8348076 13.6937812,13 15,13 C16.3062188,13 17.4174579,13.8348076 17.8292943,15 L20,15 C20.5522847,15 21,15.4477153 21,16 C21,16.5522847 20.5522847,17 20,17 L17.8292943,17 C17.4174579,18.1651924 16.3062188,19 15,19 C13.6937812,19 12.5825421,18.1651924 12.1707057,17 L4,17 C3.44771525,17 3,16.5522847 3,16 C3,15.4477153 3.44771525,15 4,15 L12.1707057,15 Z M15,17.25 C15.6903559,17.25 16.25,16.6903559 16.25,16 C16.25,15.3096441 15.6903559,14.75 15,14.75 C14.3096441,14.75 13.75,15.3096441 13.75,16 C13.75,16.6903559 14.3096441,17.25 15,17.25 Z M9,9.25 C9.69035594,9.25 10.25,8.69035594 10.25,8 C10.25,7.30964406 9.69035594,6.75 9,6.75 C8.30964406,6.75 7.75,7.30964406 7.75,8 C7.75,8.69035594 8.30964406,9.25 9,9.25 Z" id="path-1"></path>
    </defs>
    <g id="Artboard" stroke="none" stroke-width="1" fill="none" fill-rule="evenodd" transform="translate(-452.000000, -413.000000)">
        <g id="params_24" transform="translate(452.000000, 413.000000)">
            <rect id="Mask" opacity="0.4" x="0" y="0" width="24" height="24"></rect>
            <mask id="mask-2" fill="white">
                <use xlink:href="#path-1"></use>
            </mask>
            <use id="Mask" fill="#FFFFFF" xlink:href="#path-1"></use>
        </g>
    </g>
</svg>