<?xml version="1.0" encoding="UTF-8"?>
<svg width="24px" height="24px" viewBox="0 0 24 24" version="1.1" xmlns="http://www.w3.org/2000/svg" xmlns:xlink="http://www.w3.org/1999/xlink">
    <!-- Generator: Sketch 48.1 (47250) - http://www.bohemiancoding.com/sketch -->
    <title>phone_24</title>
    <desc>Created with Sketch.</desc>
    <defs>
        <path d="M14.1116687,15.2589801 C15.4658471,13.9046924 17.5976626,13.7798641 19.0152407,14.9716769 L20.0395424,15.8345771 C21.2084748,16.8183428 21.3273492,18.5916968 20.3030475,19.7944073 C19.7444269,20.440656 18.9581497,20.8466008 18.1078322,20.9277688 C14.8348217,21.3686305 11.4013307,19.7914352 7.80537783,16.1951921 C4.20942499,12.5989491 2.63136635,9.16419017 3.07219252,5.89190617 C3.09510018,5.63587153 3.14830523,5.38345969 3.23069182,5.13996444 C3.42132006,4.58060406 3.75783325,4.08229177 4.20546251,3.6965137 C5.40906656,2.67312001 7.18128684,2.79101338 8.16497311,3.96103076 L9.02681305,4.98541515 C10.2205109,6.40112627 10.0966833,8.53410461 8.74250493,9.88839229 L8.00746444,10.6225014 C7.81149496,10.8188346 7.7473276,11.1110902 7.84302141,11.371471 C8.11048898,12.1026081 8.79302658,13.016034 9.88865299,14.1117488 C10.98527,15.2084544 11.8986222,15.8900564 12.6287096,16.1585362 C12.8892589,16.2539869 13.181519,16.1894216 13.3776188,15.9930892 L14.1116687,15.2589801 Z" id="path-1"></path>
    </defs>
    <g id="Artboard" stroke="none" stroke-width="1" fill="none" fill-rule="evenodd" transform="translate(-452.000000, -461.000000)">
        <g id="phone_24" transform="translate(452.000000, 461.000000)">
            <polygon id="Mask" opacity="0.100000001" points="0 0 24 0 24 24 0 24"></polygon>
            <mask id="mask-2" fill="white">
                <use xlink:href="#path-1"></use>
            </mask>
            <use id="Mask" fill="#FFFFFF" xlink:href="#path-1"></use>
        </g>
    </g>
</svg>