<?xml version="1.0" encoding="UTF-8"?>
<svg width="24px" height="24px" viewBox="0 0 24 24" version="1.1" xmlns="http://www.w3.org/2000/svg" xmlns:xlink="http://www.w3.org/1999/xlink">
    <!-- Generator: Sketch 49 (51002) - http://www.bohemiancoding.com/sketch -->
    <title>pin_24</title>
    <desc>Created with Sketch.</desc>
    <defs><path d="M10.3822556,15.3840663 L5.63388348,20.1324384 C5.14572811,20.6205938 4.35427189,20.6205938 3.86611652,20.1324384 C3.37796116,19.644283 3.37796116,18.8528268 3.86611652,18.3646714 L8.6144886,13.6162994 L4.72736212,9.72917288 C4.59233593,9.59414669 4.516479,9.41101187 4.516479,9.220056 C4.516479,8.82241098 4.83883398,8.500056 5.236479,8.500056 L11.4982452,8.500056 L14.4982452,5.500056 L14.4982452,3.69000549 C14.4982452,3.50435395 14.571995,3.32630621 14.7032705,3.19503075 C14.9766375,2.92166374 15.419853,2.92166374 15.69322,3.19503075 L20.8032705,8.30508125 C20.934546,8.43635672 21.0082957,8.61440446 21.0082957,8.800056 C21.0082957,9.18665532 20.6948951,9.500056 20.3082957,9.500056 L18.4982452,9.500056 L15.4982452,12.500056 L15.4982452,18.7618222 C15.4982452,18.9527781 15.4223883,19.1359129 15.2873621,19.2709391 C15.0061846,19.5521166 14.5503058,19.5521166 14.2691284,19.2709391 L10.3822556,15.3840663 Z" id="Combined-Shape" fill="#FFFFFF"></path></defs>
    <g id="Page-1" stroke="none" stroke-width="1" fill="none" fill-rule="evenodd">
        <g id="pin_24">
            <rect id="Rectangle-5" x="0" y="0" width="24" height="24"></rect>
            <path d="M10.3822556,15.3840663 L5.63388348,20.1324384 C5.14572811,20.6205938 4.35427189,20.6205938 3.86611652,20.1324384 C3.37796116,19.644283 3.37796116,18.8528268 3.86611652,18.3646714 L8.6144886,13.6162994 L4.72736212,9.72917288 C4.59233593,9.59414669 4.516479,9.41101187 4.516479,9.220056 C4.516479,8.82241098 4.83883398,8.500056 5.236479,8.500056 L11.4982452,8.500056 L14.4982452,5.500056 L14.4982452,3.69000549 C14.4982452,3.50435395 14.571995,3.32630621 14.7032705,3.19503075 C14.9766375,2.92166374 15.419853,2.92166374 15.69322,3.19503075 L20.8032705,8.30508125 C20.934546,8.43635672 21.0082957,8.61440446 21.0082957,8.800056 C21.0082957,9.18665532 20.6948951,9.500056 20.3082957,9.500056 L18.4982452,9.500056 L15.4982452,12.500056 L15.4982452,18.7618222 C15.4982452,18.9527781 15.4223883,19.1359129 15.2873621,19.2709391 C15.0061846,19.5521166 14.5503058,19.5521166 14.2691284,19.2709391 L10.3822556,15.3840663 Z" id="Combined-Shape" fill="#FFFFFF"></path>
        </g>
    </g>
</svg>
