<?xml version="1.0" encoding="UTF-8"?>
<svg width="24px" height="24px" viewBox="0 0 24 24" version="1.1" xmlns="http://www.w3.org/2000/svg" xmlns:xlink="http://www.w3.org/1999/xlink">
    <!-- Generator: Sketch 48.1 (47250) - http://www.bohemiancoding.com/sketch -->
    <title>play_speed_24</title>
    <desc>Created with Sketch.</desc>
    <defs>
        <path d="M11,4.07 L11,2.05 C8.99,2.25 7.16,3.05 5.68,4.26 L7.1,5.69 C8.21,4.83 9.54,4.25 11,4.07 Z M5.69,7.1 L4.26,5.68 C3.05,7.16 2.25,8.99 2.05,11 L4.07,11 C4.25,9.54 4.83,8.21 5.69,7.1 Z M2.05,13 C2.25,15.01 3.05,16.84 4.26,18.32 L5.69,16.89 C4.83,15.79 4.25,14.46 4.07,13 L2.05,13 Z M11,21.95 L11,19.93 C9.54,19.75 8.21,19.17 7.1,18.31 L5.68,19.74 C7.16,20.95 9,21.75 11,21.95 Z M22,12 C22,17.16 18.08,21.42 13.05,21.95 L13.05,19.93 C16.97,19.41 20,16.05 20,12 C20,7.95 16.97,4.59 13.05,4.07 L13.05,2.05 C18.08,2.58 22,6.84 22,12 Z M10.6875925,8.57554212 L15.4341684,11.3122206 C15.813106,11.5307003 15.9431829,12.0150027 15.7247032,12.3939403 C15.6551028,12.5146573 15.5548854,12.6148747 15.4341684,12.6844751 L10.6875925,15.4211536 C10.3086548,15.6396332 9.82435243,15.5095564 9.60587275,15.1306188 C9.53651146,15.0103165 9.5,14.8738918 9.5,14.7350263 L9.5,9.26166937 C9.5,8.82425985 9.85459048,8.46966937 10.292,8.46966937 C10.4308655,8.46966937 10.5672902,8.50618083 10.6875925,8.57554212 Z" id="path-1"></path>
    </defs>
    <g id="Artboard" stroke="none" stroke-width="1" fill="none" fill-rule="evenodd" transform="translate(-692.000000, -655.000000)">
        <g id="play_speed_24" transform="translate(692.000000, 655.000000)">
            <polygon id="Mask" points="0 0 24 0 24 24 0 24"></polygon>
            <mask id="mask-2" fill="white">
                <use xlink:href="#path-1"></use>
            </mask>
            <use id="Mask" fill="#FFFFFF" fill-rule="nonzero" xlink:href="#path-1"></use>
        </g>
    </g>
</svg>