<?xml version="1.0" encoding="UTF-8"?>
<svg width="24px" height="24px" viewBox="0 0 24 24" version="1.1" xmlns="http://www.w3.org/2000/svg" xmlns:xlink="http://www.w3.org/1999/xlink">
    <!-- Generator: Sketch 48.1 (47250) - http://www.bohemiancoding.com/sketch -->
    <title>play_next_24</title>
    <desc>Created with Sketch.</desc>
    <defs>
        <path d="M9,10 L3,10 C2.44771525,10 2,10.4477153 2,11 L2,11 C2,11.5522847 2.44771525,12 3,12 L9,12 C9.55228475,12 10,11.5522847 10,11 L10,11 C10,10.4477153 9.55228475,10 9,10 Z M13,6 L3,6 C2.44771525,6 2,6.44771525 2,7 L2,7 C2,7.55228475 2.44771525,8 3,8 L13,8 C13.5522847,8 14,7.55228475 14,7 L14,7 C14,6.44771525 13.5522847,6 13,6 Z M3,16 C2.44771525,16 2,15.5522847 2,15 C2,14.4477153 2.44771525,14 3,14 L9,14 C9.55228475,14 10,14.4477153 10,15 C10,15.5522847 9.55228475,16 9,16 L3,16 Z M19.6193783,17.0923529 C19.6193783,17.1090663 14.2262854,20.6412853 14.2262854,20.6412853 C12.9882343,21.3750055 13.0000041,20.9134279 13.0000041,19.846776 L13.0000041,12.0298511 C13.0000041,10.9795783 12.9974593,10.6667027 14.2262854,11.3997543 C14.2262854,11.4164677 19.6193783,14.9333104 19.6111077,14.9336446 C21.2706392,15.8110839 21.2706392,16.1811673 19.6193783,17.0923529 Z" id="path-1"></path>
    </defs>
    <g id="Artboard" stroke="none" stroke-width="1" fill="none" fill-rule="evenodd" transform="translate(-740.000000, -607.000000)">
        <g id="play_next_24" transform="translate(740.000000, 607.000000)">
            <polygon id="Mask" points="0 0 24 0 24 24 0 24"></polygon>
            <mask id="mask-2" fill="white">
                <use xlink:href="#path-1"></use>
            </mask>
            <use id="Mask" fill="#FFFFFF" xlink:href="#path-1"></use>
        </g>
    </g>
</svg>