<?xml version="1.0" encoding="UTF-8"?>
<svg width="24px" height="24px" viewBox="0 0 24 24" version="1.1" xmlns="http://www.w3.org/2000/svg" xmlns:xlink="http://www.w3.org/1999/xlink">
    <!-- Generator: Sketch 48.1 (47250) - http://www.bohemiancoding.com/sketch -->
    <title>privacy_24</title>
    <desc>Created with Sketch.</desc>
    <defs>
        <path d="M5.99450056,5.1805 C6.65150056,5.1805 7.00350056,5.7165 7.00350056,6.3735 L7.00350056,11.865 C7.00350056,12.0805 7.25650056,12.26 7.47400056,12.26 C7.69700056,12.26 7.98500056,12.0805 7.98500056,11.865 L7.98500056,3.9895 C7.98500056,3.3285 8.31450056,2.7965 8.97550056,2.7965 C9.63250056,2.7965 9.99600056,3.328 9.99600056,3.9895 L9.99600056,11.0675 C9.99600056,11.2865 10.2855006,11.463 10.5020006,11.463 C10.7235006,11.463 10.9970006,11.2865 10.9970006,11.0675 L10.9970006,3.1915 C10.9970006,2.535 11.3110006,2 11.9725006,2 C12.6330006,2 13.0090006,2.535 13.0090006,3.1915 L13.0090006,11.0675 C13.0090006,11.2865 13.2510006,11.463 13.4725006,11.463 C13.6890006,11.463 13.9935006,11.2865 13.9935006,11.0675 L13.9935006,4.7855 C13.9935006,4.125 14.3115006,3.6085 14.9680006,3.6085 C15.6285006,3.6085 15.9895006,4.1245 15.9895006,4.7855 L15.9895006,15.514 L18.2755006,12.838 C18.6070006,12.3905 19.2800006,12.157 19.9285006,12.581 C20.2660006,12.7785 20.7875006,13.3915 20.1225006,14.2595 C20.1225006,14.2595 17.6785006,17.347 16.3195006,18.9975 C15.0245006,20.6515 12.5095006,21.5 10.8060006,21.5 C5.24750056,21.5 5.00000056,17.712 5.00000056,16.43 L5.00000056,6.3735 C4.99950056,5.7165 5.33350056,5.1805 5.99450056,5.1805" id="path-1"></path>
    </defs>
    <g id="Artboard" stroke="none" stroke-width="1" fill="none" fill-rule="evenodd" transform="translate(-788.000000, -509.000000)">
        <g id="privacy_24" transform="translate(788.000000, 509.000000)">
            <polygon id="Mask" opacity="0.100000001" points="0 0 24 0 24 24 0 24"></polygon>
            <mask id="mask-2" fill="white">
                <use xlink:href="#path-1"></use>
            </mask>
            <use id="Mask" fill="#FFFFFF" xlink:href="#path-1"></use>
        </g>
    </g>
</svg>