<?xml version="1.0" encoding="UTF-8"?>
<svg width="24px" height="24px" viewBox="0 0 24 24" version="1.1" xmlns="http://www.w3.org/2000/svg" xmlns:xlink="http://www.w3.org/1999/xlink">
    <!-- Generator: Sketch 48.2 (47327) - http://www.bohemiancoding.com/sketch -->
    <title>qr_24</title>
    <desc>Created with Sketch.</desc>
    <defs>
        <path d="M19.5,19 L21,19 C21.2761424,19 21.5,19.2238576 21.5,19.5 L21.5,21 C21.5,21.2761424 21.2761424,21.5 21,21.5 L19.5,21.5 C19.2238576,21.5 19,21.2761424 19,21 L19,19.5 C19,19.2238576 19.2238576,19 19.5,19 Z M14,19 L15.5,19 C15.7761424,19 16,19.2238576 16,19.5 L16,21 C16,21.2761424 15.7761424,21.5 15.5,21.5 L14,21.5 C13.7238576,21.5 13.5,21.2761424 13.5,21 L13.5,19.5 C13.5,19.2238576 13.7238576,19 14,19 Z M16.75,16.25 L18.25,16.25 C18.5261424,16.25 18.75,16.4738576 18.75,16.75 L18.75,18.25 C18.75,18.5261424 18.5261424,18.75 18.25,18.75 L16.75,18.75 C16.4738576,18.75 16.25,18.5261424 16.25,18.25 L16.25,16.75 C16.25,16.4738576 16.4738576,16.25 16.75,16.25 Z M19.5,13.5 L21,13.5 C21.2761424,13.5 21.5,13.7238576 21.5,14 L21.5,15.5 C21.5,15.7761424 21.2761424,16 21,16 L19.5,16 C19.2238576,16 19,15.7761424 19,15.5 L19,14 C19,13.7238576 19.2238576,13.5 19.5,13.5 Z M14,13.5 L15.5,13.5 C15.7761424,13.5 16,13.7238576 16,14 L16,15.5 C16,15.7761424 15.7761424,16 15.5,16 L14,16 C13.7238576,16 13.5,15.7761424 13.5,15.5 L13.5,14 C13.5,13.7238576 13.7238576,13.5 14,13.5 Z M4.5,13 L8.5,13 C9.88071187,13 11,14.1192881 11,15.5 L11,19.5 C11,20.8807119 9.88071187,22 8.5,22 L4.5,22 C3.11928813,22 2,20.8807119 2,19.5 L2,15.5 C2,14.1192881 3.11928813,13 4.5,13 Z M4.75,14.75 C4.19771525,14.75 3.75,15.1977153 3.75,15.75 L3.75,19.25 C3.75,19.8022847 4.19771525,20.25 4.75,20.25 L8.25,20.25 C8.80228475,20.25 9.25,19.8022847 9.25,19.25 L9.25,15.75 C9.25,15.1977153 8.80228475,14.75 8.25,14.75 L4.75,14.75 Z M5.75,16.25 L7.25,16.25 C7.52614237,16.25 7.75,16.4738576 7.75,16.75 L7.75,18.25 C7.75,18.5261424 7.52614237,18.75 7.25,18.75 L5.75,18.75 C5.47385763,18.75 5.25,18.5261424 5.25,18.25 L5.25,16.75 C5.25,16.4738576 5.47385763,16.25 5.75,16.25 Z M15.5,2 L19.5,2 C20.8807119,2 22,3.11928813 22,4.5 L22,8.5 C22,9.88071187 20.8807119,11 19.5,11 L15.5,11 C14.1192881,11 13,9.88071187 13,8.5 L13,4.5 C13,3.11928813 14.1192881,2 15.5,2 Z M15.75,3.75 C15.1977153,3.75 14.75,4.19771525 14.75,4.75 L14.75,8.25 C14.75,8.80228475 15.1977153,9.25 15.75,9.25 L19.25,9.25 C19.8022847,9.25 20.25,8.80228475 20.25,8.25 L20.25,4.75 C20.25,4.19771525 19.8022847,3.75 19.25,3.75 L15.75,3.75 Z M16.75,5.25 L18.25,5.25 C18.5261424,5.25 18.75,5.47385763 18.75,5.75 L18.75,7.25 C18.75,7.52614237 18.5261424,7.75 18.25,7.75 L16.75,7.75 C16.4738576,7.75 16.25,7.52614237 16.25,7.25 L16.25,5.75 C16.25,5.47385763 16.4738576,5.25 16.75,5.25 Z M4.5,2 L8.5,2 C9.88071187,2 11,3.11928813 11,4.5 L11,8.5 C11,9.88071187 9.88071187,11 8.5,11 L4.5,11 C3.11928813,11 2,9.88071187 2,8.5 L2,4.5 C2,3.11928813 3.11928813,2 4.5,2 Z M4.75,3.75 C4.19771525,3.75 3.75,4.19771525 3.75,4.75 L3.75,8.25 C3.75,8.80228475 4.19771525,9.25 4.75,9.25 L8.25,9.25 C8.80228475,9.25 9.25,8.80228475 9.25,8.25 L9.25,4.75 C9.25,4.19771525 8.80228475,3.75 8.25,3.75 L4.75,3.75 Z M5.75,5.25 L7.25,5.25 C7.52614237,5.25 7.75,5.47385763 7.75,5.75 L7.75,7.25 C7.75,7.52614237 7.52614237,7.75 7.25,7.75 L5.75,7.75 C5.47385763,7.75 5.25,7.52614237 5.25,7.25 L5.25,5.75 C5.25,5.47385763 5.47385763,5.25 5.75,5.25 Z" id="path-1"></path>
    </defs>
    <g id="Icons-24/qr_24" stroke="none" stroke-width="1" fill="none" fill-rule="evenodd">
        <g id="qr_24">
            <polygon id="Bounds" opacity="0.100000001" points="0 0 24 0 24 24 0 24"></polygon>
            <mask id="mask-2" fill="white">
                <use xlink:href="#path-1"></use>
            </mask>
            <use id="Mask" fill="#A9AEB3" xlink:href="#path-1"></use>
        </g>
    </g>
</svg>