<?xml version="1.0" encoding="UTF-8"?>
<svg width="24px" height="24px" viewBox="0 0 24 24" version="1.1" xmlns="http://www.w3.org/2000/svg" xmlns:xlink="http://www.w3.org/1999/xlink">
    <!-- Generator: Sketch 48.1 (47250) - http://www.bohemiancoding.com/sketch -->
    <title>services_24</title>
    <desc>Created with Sketch.</desc>
    <defs>
        <path d="M14.5,21 L19.5,21 C20.3284271,21 21,20.3284271 21,19.5 L21,14.5 C21,13.6715729 20.3284271,13 19.5,13 L14.5,13 C13.6715729,13 13,13.6715729 13,14.5 L13,19.5 C13,20.3284271 13.6715729,21 14.5,21 Z M11,19.5 L11,14.5 C11,13.6715729 10.3284271,13 9.5,13 L4.5,13 C3.67157288,13 3,13.6715729 3,14.5 L3,19.5 C3,20.3284271 3.67157288,21 4.5,21 L9.5,21 C10.3284271,21 11,20.3284271 11,19.5 Z M4.5,11 L9.5,11 C10.3284271,11 11,10.3284271 11,9.5 L11,4.5 C11,3.67157288 10.3284271,3 9.5,3 L4.5,3 C3.67157288,3 3,3.67157288 3,4.5 L3,9.5 C3,10.3284271 3.67157288,11 4.5,11 Z M12.0606602,8.40066017 L15.5993398,11.9393398 C16.1851263,12.5251263 17.1348737,12.5251263 17.7206602,11.9393398 L21.2602772,8.40159756 C21.8460637,7.81581113 21.8460637,6.86606366 21.2602772,6.28027722 C21.2599646,6.27996462 21.2596519,6.27965215 21.259339,6.27933983 L17.719722,2.74784965 C17.1341508,2.16331307 16.1858492,2.16331307 15.600278,2.74784965 L12.060661,6.27933983 C11.4743569,6.8646081 11.4735171,7.8143552 12.0587854,8.40065934 C12.0590977,8.40097222 12.0594102,8.40128496 12.0597228,8.40159756 Z" id="path-1"></path>
    </defs>
    <g id="Artboard" stroke="none" stroke-width="1" fill="none" fill-rule="evenodd" transform="translate(-548.000000, -365.000000)">
        <g id="services_24" transform="translate(548.000000, 365.000000)">
            <polygon id="Mask" points="0 0 24 0 24 24 0 24"></polygon>
            <mask id="mask-2" fill="white">
                <use xlink:href="#path-1"></use>
            </mask>
            <use id="Mask" fill="#FFFFFF" xlink:href="#path-1"></use>
        </g>
    </g>
</svg>