<?xml version="1.0" encoding="UTF-8"?>
<svg width="24px" height="24px" viewBox="0 0 24 24" version="1.1" xmlns="http://www.w3.org/2000/svg" xmlns:xlink="http://www.w3.org/1999/xlink">
    <!-- Generator: Sketch 49.2 (51160) - http://www.bohemiancoding.com/sketch -->
    <title>share_external_24</title>
    <desc>Created with Sketch.</desc>
    <defs><path d="M13,5.41421356 L13,14.5 C13,15.0522847 12.5522847,15.5 12,15.5 C11.4477153,15.5 11,15.0522847 11,14.5 L11,5.41421356 L8.20710678,8.20710678 C7.81658249,8.59763107 7.18341751,8.59763107 6.79289322,8.20710678 C6.40236893,7.81658249 6.40236893,7.18341751 6.79289322,6.79289322 L11.2928932,2.29289322 C11.6834175,1.90236893 12.3165825,1.90236893 12.7071068,2.29289322 L17.2071068,6.79289322 C17.5976311,7.18341751 17.5976311,7.81658249 17.2071068,8.20710678 C16.8165825,8.59763107 16.1834175,8.59763107 15.7928932,8.20710678 L13,5.41421356 Z M4,14 C4,13.4477153 4.44771525,13 5,13 C5.55228475,13 6,13.4477153 6,14 L6,18 C6,18.5522847 6.44771525,19 7,19 L17,19 C17.5522847,19 18,18.5522847 18,18 L18,14 C18,13.4477153 18.4477153,13 19,13 C19.5522847,13 20,13.4477153 20,14 L20,18 C20,19.6568542 18.6568542,21 17,21 L7,21 C5.34314575,21 4,19.6568542 4,18 L4,14 Z" id="Mask" fill="#FFFFFF" fill-rule="nonzero"></path></defs>
    <g id="Page-1" stroke="none" stroke-width="1" fill="none" fill-rule="evenodd">
        <g id="share_external_24">
            <rect id="Rectangle-9" x="0" y="0" width="24" height="24"></rect>
            <path d="M13,5.41421356 L13,14.5 C13,15.0522847 12.5522847,15.5 12,15.5 C11.4477153,15.5 11,15.0522847 11,14.5 L11,5.41421356 L8.20710678,8.20710678 C7.81658249,8.59763107 7.18341751,8.59763107 6.79289322,8.20710678 C6.40236893,7.81658249 6.40236893,7.18341751 6.79289322,6.79289322 L11.2928932,2.29289322 C11.6834175,1.90236893 12.3165825,1.90236893 12.7071068,2.29289322 L17.2071068,6.79289322 C17.5976311,7.18341751 17.5976311,7.81658249 17.2071068,8.20710678 C16.8165825,8.59763107 16.1834175,8.59763107 15.7928932,8.20710678 L13,5.41421356 Z M4,14 C4,13.4477153 4.44771525,13 5,13 C5.55228475,13 6,13.4477153 6,14 L6,18 C6,18.5522847 6.44771525,19 7,19 L17,19 C17.5522847,19 18,18.5522847 18,18 L18,14 C18,13.4477153 18.4477153,13 19,13 C19.5522847,13 20,13.4477153 20,14 L20,18 C20,19.6568542 18.6568542,21 17,21 L7,21 C5.34314575,21 4,19.6568542 4,18 L4,14 Z" id="Mask" fill="#FFFFFF" fill-rule="nonzero"></path>
        </g>
    </g>
</svg>
