<?xml version="1.0" encoding="UTF-8"?>
<svg width="24px" height="24px" viewBox="0 0 24 24" version="1.1" xmlns="http://www.w3.org/2000/svg" xmlns:xlink="http://www.w3.org/1999/xlink">
    <!-- Generator: Sketch 48.1 (47250) - http://www.bohemiancoding.com/sketch -->
    <title>smile_24</title>
    <desc>Created with Sketch.</desc>
    <defs>
        <path d="M2,12 C2,6.4771525 6.4771525,2 12,2 C17.5228475,2 22,6.4771525 22,12 C22,17.5228475 17.5228475,22 12,22 C6.4771525,22 2,17.5228475 2,12 Z M20.0036508,12.0036508 C20.0036508,7.58537284 16.4219288,4.00365084 12.0036508,4.00365084 C7.58537284,4.00365084 4.00365084,7.58537284 4.00365084,12.0036508 C4.00365084,16.4219288 7.58537284,20.0036508 12.0036508,20.0036508 C16.4219288,20.0036508 20.0036508,16.4219288 20.0036508,12.0036508 Z M8.5,11.5 C7.67157288,11.5 7,10.8284271 7,10 C7,9.17157288 7.67157288,8.5 8.5,8.5 C9.32842712,8.5 10,9.17157288 10,10 C10,10.8284271 9.32842712,11.5 8.5,11.5 Z M15.5,11.5 C14.6715729,11.5 14,10.8284271 14,10 C14,9.17157288 14.6715729,8.5 15.5,8.5 C16.3284271,8.5 17,9.17157288 17,10 C17,10.8284271 16.3284271,11.5 15.5,11.5 Z M7.48286177,15.2181285 C7.16156935,14.7686399 7.26545966,14.1438449 7.71490727,13.8226099 C8.16435487,13.5013749 8.78916312,13.605345 9.11045554,14.0548336 C9.22398479,14.2136612 9.35125754,14.3639003 9.49176732,14.50441 C10.8769264,15.8895692 13.1225697,15.8897126 14.5075519,14.5047304 C14.6482205,14.3640617 14.7756175,14.2136378 14.8892344,14.0546035 C15.2103758,13.6050889 15.835149,13.5010684 16.2847046,13.8222671 C16.7342602,14.1434659 16.8383606,14.7682524 16.5172192,15.217767 C16.3396517,15.4663155 16.1409647,15.7009152 15.9223508,15.9195292 C13.7560965,18.0857834 10.2436801,18.0855591 8.07714918,15.9190282 C7.85878285,15.7006618 7.66029094,15.4663522 7.48286177,15.2181285 Z" id="path-1"></path>
    </defs>
    <g id="Artboard" stroke="none" stroke-width="1" fill="none" fill-rule="evenodd" transform="translate(-644.000000, -509.000000)">
        <g id="smile_24" transform="translate(644.000000, 509.000000)">
            <rect id="Mask" opacity="0.4" x="0" y="0" width="24" height="24"></rect>
            <mask id="mask-2" fill="white">
                <use xlink:href="#path-1"></use>
            </mask>
            <use id="Mask" fill="#FFFFFF" fill-rule="nonzero" xlink:href="#path-1"></use>
        </g>
    </g>
</svg>