<?xml version="1.0" encoding="UTF-8"?>
<svg width="24px" height="24px" viewBox="0 0 24 24" version="1.1" xmlns="http://www.w3.org/2000/svg" xmlns:xlink="http://www.w3.org/1999/xlink">
    <!-- Generator: Sketch 49 (51002) - http://www.bohemiancoding.com/sketch -->
    <title>unpin_24</title>
    <desc>Created with Sketch.</desc>
    <defs><path d="M15.4982452,13.0829454 L20.1992077,17.7849927 C20.5897001,18.1755753 20.5896636,18.8087504 20.1991261,19.1992879 C19.8086469,19.5897671 19.1755549,19.5897671 18.7850757,19.1992879 C18.7850485,19.1992607 18.7850213,19.1992335 18.7849941,19.1992063 L15.4982452,15.9116989 L15.4982452,18.7618222 C15.4982452,18.9527781 15.4223883,19.1359129 15.2873621,19.2709391 C15.0061846,19.5521166 14.5503058,19.5521166 14.2691284,19.2709391 L10.3822556,15.3840663 L5.63388348,20.1324384 C5.14572811,20.6205938 4.35427189,20.6205938 3.86611652,20.1324384 C3.37796116,19.644283 3.37796116,18.8528268 3.86611652,18.3646714 L8.6144886,13.6162994 L4.72736212,9.72917288 C4.59233593,9.59414669 4.516479,9.41101187 4.516479,9.220056 C4.516479,8.82241098 4.83883398,8.500056 5.236479,8.500056 L8.0883123,8.500056 L4.7983203,5.20930476 C4.40782787,4.81872222 4.40786439,4.18554711 4.79840188,3.79500962 C5.18888112,3.40453039 5.82197305,3.40453039 6.21245229,3.79500962 C6.21247948,3.79503681 6.21250667,3.79506401 6.21253386,3.7950912 L10.9164131,8.500056 L10.9176788,8.500056 L15.4982452,13.0806224 L15.4982452,13.0829454 Z M16.6221756,11.3761256 L12.6221756,7.37612564 L14.4982452,5.500056 L14.4982452,3.69000549 C14.4982452,3.50435395 14.571995,3.32630621 14.7032705,3.19503075 C14.9766375,2.92166374 15.419853,2.92166374 15.69322,3.19503075 L20.8032705,8.30508125 C20.934546,8.43635672 21.0082957,8.61440446 21.0082957,8.800056 C21.0082957,9.18665532 20.6948951,9.500056 20.3082957,9.500056 L18.4982452,9.500056 L16.6221756,11.3761256 Z" id="Combined-Shape" fill="#FFFFFF"></path></defs>
    <g id="Page-1" stroke="none" stroke-width="1" fill="none" fill-rule="evenodd">
        <g id="unpin_24">
            <rect id="Rectangle-5" x="0" y="0" width="24" height="24"></rect>
            <path d="M15.4982452,13.0829454 L20.1992077,17.7849927 C20.5897001,18.1755753 20.5896636,18.8087504 20.1991261,19.1992879 C19.8086469,19.5897671 19.1755549,19.5897671 18.7850757,19.1992879 C18.7850485,19.1992607 18.7850213,19.1992335 18.7849941,19.1992063 L15.4982452,15.9116989 L15.4982452,18.7618222 C15.4982452,18.9527781 15.4223883,19.1359129 15.2873621,19.2709391 C15.0061846,19.5521166 14.5503058,19.5521166 14.2691284,19.2709391 L10.3822556,15.3840663 L5.63388348,20.1324384 C5.14572811,20.6205938 4.35427189,20.6205938 3.86611652,20.1324384 C3.37796116,19.644283 3.37796116,18.8528268 3.86611652,18.3646714 L8.6144886,13.6162994 L4.72736212,9.72917288 C4.59233593,9.59414669 4.516479,9.41101187 4.516479,9.220056 C4.516479,8.82241098 4.83883398,8.500056 5.236479,8.500056 L8.0883123,8.500056 L4.7983203,5.20930476 C4.40782787,4.81872222 4.40786439,4.18554711 4.79840188,3.79500962 C5.18888112,3.40453039 5.82197305,3.40453039 6.21245229,3.79500962 C6.21247948,3.79503681 6.21250667,3.79506401 6.21253386,3.7950912 L10.9164131,8.500056 L10.9176788,8.500056 L15.4982452,13.0806224 L15.4982452,13.0829454 Z M16.6221756,11.3761256 L12.6221756,7.37612564 L14.4982452,5.500056 L14.4982452,3.69000549 C14.4982452,3.50435395 14.571995,3.32630621 14.7032705,3.19503075 C14.9766375,2.92166374 15.419853,2.92166374 15.69322,3.19503075 L20.8032705,8.30508125 C20.934546,8.43635672 21.0082957,8.61440446 21.0082957,8.800056 C21.0082957,9.18665532 20.6948951,9.500056 20.3082957,9.500056 L18.4982452,9.500056 L16.6221756,11.3761256 Z" id="Combined-Shape" fill="#FFFFFF"></path>
        </g>
    </g>
</svg>
