<?xml version="1.0" encoding="UTF-8"?>
<svg width="24px" height="24px" viewBox="0 0 24 24" version="1.1" xmlns="http://www.w3.org/2000/svg" xmlns:xlink="http://www.w3.org/1999/xlink">
    <!-- Generator: Sketch 48.1 (47250) - http://www.bohemiancoding.com/sketch -->
    <title>user_outline_24</title>
    <desc>Created with Sketch.</desc>
    <defs>
        <path d="M15.25,7.5 C15.25,5.84233856 13.9076614,4.5 12.25,4.5 C10.5923386,4.5 9.25,5.84233856 9.25,7.5 C9.25,9.15766144 10.5923386,10.5 12.25,10.5 C13.9076614,10.5 15.25,9.15766144 15.25,7.5 Z M16.75,7.5 C16.75,9.98608856 14.7360886,12 12.25,12 C9.76391144,12 7.75,9.98608856 7.75,7.5 C7.75,5.01391144 9.76391144,3 12.25,3 C14.7360886,3 16.75,5.01391144 16.75,7.5 Z M6,17.6785653 C6,18.5279805 5.97392569,18.4999939 6.48529412,18.4999939 L18.0147059,18.4999939 C18.5260743,18.4999939 18.5,18.5279805 18.5,17.6785653 C18.5,15.6664578 15.6472576,14.4999939 12.25,14.4999939 C8.85274237,14.4999939 6,15.6664578 6,17.6785653 Z M4.5,17.6785653 C4.5,14.4712851 8.09823802,12.9999939 12.25,12.9999939 C16.401762,12.9999939 20,14.4712851 20,17.6785653 C20,19.3336144 19.3791545,19.9999939 18.0147059,19.9999939 L6.48529412,19.9999939 C5.12084555,19.9999939 4.5,19.3336144 4.5,17.6785653 Z" id="path-1"></path>
    </defs>
    <g id="Artboard" stroke="none" stroke-width="1" fill="none" fill-rule="evenodd" transform="translate(-596.000000, -751.000000)">
        <g id="user_outline_24" transform="translate(596.000000, 751.000000)">
            <polygon id="Mask" opacity="0.100000001" points="0 0 24 0 24 24 0 24"></polygon>
            <mask id="mask-2" fill="white">
                <use xlink:href="#path-1"></use>
            </mask>
            <use id="Mask" fill="#FFFFFF" fill-rule="nonzero" xlink:href="#path-1"></use>
        </g>
    </g>
</svg>