<?xml version="1.0" encoding="UTF-8"?>
<svg width="24px" height="24px" viewBox="0 0 24 24" version="1.1" xmlns="http://www.w3.org/2000/svg" xmlns:xlink="http://www.w3.org/1999/xlink">
    <!-- Generator: Sketch 48.1 (47250) - http://www.bohemiancoding.com/sketch -->
    <title>user_outgoing_24</title>
    <desc>Created with Sketch.</desc>
    <defs>
        <path d="M12,8 C12,5.79 10.21,4 8,4 C5.79,4 4,5.79 4,8 C4,10.21 5.79,12 8,12 C10.21,12 12,10.21 12,8 Z M20.5857864,8 L18.2928932,5.70710678 C17.9023689,5.31658249 17.9023689,4.68341751 18.2928932,4.29289322 C18.6834175,3.90236893 19.3165825,3.90236893 19.7071068,4.29289322 L23.7071068,8.29289322 C24.0976311,8.68341751 24.0976311,9.31658249 23.7071068,9.70710678 L19.7071068,13.7071068 C19.3165825,14.0976311 18.6834175,14.0976311 18.2928932,13.7071068 C17.9023689,13.3165825 17.9023689,12.6834175 18.2928932,12.2928932 L20.5857864,10 L15.5,10 C14.9477153,10 14.5,9.55228475 14.5,9 C14.5,8.44771525 14.9477153,8 15.5,8 L20.5857864,8 Z M0,18 C0,14.5 5.33,13.5 8,13.5 C10.67,13.5 16,14.5 16,18 L16,19 C16,19.5522847 15.5522847,20 15,20 L1,20 C0.44771525,20 6.76353751e-17,19.5522847 0,19 L0,18 Z" id="path-1"></path>
    </defs>
    <g id="Artboard" stroke="none" stroke-width="1" fill="none" fill-rule="evenodd" transform="translate(-644.000000, -413.000000)">
        <g id="user_outgoing_24" transform="translate(644.000000, 413.000000)">
            <polygon id="Mask" opacity="0.100000001" points="0 0 24 0 24 24 0 24"></polygon>
            <mask id="mask-2" fill="white">
                <use xlink:href="#path-1"></use>
            </mask>
            <use id="Mask" fill="#FFFFFF" xlink:href="#path-1"></use>
        </g>
    </g>
</svg>