<?xml version="1.0" encoding="UTF-8"?>
<svg width="24px" height="24px" viewBox="0 0 24 24" version="1.1" xmlns="http://www.w3.org/2000/svg" xmlns:xlink="http://www.w3.org/1999/xlink">
    <!-- Generator: Sketch 48.1 (47250) - http://www.bohemiancoding.com/sketch -->
    <title>user_add_24</title>
    <desc>Created with Sketch.</desc>
    <defs>
        <path d="M20,8 C20,5.79 18.21,4 16,4 C13.79,4 12,5.79 12,8 C12,10.21 13.79,12 16,12 C18.21,12 20,10.21 20,8 Z M5,6.5 L5,6.5 C4.44771525,6.5 4,6.94771525 4,7.5 L4,10 L1.5,10 C0.94771525,10 0.5,10.4477153 0.5,11 L0.5,11 C0.5,11.5522847 0.94771525,12 1.5,12 L4,12 L4,14.5 C4,15.0522847 4.44771525,15.5 5,15.5 L5,15.5 C5.55228475,15.5 6,15.0522847 6,14.5 L6,12 L8.5,12 C9.05228475,12 9.5,11.5522847 9.5,11 L9.5,11 C9.5,10.4477153 9.05228475,10 8.5,10 L6,10 L6,7.5 C6,6.94771525 5.55228475,6.5 5,6.5 Z M8,18 L8,19 C8,19.5522847 8.44771525,20 9,20 L23,20 C23.5522847,20 24,19.5522847 24,19 L24,18 C24,14.5 18.67,13.5 16,13.5 C13.33,13.5 8,14.5 8,18 Z" id="path-1"></path>
    </defs>
    <g id="Artboard" stroke="none" stroke-width="1" fill="none" fill-rule="evenodd" transform="translate(-596.000000, -413.000000)">
        <g id="user_add_24" transform="translate(596.000000, 413.000000)">
            <polygon id="Mask" opacity="0.100000001" points="0 0 24 0 24 24 0 24"></polygon>
            <mask id="mask-2" fill="white">
                <use xlink:href="#path-1"></use>
            </mask>
            <use id="Mask" fill="#FFFFFF" xlink:href="#path-1"></use>
        </g>
    </g>
</svg>