<?xml version="1.0" encoding="UTF-8"?>
<svg width="24px" height="24px" viewBox="0 0 24 24" version="1.1" xmlns="http://www.w3.org/2000/svg" xmlns:xlink="http://www.w3.org/1999/xlink">
    <!-- Generator: Sketch 48.1 (47250) - http://www.bohemiancoding.com/sketch -->
    <title>video_24</title>
    <desc>Created with Sketch.</desc>
    <defs>
        <path d="M6,3 L17,3 C18.6568542,3 20,4.34314575 20,6 L20,18.5 C20,20.1568542 18.6568542,21.5 17,21.5 L6,21.5 C4.34314575,21.5 3,20.1568542 3,18.5 L3,6 C3,4.34314575 4.34314575,3 6,3 Z M6.75,6 C6.33578644,6 6,6.33578644 6,6.75 L6,7.75 C6,8.16421356 6.33578644,8.5 6.75,8.5 L7.75,8.5 C8.16421356,8.5 8.5,8.16421356 8.5,7.75 L8.5,6.75 C8.5,6.33578644 8.16421356,6 7.75,6 L6.75,6 Z M15.25,6 C14.8357864,6 14.5,6.33578644 14.5,6.75 L14.5,7.75 C14.5,8.16421356 14.8357864,8.5 15.25,8.5 L16.25,8.5 C16.6642136,8.5 17,8.16421356 17,7.75 L17,6.75 C17,6.33578644 16.6642136,6 16.25,6 L15.25,6 Z M6.75,16 C6.33578644,16 6,16.3357864 6,16.75 L6,17.75 C6,18.1642136 6.33578644,18.5 6.75,18.5 L7.75,18.5 C8.16421356,18.5 8.5,18.1642136 8.5,17.75 L8.5,16.75 C8.5,16.3357864 8.16421356,16 7.75,16 L6.75,16 Z M15.25,16 C14.8357864,16 14.5,16.3357864 14.5,16.75 L14.5,17.75 C14.5,18.1642136 14.8357864,18.5 15.25,18.5 L16.25,18.5 C16.6642136,18.5 17,18.1642136 17,17.75 L17,16.75 C17,16.3357864 16.6642136,16 16.25,16 L15.25,16 Z M6.75,11 C6.33578644,11 6,11.3357864 6,11.75 L6,12.75 C6,13.1642136 6.33578644,13.5 6.75,13.5 L7.75,13.5 C8.16421356,13.5 8.5,13.1642136 8.5,12.75 L8.5,11.75 C8.5,11.3357864 8.16421356,11 7.75,11 L6.75,11 Z M15.25,11 C14.8357864,11 14.5,11.3357864 14.5,11.75 L14.5,12.75 C14.5,13.1642136 14.8357864,13.5 15.25,13.5 L16.25,13.5 C16.6642136,13.5 17,13.1642136 17,12.75 L17,11.75 C17,11.3357864 16.6642136,11 16.25,11 L15.25,11 Z" id="path-1"></path>
    </defs>
    <g id="Artboard" stroke="none" stroke-width="1" fill="none" fill-rule="evenodd" transform="translate(-788.000000, -173.000000)">
        <g id="video_24" transform="translate(788.000000, 173.000000)">
            <polygon id="Mask" opacity="0.4" points="0 0 24 0 24 24 0 24"></polygon>
            <mask id="mask-2" fill="white">
                <use xlink:href="#path-1"></use>
            </mask>
            <use id="Mask" fill="#FFFFFF" xlink:href="#path-1"></use>
        </g>
    </g>
</svg>