<?xml version="1.0" encoding="UTF-8"?>
<svg width="24px" height="24px" viewBox="0 0 24 24" version="1.1" xmlns="http://www.w3.org/2000/svg" xmlns:xlink="http://www.w3.org/1999/xlink">
    <!-- Generator: Sketch 48.1 (47250) - http://www.bohemiancoding.com/sketch -->
    <title>video_fill_24</title>
    <desc>Created with Sketch.</desc>
    <defs>
        <path d="M5.8458278,4 L18.1541722,4 C19.4914503,4 19.9763797,4.13923842 20.4652686,4.40069906 C20.9541574,4.66215969 21.3378403,5.04584256 21.5993009,5.53473144 C21.8607616,6.02362033 22,6.50854969 22,7.8458278 L22,16.1541722 C22,17.4914503 21.8607616,17.9763797 21.5993009,18.4652686 C21.3378403,18.9541574 20.9541574,19.3378403 20.4652686,19.5993009 C19.9763797,19.8607616 19.4914503,20 18.1541722,20 L5.8458278,20 C4.50854969,20 4.02362033,19.8607616 3.53473144,19.5993009 C3.04584256,19.3378403 2.66215969,18.9541574 2.40069906,18.4652686 C2.13923842,17.9763797 2,17.4914503 2,16.1541722 L2,7.8458278 C2,6.50854969 2.13923842,6.02362033 2.40069906,5.53473144 C2.66215969,5.04584256 3.04584256,4.66215969 3.53473144,4.40069906 C4.02362033,4.13923842 4.50854969,4 5.8458278,4 Z M5.2819426,6 C4.83618323,6 4.67454011,6.04641281 4.51157715,6.13356635 C4.34861419,6.2207199 4.2207199,6.34861419 4.13356635,6.51157715 C4.04641281,6.67454011 4,6.83618323 4,7.2819426 L4,16.7180574 C4,17.1638168 4.04641281,17.3254599 4.13356635,17.4884229 C4.2207199,17.6513858 4.34861419,17.7792801 4.51157715,17.8664336 C4.67454011,17.9535872 4.83618323,18 5.2819426,18 L18.7180574,18 C19.1638168,18 19.3254599,17.9535872 19.4884229,17.8664336 C19.6513858,17.7792801 19.7792801,17.6513858 19.8664336,17.4884229 C19.9535872,17.3254599 20,17.1638168 20,16.7180574 L20,7.2819426 C20,6.83618323 19.9535872,6.67454011 19.8664336,6.51157715 C19.7792801,6.34861419 19.6513858,6.2207199 19.4884229,6.13356635 C19.3254599,6.04641281 19.1638168,6 18.7180574,6 L5.2819426,6 Z M9.6,13.8 C9.53508894,13.7134519 9.5,13.6081851 9.5,13.5 C9.5,13.2238576 9.72385763,13 10,13 L14,13 C14.1081851,13 14.2134519,13.0350889 14.3,13.1 C14.5209139,13.2656854 14.5656854,13.5790861 14.4,13.8 L12.4,16.4666667 C12.3715729,16.5045695 12.3379028,16.5382395 12.3,16.5666667 C12.0790861,16.7323521 11.7656854,16.6875806 11.6,16.4666667 L9.6,13.8 Z M9.6,10.2 L11.6,7.53333333 C11.7656854,7.31241943 12.0790861,7.26764791 12.3,7.43333333 C12.3379028,7.46176046 12.3715729,7.4954305 12.4,7.53333333 L14.4,10.2 C14.5656854,10.4209139 14.5209139,10.7343146 14.3,10.9 C14.2134519,10.9649111 14.1081851,11 14,11 L10,11 C9.72385763,11 9.5,10.7761424 9.5,10.5 C9.5,10.3918149 9.53508894,10.2865481 9.6,10.2 Z" id="path-1"></path>
    </defs>
    <g id="Artboard" stroke="none" stroke-width="1" fill="none" fill-rule="evenodd" transform="translate(-452.000000, -703.000000)">
        <g id="video_fill_24" transform="translate(452.000000, 703.000000)">
            <polygon id="Mask" opacity="0.4" points="0 0 24 0 24 24 0 24"></polygon>
            <mask id="mask-2" fill="white">
                <use xlink:href="#path-1"></use>
            </mask>
            <use id="Mask" fill="#FFFFFF" xlink:href="#path-1"></use>
        </g>
    </g>
</svg>