<?xml version="1.0" encoding="UTF-8"?>
<svg width="24px" height="24px" viewBox="0 0 24 24" version="1.1" xmlns="http://www.w3.org/2000/svg" xmlns:xlink="http://www.w3.org/1999/xlink">
    <!-- Generator: Sketch 49 (51002) - http://www.bohemiancoding.com/sketch -->
    <title>view_24</title>
    <desc>Created with Sketch.</desc>
    <defs>
        <path d="M12,19 C6,19 2,13.4 2,12 C2,10.6 6,5 12,5 C18,5 22,10.6 22,12 C22,13.4 18,19 12,19 Z M12,17 C14.7614237,17 17,14.7614237 17,12 C17,9.23857625 14.7614237,7 12,7 C9.23857625,7 7,9.23857625 7,12 C7,14.7614237 9.23857625,17 12,17 Z M12.0009513,14.5 C10.6202394,14.5 9.50095131,13.3807119 9.50095131,12 C9.50095131,10.6192881 10.6202394,9.5 12.0009513,9.5 C13.3816632,9.5 14.5009513,10.6192881 14.5009513,12 C14.5009513,13.3807119 13.3816632,14.5 12.0009513,14.5 Z" id="path-1"></path>
    </defs>
    <g id="Page-1" stroke="none" stroke-width="1" fill="none" fill-rule="evenodd">
        <g id="view_24">
            <rect id="icon-bounds" opacity="0.4" x="0" y="0" width="24" height="24"></rect>
            <mask id="mask-2" fill="white">
                <use xlink:href="#path-1"></use>
            </mask>
            <use id="Mask" fill="#FFFFFF" xlink:href="#path-1"></use>
        </g>
    </g>
</svg>