<?xml version="1.0" encoding="UTF-8"?>
<svg width="24px" height="24px" viewBox="0 0 24 24" version="1.1" xmlns="http://www.w3.org/2000/svg" xmlns:xlink="http://www.w3.org/1999/xlink">
    <!-- Generator: Sketch 48.1 (47250) - http://www.bohemiancoding.com/sketch -->
    <title>volume_24</title>
    <desc>Created with Sketch.</desc>
    <defs>
        <path d="M20.6568537,17.6568556 C20.3053818,18.0083275 19.7355334,18.0083275 19.3840615,17.6568556 C19.0325896,17.3053838 19.0325896,16.7355353 19.3840615,16.3840634 C21.8053121,13.9628128 21.8053121,10.03719 19.3840615,7.61593945 C19.0325896,7.26446759 19.0325896,6.69461911 19.3840615,6.34314725 C19.7355334,5.99167539 20.3053818,5.99167539 20.6568537,6.34314725 C23.781048,9.46734155 23.781048,14.5326613 20.6568537,17.6568556 Z M18.1112708,15.111267 C17.7597989,15.4627388 17.1899504,15.4627388 16.8384786,15.111267 C16.4870067,14.7597951 16.4870067,14.1899466 16.8384786,13.8384748 C17.8538417,12.8231116 17.8538417,11.1768827 16.8384786,10.1615195 C16.4870067,9.81004765 16.4870067,9.24019916 16.8384786,8.8887273 C17.1899504,8.53725544 17.7597989,8.53725544 18.1112708,8.8887273 C19.8295777,10.6070342 19.8295777,13.3929601 18.1112708,15.111267 Z M4,15 C2.8954305,15 2,14.1045695 2,13 L2,11 C2,9.8954305 2.8954305,9 4,9 L6.76499939,9 L12.2794445,3.69339732 C12.7417494,3.24851695 13.3584048,3 14,3 C14.5522847,3 15,3.44771525 15,4 L15,20 C15,20.5522847 14.5522847,21 14,21 C13.3585404,21 12.742154,20.7508682 12.2808452,20.3051501 L6.79012894,15 L4,15 Z" id="path-1"></path>
    </defs>
    <g id="Artboard" stroke="none" stroke-width="1" fill="none" fill-rule="evenodd" transform="translate(-788.000000, -365.000000)">
        <g id="volume_24" transform="translate(788.000000, 365.000000)">
            <rect id="Mask" opacity="0.4" x="0" y="0" width="24" height="24"></rect>
            <mask id="mask-2" fill="white">
                <use xlink:href="#path-1"></use>
            </mask>
            <use id="Mask" fill="#FFFFFF" fill-rule="nonzero" xlink:href="#path-1"></use>
        </g>
    </g>
</svg>