<?xml version="1.0" encoding="UTF-8"?>
<svg width="24px" height="24px" viewBox="0 0 24 24" version="1.1" xmlns="http://www.w3.org/2000/svg" xmlns:xlink="http://www.w3.org/1999/xlink">
    <!-- Generator: Sketch 49 (51002) - http://www.bohemiancoding.com/sketch -->
    <title>volume_24</title>
    <desc>Created with Sketch.</desc>
    <defs><path d="M21.6568537,17.6568556 C21.3053818,18.0083275 20.7355334,18.0083275 20.3840615,17.6568556 C20.0325896,17.3053838 20.0325896,16.7355353 20.3840615,16.3840634 C22.8053121,13.9628128 22.8053121,10.03719 20.3840615,7.61593945 C20.0325896,7.26446759 20.0325896,6.69461911 20.3840615,6.34314725 C20.7355334,5.99167539 21.3053818,5.99167539 21.6568537,6.34314725 C24.781048,9.46734155 24.781048,14.5326613 21.6568537,17.6568556 Z M19.1112708,15.111267 C18.7597989,15.4627388 18.1899504,15.4627388 17.8384786,15.111267 C17.4870067,14.7597951 17.4870067,14.1899466 17.8384786,13.8384748 C18.8538417,12.8231116 18.8538417,11.1768827 17.8384786,10.1615195 C17.4870067,9.81004765 17.4870067,9.24019916 17.8384786,8.8887273 C18.1899504,8.53725544 18.7597989,8.53725544 19.1112708,8.8887273 C20.8295777,10.6070342 20.8295777,13.3929601 19.1112708,15.111267 Z M5,15 C3.8954305,15 3,14.1045695 3,13 L3,11 C3,9.8954305 3.8954305,9 5,9 L7.76499939,9 L13.2794445,3.69339732 C13.7417494,3.24851695 14.3584048,3 15,3 C15.5522847,3 16,3.44771525 16,4 L16,20 C16,20.5522847 15.5522847,21 15,21 C14.3585404,21 13.742154,20.7508682 13.2808452,20.3051501 L7.79012894,15 L5,15 Z" id="Mask" fill="#FFFFFF" fill-rule="nonzero"></path></defs>
    <g id="Page-1" stroke="none" stroke-width="1" fill="none" fill-rule="evenodd">
        <g id="volume_24">
            <rect id="Bounds" opacity="0.4" x="0" y="0" width="24" height="24"></rect>
            <path d="M21.6568537,17.6568556 C21.3053818,18.0083275 20.7355334,18.0083275 20.3840615,17.6568556 C20.0325896,17.3053838 20.0325896,16.7355353 20.3840615,16.3840634 C22.8053121,13.9628128 22.8053121,10.03719 20.3840615,7.61593945 C20.0325896,7.26446759 20.0325896,6.69461911 20.3840615,6.34314725 C20.7355334,5.99167539 21.3053818,5.99167539 21.6568537,6.34314725 C24.781048,9.46734155 24.781048,14.5326613 21.6568537,17.6568556 Z M19.1112708,15.111267 C18.7597989,15.4627388 18.1899504,15.4627388 17.8384786,15.111267 C17.4870067,14.7597951 17.4870067,14.1899466 17.8384786,13.8384748 C18.8538417,12.8231116 18.8538417,11.1768827 17.8384786,10.1615195 C17.4870067,9.81004765 17.4870067,9.24019916 17.8384786,8.8887273 C18.1899504,8.53725544 18.7597989,8.53725544 19.1112708,8.8887273 C20.8295777,10.6070342 20.8295777,13.3929601 19.1112708,15.111267 Z M5,15 C3.8954305,15 3,14.1045695 3,13 L3,11 C3,9.8954305 3.8954305,9 5,9 L7.76499939,9 L13.2794445,3.69339732 C13.7417494,3.24851695 14.3584048,3 15,3 C15.5522847,3 16,3.44771525 16,4 L16,20 C16,20.5522847 15.5522847,21 15,21 C14.3585404,21 13.742154,20.7508682 13.2808452,20.3051501 L7.79012894,15 L5,15 Z" id="Mask" fill="#FFFFFF" fill-rule="nonzero"></path>
        </g>
    </g>
</svg>
