<?xml version="1.0" encoding="UTF-8"?>
<svg width="24px" height="24px" viewBox="0 0 24 24" version="1.1" xmlns="http://www.w3.org/2000/svg" xmlns:xlink="http://www.w3.org/1999/xlink">
    <!-- Generator: Sketch 48.1 (47250) - http://www.bohemiancoding.com/sketch -->
    <title>attach_24</title>
    <desc>Created with Sketch.</desc>
    <defs>
        <path d="M18.3376182,14.2972311 L13.7806145,18.8434758 C11.9764371,20.6433935 9.05474081,20.6399404 7.2548231,18.8357631 C7.23523361,18.8160482 7.23523361,18.8160482 7.21580307,18.7961767 C5.32152783,16.8511126 5.32861566,13.7488956 7.23175909,11.8125077 L14.0588371,4.86617306 C15.1619027,3.7438389 16.9659457,3.72821865 18.0882799,4.83128427 C18.112244,4.85483699 18.1357897,4.87881176 18.1589058,4.90319734 C19.3318209,6.14052486 19.3190025,8.03649805 18.1580353,9.22851841 L11.2797508,16.2907807 C10.8775894,16.703699 10.2248834,16.7361532 9.78374419,16.3651659 L9.70998349,16.3031349 C9.31255106,15.968904 9.26131613,15.3757737 9.59554706,14.9783412 C9.60779462,14.9637777 9.62048146,14.9495894 9.63359005,14.9357958 L14.2660469,10.0612618 C14.6084582,9.70095715 14.5939528,9.13129331 14.2336482,8.78888199 C13.8733435,8.44647067 13.3036797,8.46097606 12.9612684,8.82128069 L8.32881157,13.6958147 C8.29060834,13.7360143 8.25363424,13.7773644 8.21794038,13.8198078 C7.24386907,14.9780714 7.39318642,16.7066703 8.55145002,17.6807416 L8.62521071,17.7427726 C9.78821411,18.7208299 11.5089843,18.6352689 12.5692282,17.5466661 L19.4475126,10.4844038 C21.2825899,8.60024259 21.3028512,5.60338174 19.4934177,3.69458046 C19.4275272,3.62507143 19.3891072,3.58595126 19.3500044,3.54751975 C17.5186666,1.74762295 14.5749694,1.77311085 12.7750726,3.60444857 L5.94799458,10.5507832 C3.35877966,13.185227 3.34913671,17.4057741 5.92628651,20.0520218 C5.95329652,20.0796448 5.95329652,20.0796448 5.98052749,20.1070501 C8.48255762,22.6150015 12.5439501,22.6198016 15.0519015,20.1177714 L19.6089053,15.5715267 C19.9607923,15.2204705 19.9614658,14.6506224 19.6104096,14.2987354 C19.2593533,13.9468483 18.6895053,13.9461749 18.3376182,14.2972311 Z" id="path-1"></path>
    </defs>
    <g id="Artboard" stroke="none" stroke-width="1" fill="none" fill-rule="evenodd" transform="translate(-500.000000, -413.000000)">
        <g id="attach_24" transform="translate(500.000000, 413.000000)">
            <rect id="Mask" x="0" y="0" width="24" height="24"></rect>
            <mask id="mask-2" fill="white">
                <use xlink:href="#path-1"></use>
            </mask>
            <use id="Mask" fill="#FFFFFF" fill-rule="nonzero" xlink:href="#path-1"></use>
        </g>
    </g>
</svg>