<?xml version="1.0" encoding="UTF-8"?>
<svg width="24px" height="24px" viewBox="0 0 24 24" version="1.1" xmlns="http://www.w3.org/2000/svg" xmlns:xlink="http://www.w3.org/1999/xlink">
    <!-- Generator: Sketch 48.1 (47250) - http://www.bohemiancoding.com/sketch -->
    <title>bug_24</title>
    <desc>Created with Sketch.</desc>
    <defs>
        <path d="M19,8 L17.19,8 C16.74,7.22 16.12,6.55 15.37,6.04 L16.295,5.115 C16.6843607,4.72563925 16.6843607,4.09436075 16.295,3.705 L16.295,3.705 C15.9056393,3.31563925 15.2743607,3.31563925 14.885,3.705 L13.42,5.17 C12.96,5.06 12.49,5 12,5 C11.51,5 11.04,5.06 10.59,5.17 L9.11661882,3.70337745 C8.72610153,3.31465153 8.09462264,3.31537736 7.705,3.705 L7.70493442,3.70506558 C7.31525952,4.09474048 7.314288,4.72622805 7.70276206,5.1171001 L8.62,6.04 C7.88,6.55 7.26,7.22 6.81,8 L5,8 C4.44771525,8 4,8.44771525 4,9 L4,9 C4,9.55228475 4.44771525,10 5,10 L6.09,10 C6.04,10.33 6,10.66 6,11 L6,12 L5,12 C4.44771525,12 4,12.4477153 4,13 L4,13 C4,13.5522847 4.44771525,14 5,14 L6,14 L6,15 C6,15.34 6.04,15.67 6.09,16 L5,16 C4.44771525,16 4,16.4477153 4,17 L4,17 C4,17.5522847 4.44771525,18 5,18 L6.81,18 C7.85,19.79 9.78,21 12,21 C14.22,21 16.15,19.79 17.19,18 L19,18 C19.5522847,18 20,17.5522847 20,17 L20,17 C20,16.4477153 19.5522847,16 19,16 L17.91,16 C17.96,15.67 18,15.34 18,15 L18,14 L19,14 C19.5522847,14 20,13.5522847 20,13 L20,13 C20,12.4477153 19.5522847,12 19,12 L18,12 L18,11 C18,10.66 17.96,10.33 17.91,10 L19,10 C19.5522847,10 20,9.55228475 20,9 L20,9 C20,8.44771525 19.5522847,8 19,8 Z M13,16 L11,16 C10.4477153,16 10,15.5522847 10,15 L10,15 C10,14.4477153 10.4477153,14 11,14 L13,14 C13.5522847,14 14,14.4477153 14,15 L14,15 C14,15.5522847 13.5522847,16 13,16 Z M13,12 L11,12 C10.4477153,12 10,11.5522847 10,11 L10,11 C10,10.4477153 10.4477153,10 11,10 L13,10 C13.5522847,10 14,10.4477153 14,11 L14,11 C14,11.5522847 13.5522847,12 13,12 Z" id="path-1"></path>
    </defs>
    <g id="Artboard" stroke="none" stroke-width="1" fill="none" fill-rule="evenodd" transform="translate(-644.000000, -557.000000)">
        <g id="bug_24" transform="translate(644.000000, 557.000000)">
            <polygon id="Mask" points="0 0 24 0 24 24 0 24"></polygon>
            <mask id="mask-2" fill="white">
                <use xlink:href="#path-1"></use>
            </mask>
            <use id="Mask" fill="#FFFFFF" fill-rule="nonzero" xlink:href="#path-1"></use>
        </g>
    </g>
</svg>