<?xml version="1.0" encoding="UTF-8"?>
<svg width="24px" height="24px" viewBox="0 0 24 24" version="1.1" xmlns="http://www.w3.org/2000/svg" xmlns:xlink="http://www.w3.org/1999/xlink">
    <!-- Generator: Sketch 48.1 (47250) - http://www.bohemiancoding.com/sketch -->
    <title>camera_24</title>
    <desc>Created with Sketch.</desc>
    <defs>
        <path d="M5.18181818,6 C5.23105876,6 5.38257391,6 5.63636364,6 C6.31626753,6 7.05690529,5.5033427 7.42059674,5.05442495 C7.78428819,4.6055072 8.11831917,4.19013985 8.13865745,4.16624501 C8.53483179,3.70079164 8.93910759,3.5 9.62891942,3.5 C10.180485,3.5 10.590136,3.5 10.8578726,3.5 C11.1965701,3.5 11.5772792,3.5 12,3.5 L12,20 L5.63636364,20 C3.62805546,20 2,18.4081236 2,16.4444444 L2,9.55555556 C2,7.33333333 3,6 5.18181818,6 Z M18.8181818,6 C18.7689412,6 18.6174261,6 18.3636364,6 C17.6837325,6 16.9430947,5.5033427 16.5794033,5.05442495 C16.2157118,4.6055072 15.8816808,4.19013985 15.8613426,4.16624501 C15.4651682,3.70079164 15.0608924,3.5 14.3710806,3.5 C13.819515,3.5 13.409864,3.5 13.1421274,3.5 C12.8034299,3.5 12.4227208,3.5 12,3.5 L12,20 L18.3636364,20 C20.3719445,20 22,18.4081236 22,16.4444444 L22,9.55555556 C22,7.33333333 21,6 18.8181818,6 Z M7,12.5 C7,15.26 9.24,17.5 12,17.5 C14.76,17.5 17,15.26 17,12.5 C17,9.74 14.76,7.5 12,7.5 C9.24,7.5 7,9.74 7,12.5 Z M8.60000038,12.5000062 C8.60000038,10.6220374 10.1220317,9.1000061 12.0000005,9.1000061 C13.8779693,9.1000061 15.4000006,10.6220374 15.4000006,12.5000062 C15.4000006,14.377975 13.8779693,15.9000063 12.0000005,15.9000063 C10.1220317,15.9000063 8.60000038,14.377975 8.60000038,12.5000062 Z" id="path-1"></path>
    </defs>
    <g id="Artboard" stroke="none" stroke-width="1" fill="none" fill-rule="evenodd" transform="translate(-692.000000, -173.000000)">
        <g id="camera_24" transform="translate(692.000000, 173.000000)">
            <rect id="Mask" opacity="0.4" x="0" y="0" width="24" height="24"></rect>
            <mask id="mask-2" fill="white">
                <use xlink:href="#path-1"></use>
            </mask>
            <use id="Mask" fill="#FFFFFF" xlink:href="#path-1"></use>
        </g>
    </g>
</svg>