<?xml version="1.0" encoding="UTF-8"?>
<svg width="24px" height="24px" viewBox="0 0 24 24" version="1.1" xmlns="http://www.w3.org/2000/svg" xmlns:xlink="http://www.w3.org/1999/xlink">
    <!-- Generator: Sketch 48.1 (47250) - http://www.bohemiancoding.com/sketch -->
    <title>favorite_24</title>
    <desc>Created with Sketch.</desc>
    <defs>
        <path d="M12.0076207,17.5223681 L7.25648306,20.4243447 C6.90122518,20.6413349 6.43732648,20.5292468 6.22033633,20.1739889 C6.1165311,20.0040382 6.08420094,19.7999135 6.13040792,19.6062033 L7.42216943,14.1908428 L3.19404339,10.5690025 C2.87789277,10.2981858 2.84114235,9.82235479 3.11195903,9.50620417 C3.24151415,9.35496189 3.42565766,9.26113608 3.62416582,9.24522177 L9.17365595,8.80032155 L11.311668,3.65992453 C11.471534,3.27556046 11.9127197,3.09356886 12.2970838,3.25343492 C12.4809585,3.32991273 12.6270956,3.47604984 12.7035734,3.65992453 L14.8415854,8.80032155 L20.3910755,9.24522177 C20.8060288,9.27848839 21.115447,9.64184242 21.0821804,10.0567957 C21.066266,10.2553039 20.9724402,10.4394474 20.821198,10.5690025 L16.5930719,14.1908428 L17.8848334,19.6062033 C17.9814226,20.0111272 17.7314679,20.417684 17.3265439,20.5142731 C17.1328336,20.5604801 16.928709,20.52815 16.7587583,20.4243447 L12.0076207,17.5223681 Z" id="path-1"></path>
    </defs>
    <g id="Artboard" stroke="none" stroke-width="1" fill="none" fill-rule="evenodd" transform="translate(-452.000000, -221.000000)">
        <g id="favorite_24" transform="translate(452.000000, 221.000000)">
            <rect id="Mask" x="0" y="0" width="24" height="24"></rect>
            <mask id="mask-2" fill="white">
                <use xlink:href="#path-1"></use>
            </mask>
            <use id="Mask" fill="#FFFFFF" xlink:href="#path-1"></use>
        </g>
    </g>
</svg>