<?xml version="1.0" encoding="UTF-8"?>
<svg width="24px" height="24px" viewBox="0 0 24 24" version="1.1" xmlns="http://www.w3.org/2000/svg" xmlns:xlink="http://www.w3.org/1999/xlink">
    <!-- Generator: Sketch 48.1 (47250) - http://www.bohemiancoding.com/sketch -->
    <title>favorite_outline_24</title>
    <desc>Created with Sketch.</desc>
    <defs>
        <path d="M12.0148479,4.14245394 L9.61322103,9.82583932 L4.10928865,10.3679384 L8.48151958,14.0976916 L6.95774174,19.8018956 L12.0149982,16.1353283 L17.0722546,19.8018956 L15.5484768,14.0976916 L19.9206739,10.3679672 L14.4154306,9.82584006 L12.0148479,4.14245394 Z M8.57865788,8.4204785 L10.8634795,3.01350964 C11.1321962,2.37759876 11.8655418,2.07992908 12.5014527,2.3486458 C12.8012192,2.47531808 13.0397668,2.7139029 13.1663924,3.0136892 L15.4501442,8.42047776 L20.6525246,8.93278063 C21.3395574,9.00043598 21.8416621,9.61223161 21.7740067,10.2992644 C21.7423243,10.6209958 21.5872241,10.91794 21.3412697,11.1277526 L17.2418725,14.6247637 L18.7031298,20.0949247 C18.8812988,20.7618933 18.4850484,21.4470127 17.8180797,21.6251817 C17.4544745,21.7223124 17.0664588,21.6504463 16.7617595,21.4295358 L12.0149982,17.988081 L7.2682369,21.4295358 C6.70932049,21.8347565 5.92773298,21.7101614 5.52251235,21.151245 C5.30160191,20.8465456 5.22973578,20.4585299 5.32686652,20.0949247 L6.78812391,14.6247637 L2.68870413,11.1277333 C2.1634874,10.6796946 2.10092227,9.89071517 2.548961,9.36549844 C2.7587685,9.11955005 3.05570355,8.9644511 3.37742657,8.93276362 L8.57865788,8.4204785 Z" id="path-1"></path>
    </defs>
    <g id="Artboard" stroke="none" stroke-width="1" fill="none" fill-rule="evenodd" transform="translate(-452.000000, -799.000000)">
        <g id="favorite_outline_24" transform="translate(452.000000, 799.000000)">
            <rect id="Mask" x="0" y="0" width="24" height="24"></rect>
            <mask id="mask-2" fill="white">
                <use xlink:href="#path-1"></use>
            </mask>
            <use id="Mask" fill="#FFFFFF" fill-rule="nonzero" xlink:href="#path-1"></use>
        </g>
    </g>
</svg>