<?xml version="1.0" encoding="UTF-8"?>
<svg width="24px" height="24px" viewBox="0 0 24 24" version="1.1" xmlns="http://www.w3.org/2000/svg" xmlns:xlink="http://www.w3.org/1999/xlink">
    <!-- Generator: Sketch 48.1 (47250) - http://www.bohemiancoding.com/sketch -->
    <title>forward_10_24</title>
    <desc>Created with Sketch.</desc>
    <defs>
        <path d="M4,13.1811706 C4,17.4815268 7.61737361,21 12.038608,21 C15.8815248,21 19.1171242,18.341791 19.8978348,14.822431 C19.9337094,14.6607123 19.9656963,14.4582956 19.9937956,14.215181 L19.9937701,14.215178 C20.0525848,13.7063139 19.6877477,13.2461192 19.1788835,13.1873045 C19.1435327,13.1832186 19.1079761,13.1811706 19.07239,13.1811706 L18.9826251,13.1811282 C18.4799273,13.1811282 18.055359,13.5542996 17.9908508,14.0528412 C17.9685781,14.2249723 17.9435608,14.3698096 17.915799,14.4873531 C17.3012314,17.0894291 14.8933465,19.0452927 12.038608,19.0452927 C8.72268221,19.0452927 6.00965201,16.4064377 6.00965201,13.1811706 C6.00965201,9.95590352 8.68407419,7.31704861 12,7.31704861 L12,9.57305557 C12,9.79396947 12.1790861,9.97305557 12.4,9.97305557 C12.4960761,9.97305557 12.5889425,9.93847497 12.6616195,9.87563653 L16.3790464,6.66145107 C16.5461572,6.51696262 16.5644963,6.26436147 16.4200078,6.09725062 C16.4031878,6.07779702 16.3845308,6.06001086 16.3642961,6.0441391 L12.6374014,3.12083186 C12.4635803,2.98448978 12.2121433,3.01487255 12.0758013,3.18869369 C12.0201405,3.259655 11.9900937,3.34734383 11.9905371,3.43752936 L12,5.36234127 C7.57876559,5.36234127 4,8.88081448 4,13.1811706 Z M10.0014518,15.5951177 L10.0014518,12.4893397 L9.25739097,12.7064551 C9.10779492,12.7501069 8.95113658,12.6642221 8.90748477,12.5146261 C8.8999921,12.4889485 8.89618867,12.4623359 8.89618867,12.4355875 L8.89618867,12.3503646 C8.89618867,12.1768688 9.00803291,12.0231535 9.17311171,11.9697702 L10.6038808,11.5070867 C10.7615282,11.4561066 10.9306542,11.5425774 10.9816343,11.7002248 C10.9912776,11.7300449 10.9961886,11.7611919 10.9961886,11.7925325 L10.9961886,15.5951177 C10.9961886,15.8160316 10.8171025,15.9951177 10.5961886,15.9951177 L10.4014518,15.9951177 C10.1805379,15.9951177 10.0014518,15.8160316 10.0014518,15.5951177 Z M13.7499988,15.9987787 C12.7835027,15.9987787 11.9983073,15.4407477 12.0000027,13.7487787 C12.0016982,12.0568097 12.7835027,11.4987787 13.7499988,11.4987787 C14.7164949,11.4987787 15.5023261,12.0568097 15.4999948,13.7487787 C15.4976636,15.4407477 14.7164949,15.9987787 13.7499988,15.9987787 Z M13.75,15.3999878 C14.2364089,15.3999878 14.5,14.9902273 14.5,13.7499878 C14.5,12.5097484 14.2320774,12.0999879 13.75,12.0999879 C13.2679226,12.0999879 13,12.5102759 13,13.7499878 C13,14.9896998 13.2635911,15.3999878 13.75,15.3999878 Z" id="path-1"></path>
    </defs>
    <g id="Artboard" stroke="none" stroke-width="1" fill="none" fill-rule="evenodd" transform="translate(-788.000000, -655.000000)">
        <g id="forward_10_24" transform="translate(788.000000, 655.000000)">
            <polygon id="Mask" points="24 24 0 24 0 0 24 0"></polygon>
            <mask id="mask-2" fill="white">
                <use xlink:href="#path-1"></use>
            </mask>
            <use id="Mask" fill="#FFFFFF" fill-rule="nonzero" xlink:href="#path-1"></use>
        </g>
    </g>
</svg>