<?xml version="1.0" encoding="UTF-8"?>
<svg width="24px" height="24px" viewBox="0 0 24 24" version="1.1" xmlns="http://www.w3.org/2000/svg" xmlns:xlink="http://www.w3.org/1999/xlink">
    <!-- Generator: Sketch 48.1 (47250) - http://www.bohemiancoding.com/sketch -->
    <title>forward_24</title>
    <desc>Created with Sketch.</desc>
    <defs>
        <path d="M13.0010787,15 L4,15 C3.44771525,15 3,14.5522847 3,14 L3,10 C3,9.44771525 3.44771525,9 4,9 L13.0010787,9 L13.0010787,4.99464082 C13.0010787,4.77372692 13.1801648,4.59464082 13.4010787,4.59464082 C13.5032117,4.59464082 13.6014761,4.63370866 13.6757281,4.70383556 L21.0931673,11.7091947 C21.2537746,11.8608794 21.2610078,12.1140421 21.1093231,12.2746494 C21.1040928,12.2801874 21.0987053,12.2855749 21.0931673,12.2908053 L13.6757281,19.2961644 C13.5151208,19.4478491 13.2619582,19.4406159 13.1102735,19.2800086 C13.0401466,19.2057566 13.0010787,19.1074922 13.0010787,19.0053592 L13.0010787,15 Z" id="path-1"></path>
    </defs>
    <g id="Artboard" stroke="none" stroke-width="1" fill="none" fill-rule="evenodd" transform="translate(-836.000000, -269.000000)">
        <g id="forward_24" transform="translate(836.000000, 269.000000)">
            <polygon id="Mask" opacity="0.4" points="0 0 24 0 24 24 0 24"></polygon>
            <mask id="mask-2" fill="white">
                <use xlink:href="#path-1"></use>
            </mask>
            <use id="Mask" fill="#FFFFFF" xlink:href="#path-1"></use>
        </g>
    </g>
</svg>