<?xml version="1.0" encoding="UTF-8"?>
<svg width="24px" height="24px" viewBox="0 0 24 24" version="1.1" xmlns="http://www.w3.org/2000/svg" xmlns:xlink="http://www.w3.org/1999/xlink">
    <!-- Generator: Sketch 48.1 (47250) - http://www.bohemiancoding.com/sketch -->
    <title>fullscreen_24</title>
    <desc>Created with Sketch.</desc>
    <defs>
        <path d="M13.5,19 L13.5,19 C13.5,18.4477153 13.9477153,18 14.5,18 L16.5715,18 L13.2071068,14.6370995 C12.8165109,14.2466468 12.8163948,13.6134818 13.2068475,13.2228859 C13.2068907,13.2228427 13.2069339,13.2227995 13.2069772,13.2227563 L13.2227563,13.2069772 C13.6132806,12.8164529 14.2464455,12.8164529 14.6369698,13.2069772 C14.637013,13.2070204 14.6370563,13.2070636 14.6370995,13.2071068 L18,16.5715 L18,14.5 C18,13.9477153 18.4477153,13.5 19,13.5 L19,13.5 C19.5522847,13.5 20,13.9477153 20,14.5 L20,19 C20,19.5522847 19.5522847,20 19,20 L14.5,20 C13.9477153,20 13.5,19.5522847 13.5,19 Z M6,7.4285 L6,9.5 C6,10.0522847 5.55228475,10.5 5,10.5 L5,10.5 C4.44771525,10.5 4,10.0522847 4,9.5 L4,5 C4,4.44771525 4.44771525,4 5,4 L9.5,4 C10.0522847,4 10.5,4.44771525 10.5,5 L10.5,5 C10.5,5.55228475 10.0522847,6 9.5,6 L7.4285,6 L10.7928932,9.36290054 C11.1834891,9.75335323 11.1836052,10.3865182 10.7931525,10.7771141 C10.7931093,10.7771573 10.7930661,10.7772005 10.7930228,10.7772437 L10.7772437,10.7930228 C10.3867194,11.1835471 9.75355446,11.1835471 9.36303017,10.7930228 C9.36298696,10.7929796 9.36294375,10.7929364 9.36290054,10.7928932 L6,7.4285 Z" id="path-1"></path>
    </defs>
    <g id="Artboard" stroke="none" stroke-width="1" fill="none" fill-rule="evenodd" transform="translate(-596.000000, -655.000000)">
        <g id="fullscreen_24" transform="translate(596.000000, 655.000000)">
            <polygon id="Mask" opacity="0.4" points="0 0 24 0 24 24 0 24"></polygon>
            <mask id="mask-2" fill="white">
                <use xlink:href="#path-1"></use>
            </mask>
            <use id="Mask" fill="#FFFFFF" transform="translate(12.000000, 12.000000) scale(-1, 1) translate(-12.000000, -12.000000) " xlink:href="#path-1"></use>
        </g>
    </g>
</svg>