<?xml version="1.0" encoding="UTF-8"?>
<svg width="24px" height="24px" viewBox="0 0 24 24" version="1.1" xmlns="http://www.w3.org/2000/svg" xmlns:xlink="http://www.w3.org/1999/xlink">
    <!-- Generator: Sketch 48.1 (47250) - http://www.bohemiancoding.com/sketch -->
    <title>game_24</title>
    <desc>Created with Sketch.</desc>
    <defs>
        <path d="M8,10 L8,8.75 C8,8.47385763 7.77614237,8.25 7.5,8.25 L7.25,8.25 C6.97385763,8.25 6.75,8.47385763 6.75,8.75 L6.75,10 L5.5,10 C5.22385763,10 5,10.2238576 5,10.5 L5,10.75 C5,11.0261424 5.22385763,11.25 5.5,11.25 L6.75,11.25 L6.75,12.5 C6.75,12.7761424 6.97385763,13 7.25,13 L7.5,13 C7.77614237,13 8,12.7761424 8,12.5 L8,11.25 L9.25,11.25 C9.52614237,11.25 9.75,11.0261424 9.75,10.75 L9.75,10.5 C9.75,10.2238576 9.52614237,10 9.25,10 L8,10 Z M15.5,15.5 C14.1875,15.5 9.80823626,15.5 8.49573626,15.5 C7.18323626,15.5 5.5,20 3.68323626,20 C1.93323626,20 1.49573626,19.125 1.49573626,16.5 C1.49573626,13.875 1.93323626,6 6.74573626,6 L17.2457363,6 C22.0582363,6 22.4957363,13.875 22.4957363,16.5 C22.4957363,19.125 22.0582363,20 20.3082363,20 C18.5,20 16.8125,15.5 15.5,15.5 Z M14.75,10 C14.4738576,10 14.25,10.2238576 14.25,10.5 L14.25,10.75 C14.25,11.0261424 14.4738576,11.25 14.75,11.25 L15,11.25 C15.2761424,11.25 15.5,11.0261424 15.5,10.75 L15.5,10.5 C15.5,10.2238576 15.2761424,10 15,10 L14.75,10 Z M18.25,10 C17.9738576,10 17.75,10.2238576 17.75,10.5 L17.75,10.75 C17.75,11.0261424 17.9738576,11.25 18.25,11.25 L18.5,11.25 C18.7761424,11.25 19,11.0261424 19,10.75 L19,10.5 C19,10.2238576 18.7761424,10 18.5,10 L18.25,10 Z M16.5,11.75 C16.2238576,11.75 16,11.9738576 16,12.25 L16,12.5 C16,12.7761424 16.2238576,13 16.5,13 L16.75,13 C17.0261424,13 17.25,12.7761424 17.25,12.5 L17.25,12.25 C17.25,11.9738576 17.0261424,11.75 16.75,11.75 L16.5,11.75 Z M16.5,8.25 C16.2238576,8.25 16,8.47385763 16,8.75 L16,9 C16,9.27614237 16.2238576,9.5 16.5,9.5 L16.75,9.5 C17.0261424,9.5 17.25,9.27614237 17.25,9 L17.25,8.75 C17.25,8.47385763 17.0261424,8.25 16.75,8.25 L16.5,8.25 Z" id="path-1"></path>
    </defs>
    <g id="Artboard" stroke="none" stroke-width="1" fill="none" fill-rule="evenodd" transform="translate(-836.000000, -173.000000)">
        <g id="game_24" transform="translate(836.000000, 173.000000)">
            <polygon id="Mask" opacity="0.4" points="0 0 24 0 24 24 0 24"></polygon>
            <mask id="mask-2" fill="white">
                <use xlink:href="#path-1"></use>
            </mask>
            <use id="Mask" fill="#FFFFFF" xlink:href="#path-1"></use>
        </g>
    </g>
</svg>