<?xml version="1.0" encoding="UTF-8"?>
<svg width="24px" height="24px" viewBox="0 0 24 24" version="1.1" xmlns="http://www.w3.org/2000/svg" xmlns:xlink="http://www.w3.org/1999/xlink">
    <!-- Generator: Sketch 48.1 (47250) - http://www.bohemiancoding.com/sketch -->
    <title>help_24</title>
    <desc>Created with Sketch.</desc>
    <defs>
        <path d="M2,12 C2,17.52 6.48,22 12,22 C17.52,22 22,17.52 22,12 C22,6.48 17.52,2 12,2 C6.48,2 2,6.48 2,12 Z M10.75,18.25 L10.75,17.75 C10.75,17.1977153 11.1977153,16.75 11.75,16.75 L12.25,16.75 C12.8022847,16.75 13.25,17.1977153 13.25,17.75 L13.25,18.25 C13.25,18.8022847 12.8022847,19.25 12.25,19.25 L11.75,19.25 C11.1977153,19.25 10.75,18.8022847 10.75,18.25 Z M14.17,12.17 C13.6347477,12.7126864 13.2487115,13.183528 13.0858437,14.0056952 C13.0783353,14.0435982 13.0711826,14.0872108 13.0643856,14.1365332 L13.0643691,14.1365309 C12.9961758,14.6313781 12.5732717,15 12.0737478,15 L12,15 C11.4711303,15 11.0423967,14.5712664 11.0423967,14.0423967 C11.0423967,14.0152822 11.0435484,13.9881799 11.0458485,13.9611631 C11.0541927,13.8635288 11.0632094,13.7896716 11.0729302,13.7395943 C11.2276181,12.9427095 11.6200463,12.227592 12.17,11.67 L13.41,10.41 C13.78,10.05 14,9.55 14,9 C14,7.9 13.1,7 12,7 C11.3010325,7 10.682818,7.36338845 10.3249501,7.9105717 C10.2616395,8.00737408 10.2044401,8.13708647 10.1533518,8.29970885 L10.1533543,8.29970963 C10.0224312,8.7164589 9.63615229,9 9.19932189,9 L9,9 C8.528414,9 8.14611802,8.61770402 8.14611802,8.14611802 C8.14611802,8.08264358 8.15319564,8.01936704 8.16721969,7.95746121 C8.22771348,7.69050097 8.2963479,7.4747094 8.37313912,7.31009015 C9.0097921,5.94528144 10.3939971,5 12,5 C14.21,5 16,6.79 16,9 C16,9.88 15.64,10.68 15.07,11.25 L14.17,12.17 Z" id="path-1"></path>
    </defs>
    <g id="Artboard" stroke="none" stroke-width="1" fill="none" fill-rule="evenodd" transform="translate(-692.000000, -317.000000)">
        <g id="help_24" transform="translate(692.000000, 317.000000)">
            <polygon id="Mask" points="0 0 24 0 24 24 0 24"></polygon>
            <mask id="mask-2" fill="white">
                <use xlink:href="#path-1"></use>
            </mask>
            <use id="Mask" fill="#FFFFFF" xlink:href="#path-1"></use>
        </g>
    </g>
</svg>