<?xml version="1.0" encoding="UTF-8"?>
<svg width="24px" height="24px" viewBox="0 0 24 24" version="1.1" xmlns="http://www.w3.org/2000/svg" xmlns:xlink="http://www.w3.org/1999/xlink">
    <!-- Generator: Sketch 48.1 (47250) - http://www.bohemiancoding.com/sketch -->
    <title>home_24</title>
    <desc>Created with Sketch.</desc>
    <defs>
        <path d="M10,14 L14,14 L14,20 L18,20 C18.5522847,20 19,19.5522847 19,19 L19,12 L20.6970209,12 C20.9731633,12 21.1970209,11.7761424 21.1970209,11.5 C21.1970209,11.3582567 21.1368602,11.2231742 21.0315033,11.1283529 L12.3344824,3.30103413 C12.1443299,3.12989689 11.8556701,3.12989689 11.6655176,3.30103413 L2.96849675,11.1283529 C2.76324174,11.3130824 2.74660253,11.6292274 2.93133204,11.8344824 C3.02615328,11.9398393 3.16123586,12 3.30297911,12 L5,12 L5,19 C5,19.5522847 5.44771525,20 6,20 L10,20 L10,14 Z" id="path-1"></path>
    </defs>
    <g id="Artboard" stroke="none" stroke-width="1" fill="none" fill-rule="evenodd" transform="translate(-548.000000, -557.000000)">
        <g id="home_24" transform="translate(548.000000, 557.000000)">
            <rect id="Mask" opacity="0.4" x="0" y="0" width="24" height="24"></rect>
            <mask id="mask-2" fill="white">
                <use xlink:href="#path-1"></use>
            </mask>
            <use id="Mask" fill="#FFFFFF" xlink:href="#path-1"></use>
        </g>
    </g>
</svg>