<?xml version="1.0" encoding="UTF-8"?>
<svg width="24px" height="24px" viewBox="0 0 24 24" version="1.1" xmlns="http://www.w3.org/2000/svg" xmlns:xlink="http://www.w3.org/1999/xlink">
    <!-- Generator: Sketch 48.1 (47250) - http://www.bohemiancoding.com/sketch -->
    <title>link_circle_24</title>
    <desc>Created with Sketch.</desc>
    <defs>
        <path d="M14.5,10.9142136 L9.20710678,16.2071068 C8.81658249,16.5976311 8.18341751,16.5976311 7.79289322,16.2071068 C7.40236893,15.8165825 7.40236893,15.1834175 7.79289322,14.7928932 L13.0857864,9.5 L9.5,9.5 C8.94771525,9.5 8.5,9.05228475 8.5,8.5 C8.5,7.94771525 8.94771525,7.5 9.5,7.5 L15.5,7.5 C16.0522847,7.5 16.5,7.94771525 16.5,8.5 L16.5,14.5 C16.5,15.0522847 16.0522847,15.5 15.5,15.5 C14.9477153,15.5 14.5,15.0522847 14.5,14.5 L14.5,10.9142136 Z M12,23 C5.92486775,23 1,18.0751322 1,12 C1,5.92486775 5.92486775,1 12,1 C18.0751322,1 23,5.92486775 23,12 C23,18.0751322 18.0751322,23 12,23 Z M11.999999,21.1999998 C17.0810186,21.1999998 21.1999989,17.0810196 21.1999989,12 C21.1999989,6.91898041 17.0810186,2.80000019 11.999999,2.80000019 C6.91897945,2.80000019 2.79999924,6.91898041 2.79999924,12 C2.79999924,17.0810196 6.91897945,21.1999998 11.999999,21.1999998 Z" id="path-1"></path>
    </defs>
    <g id="Artboard" stroke="none" stroke-width="1" fill="none" fill-rule="evenodd" transform="translate(-500.000000, -509.000000)">
        <g id="link_circle_24" transform="translate(500.000000, 509.000000)">
            <rect id="Mask" opacity="0.100000001" x="0" y="0" width="24" height="24"></rect>
            <mask id="mask-2" fill="white">
                <use xlink:href="#path-1"></use>
            </mask>
            <use id="Mask" fill="#FFFFFF" xlink:href="#path-1"></use>
        </g>
    </g>
</svg>