<?xml version="1.0" encoding="UTF-8"?>
<svg width="24px" height="24px" viewBox="0 0 24 24" version="1.1" xmlns="http://www.w3.org/2000/svg" xmlns:xlink="http://www.w3.org/1999/xlink">
    <!-- Generator: Sketch 48.1 (47250) - http://www.bohemiancoding.com/sketch -->
    <title>message_24</title>
    <desc>Created with Sketch.</desc>
    <defs>
        <path d="M9.22993651,19.1995131 C8.17869302,20.1342793 6.42707869,20.9089632 3.97509352,21.5235648 C3.86927477,21.5500887 3.75732352,21.5352498 3.66206878,21.4820741 C3.45544923,21.3667291 3.38145656,21.1057253 3.49680151,20.8991058 L3.496709,20.8990541 C4.39110653,19.2969033 4.92218774,18.0144727 5.08995261,17.0517622 C3.48628399,15.6131029 2.5,13.6561661 2.5,11.5 C2.5,7.081722 6.64136606,3.5 11.75,3.5 C16.8586339,3.5 21,7.081722 21,11.5 C21,15.918278 16.8586339,19.5 11.75,19.5 C10.8764028,19.5 10.0310909,19.3952619 9.22993651,19.1995131 Z" id="path-1"></path>
    </defs>
    <g id="Artboard" stroke="none" stroke-width="1" fill="none" fill-rule="evenodd" transform="translate(-548.000000, -173.000000)">
        <g id="message_24" transform="translate(548.000000, 173.000000)">
            <rect id="Mask" opacity="0.1" x="0" y="0" width="24" height="24"></rect>
            <mask id="mask-2" fill="white">
                <use xlink:href="#path-1"></use>
            </mask>
            <use id="Mask" fill="#FFFFFF" xlink:href="#path-1"></use>
        </g>
    </g>
</svg>