<?xml version="1.0" encoding="UTF-8"?>
<svg width="24px" height="24px" viewBox="0 0 24 24" version="1.1" xmlns="http://www.w3.org/2000/svg" xmlns:xlink="http://www.w3.org/1999/xlink">
    <!-- Generator: Sketch 48.1 (47250) - http://www.bohemiancoding.com/sketch -->
    <title>notification_24</title>
    <desc>Created with Sketch.</desc>
    <defs>
        <path d="M12.0014289,22.5 C10.3087205,22.5 9.00142888,21.625 9.00142888,20 L15.0014289,20 C15.0014289,21.625 13.6941373,22.5 12.0014289,22.5 Z M17.9953857,14.709647 C17.9953857,16.4239328 20.1428571,16.8525042 20.1428571,17.709647 C20.1428571,18.5667899 19.7142857,18.9953613 18,18.9953613 L6,18.9953613 C4.28571429,18.9953613 3.85714286,18.5667899 3.85714286,17.709647 C3.85714286,16.8525042 6,16.4239328 6,14.709647 L6,11.709647 C6,7.42393276 7.71428571,3.85714286 11.1428571,3.85714286 C11.1428571,3.21428571 11.5714286,3 12,3 C12.4285714,3 12.8571429,3.21428571 12.8571429,3.85714286 C16.2857143,3.85714286 17.9953857,7.42393276 17.9953857,11.709647 L17.9953857,14.709647 Z" id="path-1"></path>
    </defs>
    <g id="Artboard" stroke="none" stroke-width="1" fill="none" fill-rule="evenodd" transform="translate(-500.000000, -173.000000)">
        <g id="notification_24" transform="translate(500.000000, 173.000000)">
            <rect id="Mask" opacity="0.4" x="0" y="0" width="24" height="24"></rect>
            <mask id="mask-2" fill="white">
                <use xlink:href="#path-1"></use>
            </mask>
            <use id="Mask" fill="#FFFFFF" fill-rule="nonzero" xlink:href="#path-1"></use>
        </g>
    </g>
</svg>