<?xml version="1.0" encoding="UTF-8"?>
<svg width="24px" height="24px" viewBox="0 0 24 24" version="1.1" xmlns="http://www.w3.org/2000/svg" xmlns:xlink="http://www.w3.org/1999/xlink">
    <!-- Generator: Sketch 48.1 (47250) - http://www.bohemiancoding.com/sketch -->
    <title>open_in_24</title>
    <desc>Created with Sketch.</desc>
    <defs>
        <path d="M3,7 L3,17 C3,18.6568542 4.34314575,20 6,20 L8,20 C8.55228475,20 9,19.5522847 9,19 L9,19 C9,18.4477153 8.55228475,18 8,18 L6,18 C5.44771525,18 5,17.5522847 5,17 L5,9 C5,8.44771525 5.44771525,8 6,8 L18,8 C18.5522847,8 19,8.44771525 19,9 L19,17 C19,17.5522847 18.5522847,18 18,18 L16,18 C15.4477153,18 15,18.4477153 15,19 L15,19 C15,19.5522847 15.4477153,20 16,20 L18,20 C19.6568542,20 21,18.6568542 21,17 L21,7 C21,5.34314575 19.6568542,4 18,4 L6,4 C4.34314575,4 3,5.34314575 3,7 Z M11.6464466,10.3535534 L8.85355339,13.1464466 C8.65829124,13.3417088 8.65829124,13.6582912 8.85355339,13.8535534 C8.94732158,13.9473216 9.07449854,14 9.20710678,14 L11,14 L11,19 C11,19.5522847 11.4477153,20 12,20 L12,20 C12.5522847,20 13,19.5522847 13,19 L13,14 L14.7928932,14 C15.0690356,14 15.2928932,13.7761424 15.2928932,13.5 C15.2928932,13.3673918 15.2402148,13.2402148 15.1464466,13.1464466 L12.3535534,10.3535534 C12.1582912,10.1582912 11.8417088,10.1582912 11.6464466,10.3535534 Z" id="path-1"></path>
    </defs>
    <g id="Artboard" stroke="none" stroke-width="1" fill="none" fill-rule="evenodd" transform="translate(-596.000000, -365.000000)">
        <g id="open_in_24" transform="translate(596.000000, 365.000000)">
            <polygon id="Mask" points="0 0 24 0 24 24 0 24"></polygon>
            <mask id="mask-2" fill="white">
                <use xlink:href="#path-1"></use>
            </mask>
            <use id="Mask" fill="#FFFFFF" fill-rule="nonzero" xlink:href="#path-1"></use>
        </g>
    </g>
</svg>