<?xml version="1.0" encoding="UTF-8"?>
<svg width="24px" height="24px" viewBox="0 0 24 24" version="1.1" xmlns="http://www.w3.org/2000/svg" xmlns:xlink="http://www.w3.org/1999/xlink">
    <!-- Generator: Sketch 48.1 (47250) - http://www.bohemiancoding.com/sketch -->
    <title>pause_24</title>
    <desc>Created with Sketch.</desc>
    <defs>
        <path d="M6.20600005,4 L8.79399995,4 C9.46005539,4 10,4.53994461 10,5.20600005 L10,18.794 C10,19.4600554 9.46005539,20 8.79399995,20 L6.20600005,20 C5.53994461,20 5,19.4600554 5,18.794 L5,5.20600005 C5,4.53994461 5.53994461,4 6.20600005,4 Z M14.206,4 L16.794,4 C17.4600554,4 18,4.53994461 18,5.20600005 L18,18.794 C18,19.4600554 17.4600554,20 16.794,20 L14.206,20 C13.5399446,20 13,19.4600554 13,18.794 L13,5.20600005 C13,4.53994461 13.5399446,4 14.206,4 Z" id="path-1"></path>
    </defs>
    <g id="Artboard" stroke="none" stroke-width="1" fill="none" fill-rule="evenodd" transform="translate(-500.000000, -607.000000)">
        <g id="pause_24" transform="translate(500.000000, 607.000000)">
            <rect id="Mask" opacity="0.4" x="0" y="0" width="24" height="24"></rect>
            <mask id="mask-2" fill="white">
                <use xlink:href="#path-1"></use>
            </mask>
            <use id="Mask" fill="#FFFFFF" xlink:href="#path-1"></use>
        </g>
    </g>
</svg>