<?xml version="1.0" encoding="UTF-8"?>
<svg width="24px" height="24px" viewBox="0 0 24 24" version="1.1" xmlns="http://www.w3.org/2000/svg" xmlns:xlink="http://www.w3.org/1999/xlink">
    <!-- Generator: Sketch 48.1 (47250) - http://www.bohemiancoding.com/sketch -->
    <title>playlist_24</title>
    <desc>Created with Sketch.</desc>
    <defs>
        <path d="M13,6.88305092 C13,6.39535536 12.6085042,6 12.1184183,6 L2.88158174,6 C2.39469759,6 2,6.40472984 2,6.88305092 L2,7.11694908 C2,7.60464464 2.39149582,8 2.88158174,8 L12.1184183,8 C12.6053024,8 13,7.59527016 13,7.11694908 L13,6.88305092 Z M13,10.8830509 C13,10.3953554 12.6085042,10 12.1184183,10 L2.88158174,10 C2.39469759,10 2,10.4047298 2,10.8830509 L2,11.1169491 C2,11.6046446 2.39149582,12 2.88158174,12 L12.1184183,12 C12.6053024,12 13,11.5952702 13,11.1169491 L13,10.8830509 Z M2,15.1169491 L2,14.8830509 C2,14.4047298 2.39619612,14 2.88492881,14 L7.11241553,14 C7.60384183,14 7.99734434,14.3953554 7.99734434,14.8830509 L7.99734434,15.1169491 C7.99734434,15.5952702 7.60114822,16 7.11241553,16 L2.88492881,16 C2.39350251,16 2,15.6046446 2,15.1169491 Z M17.0042598,15.8112394 C17.0042598,19.5632254 16.0111381,20.4645602 13.2275053,20.9526004 C11.7488755,21.2118411 10.0047523,20.4739722 10.0047523,18.1421919 C10.0047523,17.0031664 10.717475,15.9215137 12.1924348,15.6388592 C13.3188618,15.4229958 11.7715084,15.691258 14.3198226,15.2181619 C14.9384672,15.1033102 15.0085704,14.8819575 15.0085704,14.4103477 C15.0085704,14.1735394 15.0031388,13.9818209 14.9957453,12.5605854 L14.9957453,8.72252841 C14.9957453,8.72252841 14.9909044,6.89295327 14.9957453,5.978175 C15.0015352,4.88407289 15.8285034,4.48198093 17.592189,4.12575208 C17.592189,4.12575208 19.9415705,3.78701847 21.4189162,3.51906107 C21.7458345,3.45976542 21.995416,3.58144377 21.995416,3.95641733 L21.995416,7.39876984 C21.995416,7.76848647 21.8457058,7.93583742 21.4709972,8.00234519 C19.9761539,8.26766786 17.4845344,8.6507218 17.4845344,8.6507218 C17.1521972,8.73234632 17,8.96627698 17,9.30253652 L17.0042598,15.8112394 Z" id="path-1"></path>
    </defs>
    <g id="Artboard" stroke="none" stroke-width="1" fill="none" fill-rule="evenodd" transform="translate(-692.000000, -607.000000)">
        <g id="playlist_24" transform="translate(692.000000, 607.000000)">
            <polygon id="Mask" points="0 0 24 0 24 24 0 24"></polygon>
            <mask id="mask-2" fill="white">
                <use xlink:href="#path-1"></use>
            </mask>
            <use id="Mask" fill="#FFFFFF" xlink:href="#path-1"></use>
        </g>
    </g>
</svg>