<?xml version="1.0" encoding="UTF-8"?>
<svg width="24px" height="24px" viewBox="0 0 24 24" version="1.1" xmlns="http://www.w3.org/2000/svg" xmlns:xlink="http://www.w3.org/1999/xlink">
    <!-- Generator: Sketch 48.1 (47250) - http://www.bohemiancoding.com/sketch -->
    <title>recent_24</title>
    <desc>Created with Sketch.</desc>
    <defs>
        <path d="M12,21.9999231 C6.47692308,21.9999231 2,17.523 2,11.9999231 C2,6.47684615 6.47692308,1.99992308 12,1.99992308 C17.5215385,1.99992308 22,6.47684615 22,11.9999231 C22,17.523 17.5215385,21.9999231 12,21.9999231 Z M12,19.9999231 C16.4172308,19.9999231 20,16.4183846 20,11.9999231 C20,7.58146154 16.4172308,3.99992308 12,3.99992308 C7.58153846,3.99992308 4,7.58146154 4,11.9999231 C4,16.4183846 7.58153846,19.9999231 12,19.9999231 Z M10.3388462,12.5799231 L10.3388462,8.04607692 C10.3388462,7.49379217 10.7865614,7.04607692 11.3388462,7.04607692 C11.8911309,7.04607692 12.3388462,7.49379217 12.3388462,8.04607692 L12.3388462,11.8800049 L16.0995012,13.135804 C16.6226231,13.3128969 16.9031351,13.8805331 16.7260422,14.4036551 C16.5489493,14.926777 15.981313,15.2072889 15.4581911,15.030196 L11.0181911,13.5271191 C10.6121168,13.3896504 10.3388462,13.0086351 10.3388462,12.5799231 Z" id="path-1"></path>
    </defs>
    <g id="Artboard" stroke="none" stroke-width="1" fill="none" fill-rule="evenodd" transform="translate(-500.000000, -365.000000)">
        <g id="recent_24" transform="translate(500.000000, 365.000000)">
            <polygon id="Mask" points="0 0 24 0 24 24 0 24"></polygon>
            <mask id="mask-2" fill="white">
                <use xlink:href="#path-1"></use>
            </mask>
            <use id="Mask" fill="#FFFFFF" xlink:href="#path-1"></use>
        </g>
    </g>
</svg>