<?xml version="1.0" encoding="UTF-8"?>
<svg width="24px" height="24px" viewBox="0 0 24 24" version="1.1" xmlns="http://www.w3.org/2000/svg" xmlns:xlink="http://www.w3.org/1999/xlink">
    <!-- Generator: Sketch 48.1 (47250) - http://www.bohemiancoding.com/sketch -->
    <title>reply_outline_24</title>
    <desc>Created with Sketch.</desc>
    <defs>
        <path d="M10.8506543,18.2684927 C10.8506543,18.5715765 10.7338922,18.8630104 10.5246242,19.0822517 C10.0751975,19.5530973 9.3291694,19.5704608 8.8583238,19.1210341 L1.61298481,12.2052874 C1.12477576,11.6956595 1.1421392,10.9496314 1.61298481,10.5002046 L8.8583238,3.584458 C9.07756508,3.37519006 9.36899901,3.25842796 9.67208285,3.25842796 C10.3229899,3.25842796 10.8506543,3.78609236 10.8506543,4.43699939 L10.8506543,7.32040895 C17.0765605,8.42213468 20.9566149,12.1778321 22.564822,17.7906497 C22.5934292,17.8904921 22.6424317,18.0852397 22.7153692,18.3874777 C22.8147075,18.7991152 22.6672847,19.2310881 22.3370173,19.4961108 C21.8664031,19.8737547 21.1788283,19.7984642 20.8007454,19.3278028 C20.6437383,19.1321428 20.5375993,19.0038695 20.493066,18.9548406 C18.3330664,16.5767907 15.3255413,15.4973216 10.8506543,15.3914527 L10.8506543,18.2684927 Z M9.35065428,5.18815582 L2.89227052,11.352746 L9.35065428,17.5173362 L9.35065428,13.8827656 L10.1006543,13.8827656 C14.8382077,13.8827656 18.2406539,14.8461379 20.7720058,17.1186902 C19.0933991,12.4847126 15.5675499,9.50535716 9.993657,8.70195086 L9.35065428,8.60927013 L9.35065428,5.18815582 Z" id="path-1"></path>
    </defs>
    <g id="Artboard" stroke="none" stroke-width="1" fill="none" fill-rule="evenodd" transform="translate(-836.000000, -751.000000)">
        <g id="reply_outline_24" transform="translate(836.000000, 751.000000)">
            <polygon id="Mask" opacity="0.4" points="0 0 24 0 24 24 0 24"></polygon>
            <mask id="mask-2" fill="white">
                <use xlink:href="#path-1"></use>
            </mask>
            <use id="Mask" fill="#FFFFFF" fill-rule="nonzero" transform="translate(11.999607, 11.497518) scale(-1, 1) translate(-11.999607, -11.497518) " xlink:href="#path-1"></use>
        </g>
    </g>
</svg>