<?xml version="1.0" encoding="UTF-8"?>
<svg width="24px" height="24px" viewBox="0 0 24 24" version="1.1" xmlns="http://www.w3.org/2000/svg" xmlns:xlink="http://www.w3.org/1999/xlink">
    <!-- Generator: Sketch 48.1 (47250) - http://www.bohemiancoding.com/sketch -->
    <title>reply_24</title>
    <desc>Created with Sketch.</desc>
    <defs>
        <path d="M10.1597586,4.3704512 L2.98795967,11.1438168 C2.78720053,11.3334227 2.778159,11.6498761 2.96776486,11.8506352 C2.9743028,11.8575577 2.98103715,11.8642921 2.98795967,11.87083 L10.1597586,18.6441956 C10.3605177,18.8338015 10.6769711,18.82476 10.8665769,18.6240008 C10.9542356,18.5311858 11.0030704,18.4083553 11.0030704,18.2806891 L11.0030704,14.7939901 C15.8397832,14.7939901 19.4829698,15.7798683 22.0897484,18.6195358 C22.1297708,18.6631338 22.1949939,18.7397543 22.2854177,18.8493975 L22.2855069,18.8493239 C22.4260227,19.019706 22.6780553,19.0439174 22.8484374,18.9034016 C22.9672995,18.8053747 23.0192736,18.647781 22.9820469,18.4982764 C22.9418076,18.3366729 22.9129428,18.2256718 22.8954527,18.165273 C21.4734448,13.2546452 17.9736385,9.10144807 11.0030704,8.10732342 L11.0030704,4.73395778 C11.0030704,4.4578154 10.7792127,4.23395778 10.5030704,4.23395778 C10.3754041,4.23395778 10.2525736,4.28279258 10.1597586,4.3704512 Z" id="path-1"></path>
    </defs>
    <g id="Artboard" stroke="none" stroke-width="1" fill="none" fill-rule="evenodd" transform="translate(-692.000000, -461.000000)">
        <g id="reply_24" transform="translate(692.000000, 461.000000)">
            <polygon id="Mask" opacity="0.4" points="0 0 24 0 24 24 0 24"></polygon>
            <mask id="mask-2" fill="white">
                <use xlink:href="#path-1"></use>
            </mask>
            <use id="Mask" fill="#FFFFFF" xlink:href="#path-1"></use>
        </g>
    </g>
</svg>