<?xml version="1.0" encoding="UTF-8"?>
<svg width="24px" height="24px" viewBox="0 0 24 24" version="1.1" xmlns="http://www.w3.org/2000/svg" xmlns:xlink="http://www.w3.org/1999/xlink">
    <!-- Generator: Sketch 48.1 (47250) - http://www.bohemiancoding.com/sketch -->
    <title>replay_24</title>
    <desc>Created with Sketch.</desc>
    <defs>
        <path d="M12,5 C16.418278,5 20,8.581722 20,13 C20,17.418278 16.418278,21 12,21 C7.581722,21 4,17.418278 4,13 C4,12.4477153 4.44771525,12 5,12 C5.55228475,12 6,12.4477153 6,13 C6,16.3137085 8.6862915,19 12,19 C15.3137085,19 18,16.3137085 18,13 C18,9.6862915 15.3137085,7 12,7 L12,10.0957793 C12,10.1952857 11.9629113,10.2912196 11.895976,10.3648484 C11.7473732,10.5283115 11.4943939,10.5403581 11.3309309,10.3917553 L7.04262272,6.49329338 C7.02697148,6.47906498 7.01200627,6.46409977 6.99777787,6.44844853 C6.75010658,6.17601012 6.77018431,5.7543779 7.04262272,5.50670662 L11.3309309,1.60824468 C11.4045596,1.54130941 11.5004936,1.5042207 11.6,1.5042207 C11.8209139,1.5042207 12,1.68330681 12,1.90422072 L12,5 Z" id="path-1"></path>
    </defs>
    <g id="Artboard" stroke="none" stroke-width="1" fill="none" fill-rule="evenodd" transform="translate(-452.000000, -317.000000)">
        <g id="replay_24" transform="translate(452.000000, 317.000000)">
            <polygon id="Mask" points="0 0 24 0 24 24 0 24"></polygon>
            <mask id="mask-2" fill="white">
                <use xlink:href="#path-1"></use>
            </mask>
            <use id="Mask" fill="#FFFFFF" xlink:href="#path-1"></use>
        </g>
    </g>
</svg>