<?xml version="1.0" encoding="UTF-8"?>
<svg width="24px" height="24px" viewBox="0 0 24 24" version="1.1" xmlns="http://www.w3.org/2000/svg" xmlns:xlink="http://www.w3.org/1999/xlink">
    <!-- Generator: Sketch 48.1 (47250) - http://www.bohemiancoding.com/sketch -->
    <title>send_24</title>
    <desc>Created with Sketch.</desc>
    <defs>
        <path d="M5.73867831,15.7541491 C5.05303459,17.6089863 4.62217789,18.9122158 4.44610819,19.6638378 C3.89276731,22.0259885 3.49042136,22.558052 5.55278984,21.4354509 C7.61515833,20.3128499 17.5993761,14.7518703 19.8269273,13.5160071 C22.7306352,11.9050068 22.7694377,12.0308707 19.6711438,10.3203699 C17.3113869,9.01759941 7.44420418,3.60166194 5.55278988,2.53824504 C3.66137558,1.47482814 3.89276736,1.9477073 4.4461082,4.30985812 C4.62445956,5.07122038 5.06157218,6.38608773 5.75744604,8.25446018 L5.75744944,8.25445891 C6.2441466,9.56120661 7.3762377,10.5201809 8.74523206,10.7853565 L14.5097097,11.9019419 C14.5638656,11.9127731 14.5989873,11.9654556 14.5881561,12.0196116 C14.5802389,12.0591977 14.5492958,12.0901408 14.5097097,12.0980581 L8.7322368,13.2135721 C7.35880507,13.4787546 6.22367175,14.442121 5.73867831,15.7541491 Z" id="path-1"></path>
    </defs>
    <g id="Artboard" stroke="none" stroke-width="1" fill="none" fill-rule="evenodd" transform="translate(-548.000000, -413.000000)">
        <g id="send_24" transform="translate(548.000000, 413.000000)">
            <rect id="Mask" x="0" y="0" width="24" height="24"></rect>
            <mask id="mask-2" fill="white">
                <use xlink:href="#path-1"></use>
            </mask>
            <use id="Mask" fill="#FFFFFF" xlink:href="#path-1"></use>
        </g>
    </g>
</svg>