<?xml version="1.0" encoding="UTF-8"?>
<svg width="24px" height="24px" viewBox="0 0 24 24" version="1.1" xmlns="http://www.w3.org/2000/svg" xmlns:xlink="http://www.w3.org/1999/xlink">
    <!-- Generator: Sketch 48.1 (47250) - http://www.bohemiancoding.com/sketch -->
    <title>settings_24</title>
    <desc>Created with Sketch.</desc>
    <defs>
        <path d="M9.12680989,5.05220851 C10.3826493,4.33281204 10.600043,3.58307268 10.75,2.83333333 C10.9166768,2 11.1666667,2 11.5833333,2 C12,2 12,2 12.4166667,2 C12.8333333,2 13.0000102,2 13.25,2.83333333 C13.4752575,3.58422221 13.6328714,4.33511109 14.8811783,5.05551731 C16.277881,5.43483977 16.9617473,5.05841451 17.5979287,4.63430436 C18.3050427,4.16290703 18.4818122,4.33967654 18.77644,4.63430436 C19.0710678,4.92893219 19.0710678,4.92893219 19.3656956,5.22356001 C19.6603235,5.51818784 19.7781818,5.63604616 19.3656956,6.40207132 C18.9940181,7.09231104 18.5745094,7.73471953 18.9477915,9.12680989 C19.667188,10.3826493 20.4169273,10.600043 21.1666667,10.75 C22,10.9166768 22,11.1666667 22,11.5833333 C22,12 22,12 22,12.4166667 C22,12.8333333 22,13.0000102 21.1666667,13.25 C20.4157778,13.4752575 19.6648889,13.6328714 18.9444827,14.8811783 C18.5651602,16.277881 18.9415855,16.9617473 19.3656956,17.5979287 C19.837093,18.3050427 19.6603235,18.4818122 19.3656956,18.77644 C19.0710678,19.0710678 19.0710678,19.0710678 18.77644,19.3656956 C18.4818122,19.6603235 18.3639538,19.7781818 17.5979287,19.3656956 C16.907689,18.9940181 16.2652805,18.5745094 14.8731901,18.9477915 C13.6173507,19.667188 13.399957,20.4169273 13.25,21.1666667 C13.0833232,22 12.8333333,22 12.4166667,22 C12,22 12,22 11.5833333,22 C11.1666667,22 10.9999898,22 10.75,21.1666667 C10.5247425,20.4157778 10.3671286,19.6648889 9.11882173,18.9444827 C7.72211902,18.5651602 7.03825272,18.9415855 6.40207132,19.3656956 C5.69495734,19.837093 5.51818784,19.6603235 5.22356001,19.3656956 C4.92893219,19.0710678 4.92893219,19.0710678 4.63430436,18.77644 C4.33967654,18.4818122 4.22181821,18.3639538 4.63430436,17.5979287 C5.00598188,16.907689 5.42549062,16.2652805 5.05220851,14.8731901 C4.33281204,13.6173507 3.58307268,13.399957 2.83333333,13.25 C2,13.0833232 2,12.8333333 2,12.4166667 C2,12 2,12 2,11.5833333 C2,11.1666667 2,10.9999898 2.83333333,10.75 C3.58422221,10.5247425 4.33511109,10.3671286 5.05551731,9.11882173 C5.43483977,7.72211902 5.05841451,7.03825272 4.63430436,6.40207132 C4.16290703,5.69495734 4.33967654,5.51818784 4.63430436,5.22356001 C4.92893219,4.92893219 4.92893219,4.92893219 5.22356001,4.63430436 C5.51818784,4.33967654 5.63604616,4.22181821 6.40207132,4.63430436 C7.09231104,5.00598188 7.73471953,5.42549062 9.12680989,5.05220851 Z M12,16.75 C14.6233526,16.75 16.75,14.6233526 16.75,12 C16.75,9.37664744 14.6233526,7.25 12,7.25 C9.37664744,7.25 7.25,9.37664744 7.25,12 C7.25,14.6233526 9.37664744,16.75 12,16.75 Z" id="path-1"></path>
    </defs>
    <g id="Artboard" stroke="none" stroke-width="1" fill="none" fill-rule="evenodd" transform="translate(-596.000000, -221.000000)">
        <g id="settings_24" transform="translate(596.000000, 221.000000)">
            <rect id="Mask" opacity="0.4" x="0" y="0" width="24" height="24"></rect>
            <mask id="mask-2" fill="white">
                <use xlink:href="#path-1"></use>
            </mask>
            <use id="Mask" fill="#FFFFFF" xlink:href="#path-1"></use>
        </g>
    </g>
</svg>