<?xml version="1.0" encoding="UTF-8"?>
<svg width="24px" height="24px" viewBox="0 0 24 24" version="1.1" xmlns="http://www.w3.org/2000/svg" xmlns:xlink="http://www.w3.org/1999/xlink">
    <!-- Generator: Sketch 48.1 (47250) - http://www.bohemiancoding.com/sketch -->
    <title>shuffle_24</title>
    <desc>Created with Sketch.</desc>
    <defs>
        <path d="M19,15 L19,13.7668512 C19,13.4893281 19.2249769,13.2643512 19.5025,13.2643512 C19.6128332,13.2643512 19.7200996,13.3006644 19.8077437,13.3676863 L22.7280152,15.6008352 C22.9484679,15.7694166 22.9905178,16.084791 22.8219364,16.3052437 C22.7949231,16.3405687 22.7633403,16.3721516 22.7280152,16.3991648 L19.8077437,18.6323137 C19.587291,18.8008951 19.2719166,18.7588452 19.1033352,18.5383925 C19.0363132,18.4507484 19,18.3434821 19,18.2331488 L19,17 L15.5,17 C13.7980257,17 12.7537101,16.1563035 11,13.7379157 C9.24628987,16.1563035 8.20197426,17 6.5,17 L4,17 C3.44771525,17 3,16.5522847 3,16 C3,15.4477153 3.44771525,15 4,15 L6.5,15 C7.39286896,15 8.20599845,14.2372127 9.78200284,12 C8.20599845,9.76278726 7.39286896,9 6.5,9 L4,9 C3.44771525,9 3,8.55228475 3,8 C3,7.44771525 3.44771525,7 4,7 L6.5,7 C8.20197426,7 9.24628987,7.84369645 11,10.2620843 C12.7537101,7.84369645 13.7980257,7 15.5,7 L19,7 L19,5.76685115 C19,5.48932807 19.2249769,5.26435115 19.5025,5.26435115 C19.6128332,5.26435115 19.7200996,5.3006644 19.8077437,5.36768634 L22.7280152,7.60083519 C22.9484679,7.76941662 22.9905178,8.08479104 22.8219364,8.30524368 C22.7949231,8.34056869 22.7633403,8.37215157 22.7280152,8.39916481 L19.8077437,10.6323137 C19.587291,10.8008951 19.2719166,10.7588452 19.1033352,10.5383925 C19.0363132,10.4507484 19,10.3434821 19,10.2331488 L19,9 L15.5,9 C14.607131,9 13.7940015,9.76278726 12.2179972,12 C13.7940015,14.2372127 14.607131,15 15.5,15 L19,15 Z" id="path-1"></path>
    </defs>
    <g id="Artboard" stroke="none" stroke-width="1" fill="none" fill-rule="evenodd" transform="translate(-452.000000, -655.000000)">
        <g id="shuffle_24" transform="translate(452.000000, 655.000000)">
            <polygon id="Mask" points="0 0 24 0 24 24 0 24"></polygon>
            <mask id="mask-2" fill="white">
                <use xlink:href="#path-1"></use>
            </mask>
            <use id="Mask" fill="#FFFFFF" xlink:href="#path-1"></use>
        </g>
    </g>
</svg>