<?xml version="1.0" encoding="UTF-8"?>
<svg width="24px" height="24px" viewBox="0 0 24 24" version="1.1" xmlns="http://www.w3.org/2000/svg" xmlns:xlink="http://www.w3.org/1999/xlink">
    <!-- Generator: Sketch 48.1 (47250) - http://www.bohemiancoding.com/sketch -->
    <title>skip_previous_24</title>
    <desc>Created with Sketch.</desc>
    <defs>
        <path d="M10.4172928,11.2683229 L10.4172928,7.45669505 C10.4172928,7.06816273 10.7322605,6.75319505 11.1207928,6.75319505 C11.2403333,6.75319505 11.3579023,6.78365621 11.4624032,6.84170352 L19.6401429,11.3842068 C19.9797933,11.5728731 20.1021902,12.0011583 19.913524,12.3408088 C19.8497168,12.455679 19.7550131,12.5503827 19.6401429,12.6141899 L11.4624032,17.1566932 C11.1227528,17.3453594 10.6944675,17.2229625 10.5058013,16.8833121 C10.447754,16.7788112 10.4172928,16.6612422 10.4172928,16.5417017 L10.4172928,12.7300738 L2.46281567,17.155546 C2.12329187,17.34444 1.69492458,17.2223305 1.50603056,16.8828067 C1.44783544,16.778205 1.41729279,16.6604842 1.41729279,16.5407838 L1.41729279,7.45761295 C1.41729279,7.06908063 1.73226047,6.75411295 2.12079279,6.75411295 C2.24049317,6.75411295 2.35821401,6.7846556 2.46281567,6.84285072 L10.4172928,11.2683229 Z" id="path-1"></path>
    </defs>
    <g id="Artboard" stroke="none" stroke-width="1" fill="none" fill-rule="evenodd" transform="translate(-548.000000, -607.000000)">
        <g id="skip_previous_24" transform="translate(548.000000, 607.000000)">
            <rect id="Mask" opacity="0.4" x="0" y="0" width="24" height="24"></rect>
            <mask id="mask-2" fill="white">
                <use xlink:href="#path-1"></use>
            </mask>
            <use id="Mask" fill="#FFFFFF" transform="translate(10.709727, 11.999262) scale(-1, 1) translate(-10.709727, -11.999262) " xlink:href="#path-1"></use>
        </g>
    </g>
</svg>