<?xml version="1.0" encoding="UTF-8"?>
<svg width="24px" height="24px" viewBox="0 0 24 24" version="1.1" xmlns="http://www.w3.org/2000/svg" xmlns:xlink="http://www.w3.org/1999/xlink">
    <!-- Generator: Sketch 48.1 (47250) - http://www.bohemiancoding.com/sketch -->
    <title>song_24</title>
    <desc>Created with Sketch.</desc>
    <defs>
        <path d="M13,11.4849987 L13,17.1332884 C13,21.6456871 12.1252767,22.5167315 8.62559711,22.9754819 C6.95737121,23.1941588 5,22.4370251 5,19.8137723 C5,18.5323686 5.80181302,17.3155093 7.46114282,16.9975229 C8.72837321,16.7546767 7.37036164,17.0157164 10.2372151,16.4834833 C10.9331904,16.354275 11.0120564,16.1052532 11.0120564,15.5746923 C11.0120564,15.3082829 11.0107381,12.9795485 11.0098148,11.3810448 L11.0024205,11.3806586 L11.0024205,7.06284446 C11.0024205,7.06284446 10.9969744,5.00457243 11.0024205,3.97544688 C11.0089341,2.744582 11.6820663,2.29222855 13.6662126,1.89147109 C13.6662126,1.89147109 16.6894239,1.31750328 18.3514378,1.0160512 C18.7192208,0.949343591 19,1.08623174 19,1.50807699 C19,1.50807699 18.9893226,4.13017807 19,5.56241553 C19.0031006,5.97831961 18.831576,6.16661657 18.4100289,6.2414378 C16.7283302,6.53992581 13.5451011,7.10179961 13.5451011,7.10179961 C13.1712219,7.19362719 13,7.45679919 13,7.83509117 L13,11.4849987 Z" id="path-1"></path>
    </defs>
    <g id="Artboard" stroke="none" stroke-width="1" fill="none" fill-rule="evenodd" transform="translate(-644.000000, -607.000000)">
        <g id="song_24" transform="translate(644.000000, 607.000000)">
            <polygon id="Mask" opacity="0.4" points="0 0 24 0 24 24 0 24"></polygon>
            <mask id="mask-2" fill="white">
                <use xlink:href="#path-1"></use>
            </mask>
            <use id="Mask" fill="#FFFFFF" xlink:href="#path-1"></use>
        </g>
    </g>
</svg>