<?xml version="1.0" encoding="UTF-8"?>
<svg width="24px" height="24px" viewBox="0 0 24 24" version="1.1" xmlns="http://www.w3.org/2000/svg" xmlns:xlink="http://www.w3.org/1999/xlink">
    <!-- Generator: Sketch 48.1 (47250) - http://www.bohemiancoding.com/sketch -->
    <title>user_incoming_24</title>
    <desc>Created with Sketch.</desc>
    <defs>
        <path d="M12,8 C12,5.79 10.21,4 8,4 C5.79,4 4,5.79 4,8 C4,10.21 5.79,12 8,12 C10.21,12 12,10.21 12,8 Z M17.4142136,8 L23,8 C23.5522847,8 24,8.44771525 24,9 C24,9.55228475 23.5522847,10 23,10 L17.4142136,10 L19.7071068,12.2928932 C20.0976311,12.6834175 20.0976311,13.3165825 19.7071068,13.7071068 C19.3165825,14.0976311 18.6834175,14.0976311 18.2928932,13.7071068 L14.2928932,9.70710678 C13.9023689,9.31658249 13.9023689,8.68341751 14.2928932,8.29289322 L18.2928932,4.29289322 C18.6834175,3.90236893 19.3165825,3.90236893 19.7071068,4.29289322 C20.0976311,4.68341751 20.0976311,5.31658249 19.7071068,5.70710678 L17.4142136,8 Z M0,18 C0,14.5 5.33,13.5 8,13.5 C10.67,13.5 16,14.5 16,18 L16,19 C16,19.5522847 15.5522847,20 15,20 L1,20 C0.44771525,20 6.76353751e-17,19.5522847 0,19 L0,18 Z" id="path-1"></path>
    </defs>
    <g id="Artboard" stroke="none" stroke-width="1" fill="none" fill-rule="evenodd" transform="translate(-692.000000, -413.000000)">
        <g id="user_incoming_24" transform="translate(692.000000, 413.000000)">
            <polygon id="Mask" opacity="0.100000001" points="0 0 24 0 24 24 0 24"></polygon>
            <mask id="mask-2" fill="white">
                <use xlink:href="#path-1"></use>
            </mask>
            <use id="Mask" fill="#FFFFFF" xlink:href="#path-1"></use>
        </g>
    </g>
</svg>