<?xml version="1.0" encoding="UTF-8"?>
<svg width="24px" height="24px" viewBox="0 0 24 24" version="1.1" xmlns="http://www.w3.org/2000/svg" xmlns:xlink="http://www.w3.org/1999/xlink">
    <!-- Generator: Sketch 48.1 (47250) - http://www.bohemiancoding.com/sketch -->
    <title>user_added_outline_24</title>
    <desc>Created with Sketch.</desc>
    <defs>
        <path d="M19.25,7.5 C19.25,5.84233856 17.9076614,4.5 16.25,4.5 C14.5923386,4.5 13.25,5.84233856 13.25,7.5 C13.25,9.15766144 14.5923386,10.5 16.25,10.5 C17.9076614,10.5 19.25,9.15766144 19.25,7.5 Z M20.75,7.5 C20.75,9.98608856 18.7360886,12 16.25,12 C13.7639114,12 11.75,9.98608856 11.75,7.5 C11.75,5.01391144 13.7639114,3 16.25,3 C18.7360886,3 20.75,5.01391144 20.75,7.5 Z M10,17.6831199 C10,18.5325351 9.97392569,18.5045485 10.4852941,18.5045485 L22.0147059,18.5045485 C22.5260743,18.5045485 22.5,18.5325351 22.5,17.6831199 C22.5,15.6710124 19.6472576,14.5045485 16.25,14.5045485 C12.8527424,14.5045485 10,15.6710124 10,17.6831199 Z M8.5,17.6831199 C8.5,14.4758397 12.098238,13.0045485 16.25,13.0045485 C20.401762,13.0045485 24,14.4758397 24,17.6831199 C24,19.338169 23.3791545,20.0045485 22.0147059,20.0045485 L10.4852941,20.0045485 C9.12084555,20.0045485 8.5,19.338169 8.5,17.6831199 Z M3.33446366,13.1814501 L7.71509739,8.72428221 C8.0054433,8.42886365 8.48029923,8.42475147 8.77571779,8.71509739 C9.07113635,9.0054433 9.07524853,9.48029923 8.78490261,9.77571779 L3.87075773,14.7757178 C3.57738614,15.0742149 3.09647149,15.0748411 2.80232349,14.7771091 L0.216468368,12.1597467 C-0.0746459464,11.8650854 -0.0717704787,11.3902203 0.222890905,11.099106 C0.517552289,10.8079917 0.992417317,10.8108672 1.28353163,11.1055286 L3.33446366,13.1814501 Z" id="path-1"></path>
    </defs>
    <g id="Artboard" stroke="none" stroke-width="1" fill="none" fill-rule="evenodd" transform="translate(-692.000000, -751.000000)">
        <g id="user_added_outline_24" transform="translate(692.000000, 751.000000)">
            <polygon id="Mask" opacity="0.100000001" points="0 0 24 0 24 24 0 24"></polygon>
            <mask id="mask-2" fill="white">
                <use xlink:href="#path-1"></use>
            </mask>
            <use id="Mask" fill="#FFFFFF" fill-rule="nonzero" xlink:href="#path-1"></use>
        </g>
    </g>
</svg>