<?xml version="1.0" encoding="UTF-8"?>
<svg width="24px" height="24px" viewBox="0 0 24 24" version="1.1" xmlns="http://www.w3.org/2000/svg" xmlns:xlink="http://www.w3.org/1999/xlink">
    <!-- Generator: Sketch 48.1 (47250) - http://www.bohemiancoding.com/sketch -->
    <title>voice_24</title>
    <desc>Created with Sketch.</desc>
    <defs>
        <path d="M11.0020325,18.9379821 C7.85685045,18.5446842 5.21995359,16.3157142 4.32233533,13.2545702 C4.18247265,12.7775971 4.45575467,12.2775529 4.9327278,12.1376902 C5.40970094,11.9978275 5.90974517,12.2711095 6.04960785,12.7480827 C6.81736052,15.3663465 9.22942615,17.1999985 12,17.1999985 C14.7724257,17.1999985 17.185705,15.3639066 17.9518193,12.7432081 C18.0912877,12.2661195 18.5911058,11.9924242 19.0681944,12.1318925 C19.545283,12.2713608 19.8189783,12.771179 19.67951,13.2482675 C18.7837415,16.3124824 16.1454401,18.5443991 12.9979675,18.9379824 C12.9993157,18.9592342 13,18.9806663 13,19.0022583 L13,21.5 C13,22.0522847 12.5522847,22.5 12,22.5 C11.4477153,22.5 11,22.0522847 11,21.5 L11,19.0022583 C11,18.9806662 11.0006843,18.959234 11.0020325,18.9379821 Z M12,2 C14.209139,2 16,3.790861 16,6 L16,11 C16,13.209139 14.209139,15 12,15 C9.790861,15 8,13.209139 8,11 L8,6 C8,3.790861 9.790861,2 12,2 Z" id="path-1"></path>
    </defs>
    <g id="Artboard" stroke="none" stroke-width="1" fill="none" fill-rule="evenodd" transform="translate(-836.000000, -365.000000)">
        <g id="voice_24" transform="translate(836.000000, 365.000000)">
            <polygon id="Mask" opacity="0.100000001" points="0 0 24 0 24 24 0 24"></polygon>
            <mask id="mask-2" fill="white">
                <use xlink:href="#path-1"></use>
            </mask>
            <use id="Mask" fill="#FFFFFF" fill-rule="nonzero" xlink:href="#path-1"></use>
        </g>
    </g>
</svg>