<?xml version="1.0" encoding="UTF-8"?>
<svg width="48px" height="48px" viewBox="0 0 48 48" version="1.1" xmlns="http://www.w3.org/2000/svg" xmlns:xlink="http://www.w3.org/1999/xlink">
    <!-- Generator: Sketch 48.2 (47327) - http://www.bohemiancoding.com/sketch -->
    <title>camera_48</title>
    <desc>Created with Sketch.</desc>
    <defs>
        <path d="M19.2578388,7 L28.7421612,7 C30.1217848,7 30.9303364,7.40158328 31.7226851,8.33249002 C31.7633617,8.38027969 32.4314236,9.2110144 33.1588065,10.1088499 C33.8861894,11.0066854 35.3674649,12 36.7272727,12 L37.6363636,12 C42,12 44,14.6666667 44,19.1111111 L44,32.8888889 C44,36.8162471 40.7438891,40 36.7272727,40 L24,40 C22,40.0049412 21,40.0049412 21,40 L11.2727273,40 C7.25611091,40 4,36.8162471 4,32.8888889 L4,19.1111111 C4,14.6666667 6,12 10.3636364,12 L11.2727273,12 C12.6325351,12 14.1138106,11.0066854 14.8411935,10.1088499 C15.5685764,9.2110144 16.2366383,8.38027969 16.2773149,8.33249002 C17.0696636,7.40158328 17.8782152,7 19.2578388,7 Z M15,25 C15,29.968 19.032,34 24,34 C28.968,34 33,29.968 33,25 C33,20.032 28.968,16 24,16 C19.032,16 15,20.032 15,25 Z M17.25,25 C17.25,21.2716797 20.2716797,18.25 24,18.25 C27.7283203,18.25 30.75,21.2716797 30.75,25 C30.75,28.7283203 27.7283203,31.75 24,31.75 C20.2716797,31.75 17.25,28.7283203 17.25,25 Z" id="path-1"></path>
    </defs>
    <g id="Artboard" stroke="none" stroke-width="1" fill="none" fill-rule="evenodd" transform="translate(-1018.000000, -1064.000000)">
        <g id="camera_48" transform="translate(1018.000000, 1064.000000)">
            <rect id="bounds" opacity="0.4" x="0" y="0" width="48" height="48"></rect>
            <mask id="mask-2" fill="white">
                <use xlink:href="#path-1"></use>
            </mask>
            <use id="Mask" fill="#FFFFFF" xlink:href="#path-1"></use>
        </g>
    </g>
</svg>