<?xml version="1.0" encoding="UTF-8"?>
<svg width="48px" height="48px" viewBox="0 0 48 48" version="1.1" xmlns="http://www.w3.org/2000/svg" xmlns:xlink="http://www.w3.org/1999/xlink">
    <!-- Generator: Sketch 48.2 (47327) - http://www.bohemiancoding.com/sketch -->
    <title>pause_48</title>
    <desc>Created with Sketch.</desc>
    <defs>
        <path d="M13.4240601,8 L18.5759399,8 C19.9147113,8 21,9.08528867 21,10.4240601 L21,37.5759399 C21,38.9147113 19.9147113,40 18.5759399,40 L13.4240601,40 C12.0852887,40 11,38.9147113 11,37.5759399 L11,10.4240601 C11,9.08528867 12.0852887,8 13.4240601,8 Z M29.4240601,8 L34.5759399,8 C35.9147113,8 37,9.08528867 37,10.4240601 L37,37.5759399 C37,38.9147113 35.9147113,40 34.5759399,40 L29.4240601,40 C28.0852887,40 27,38.9147113 27,37.5759399 L27,10.4240601 C27,9.08528867 28.0852887,8 29.4240601,8 Z" id="path-1"></path>
    </defs>
    <g id="Artboard" stroke="none" stroke-width="1" fill="none" fill-rule="evenodd" transform="translate(-1162.000000, -1064.000000)">
        <g id="pause_48" transform="translate(1162.000000, 1064.000000)">
            <rect id="Rectangle-737" opacity="0.4" x="0" y="0" width="48" height="48"></rect>
            <mask id="mask-2" fill="white">
                <use xlink:href="#path-1"></use>
            </mask>
            <use id="Mask" fill="#FFFFFF" xlink:href="#path-1"></use>
        </g>
    </g>
</svg>