<?xml version="1.0" encoding="UTF-8"?>
<svg width="48px" height="48px" viewBox="0 0 48 48" version="1.1" xmlns="http://www.w3.org/2000/svg" xmlns:xlink="http://www.w3.org/1999/xlink">
    <!-- Generator: Sketch 48.2 (47327) - http://www.bohemiancoding.com/sketch -->
    <title>skip_next_48</title>
    <desc>Created with Sketch.</desc>
    <defs>
        <path d="M22.9283659,23.1619941 L22.9283659,17.206561 C22.9283659,16.5438193 23.4656242,16.006561 24.1283659,16.006561 C24.33848,16.006561 24.5449112,16.0617301 24.7270119,16.16655 L37.3984442,23.4604167 C37.9728264,23.7910397 38.1704323,24.5246915 37.8398092,25.0990737 C37.7341961,25.2825525 37.581923,25.4348256 37.3984442,25.5404388 L24.7270119,32.8343055 C24.1526297,33.1649285 23.4189779,32.9673227 23.0883549,32.3929404 C22.983535,32.2108397 22.9283659,32.0044085 22.9283659,31.7942944 L22.9283659,25.836726 L10.7735202,32.8332378 C10.1991379,33.1638609 9.46548616,32.966255 9.13486312,32.3918727 C9.03004319,32.209772 8.97487417,32.0033408 8.97487417,31.7932268 L8.97487417,17.2054934 C8.97487417,16.5427517 9.51213247,16.0054934 10.1748742,16.0054934 C10.3849882,16.0054934 10.5914194,16.0606624 10.7735202,16.1654823 L22.9283659,23.1619941 Z" id="path-1"></path>
    </defs>
    <g id="Artboard" stroke="none" stroke-width="1" fill="none" fill-rule="evenodd" transform="translate(-1306.000000, -1064.000000)">
        <g id="skip_next_48" transform="translate(1330.000000, 1088.000000) scale(-1, 1) translate(-1330.000000, -1088.000000) translate(1306.000000, 1064.000000)">
            <rect id="Rectangle-738" opacity="0.4" x="0" y="0" width="48" height="48"></rect>
            <mask id="mask-2" fill="white">
                <use xlink:href="#path-1"></use>
            </mask>
            <use id="Mask" fill="#FFFFFF" transform="translate(23.487437, 24.499995) scale(-1, 1) translate(-23.487437, -24.499995) " xlink:href="#path-1"></use>
        </g>
    </g>
</svg>