<?xml version="1.0" encoding="UTF-8"?>
<svg width="48px" height="48px" viewBox="0 0 48 48" version="1.1" xmlns="http://www.w3.org/2000/svg" xmlns:xlink="http://www.w3.org/1999/xlink">
    <!-- Generator: Sketch 48.2 (47327) - http://www.bohemiancoding.com/sketch -->
    <title>skip_previous_48</title>
    <desc>Created with Sketch.</desc>
    <defs>
        <path d="M24.0006239,22.6789884 L24.0006239,16.8082678 C24.0006239,16.1455261 24.5378822,15.6082678 25.2006239,15.6082678 C25.4079265,15.6082678 25.6116936,15.6619711 25.7920682,15.7641443 L38.4891951,22.9564385 C39.0658486,23.2830841 39.2685199,24.0153527 38.9418743,24.5920062 C38.8347577,24.7811076 38.6782965,24.9375687 38.4891951,25.0446853 L25.7920682,32.2369795 C25.2154147,32.5636251 24.4831461,32.3609538 24.1565005,31.7843003 C24.0543272,31.6039258 24.0006239,31.4001587 24.0006239,31.1928561 L24.0006239,25.3200269 L11.7914404,32.2359253 C11.214787,32.5625709 10.4825184,32.3598995 10.1558728,31.7832461 C10.0536995,31.6028715 9.99999619,31.3991044 9.99999619,31.1918019 L9.99999619,16.8072135 C9.99999619,16.1444718 10.5372545,15.6072135 11.1999962,15.6072135 C11.4072988,15.6072135 11.6110659,15.6609168 11.7914404,15.7630901 L24.0006239,22.6789884 Z" id="path-1"></path>
    </defs>
    <g id="Artboard" stroke="none" stroke-width="1" fill="none" fill-rule="evenodd" transform="translate(-1234.000000, -1064.000000)">
        <g id="skip_previous_48" transform="translate(1258.000000, 1088.000000) scale(-1, 1) translate(-1258.000000, -1088.000000) translate(1234.000000, 1064.000000)">
            <rect id="Rectangle-738" opacity="0.4" x="0" y="0" width="48" height="48"></rect>
            <mask id="mask-2" fill="white">
                <use xlink:href="#path-1"></use>
            </mask>
            <use id="Mask" fill="#FFFFFF" xlink:href="#path-1"></use>
        </g>
    </g>
</svg>