<?xml version="1.0" encoding="UTF-8"?>
<svg width="32px" height="32px" viewBox="0 0 32 32" version="1.1" xmlns="http://www.w3.org/2000/svg" xmlns:xlink="http://www.w3.org/1999/xlink">
    <!-- Generator: Sketch 48.2 (47327) - http://www.bohemiancoding.com/sketch -->
    <title>camera_32</title>
    <desc>Created with Sketch.</desc>
    <defs>
        <path d="M12.8385592,4.5 L19.1614408,4.5 C20.0811899,4.5 20.6202243,4.76772219 21.1484567,5.38832668 C21.1755744,5.42018646 21.6533203,6.13513184 22.105871,6.73923326 C22.5584217,7.34333469 23.57831,8 24.4848485,8 L25.7575758,8 C28.6666667,8 30,9.77777778 30,12.7407407 L30,22.2592593 C30,24.8774981 27.8292594,27 25.1515152,27 L6.84848485,27 C4.17074061,27 2,24.8774981 2,22.2592593 L2,12.7407407 C2,9.77777778 3.33333333,8 6.24242424,8 L7.51515152,8 C8.42169004,8 9.40056266,7.40937473 9.89412899,6.73923326 C10.3876953,6.0690918 10.8244256,5.42018646 10.8515433,5.38832668 C11.3797757,4.76772219 11.9188101,4.5 12.8385592,4.5 Z M9.25,16.75 C9.25,20.476 12.274,23.5 16,23.5 C19.726,23.5 22.75,20.476 22.75,16.75 C22.75,13.024 19.726,10 16,10 C12.274,10 9.25,13.024 9.25,16.75 Z M11.25,16.75 C11.25,14.1263672 13.3763672,12 16,12 C18.6236328,12 20.75,14.1263672 20.75,16.75 C20.75,19.3736328 18.6236328,21.5 16,21.5 C13.3763672,21.5 11.25,19.3736328 11.25,16.75 Z" id="path-1"></path>
    </defs>
    <g id="Artboard" stroke="none" stroke-width="1" fill="none" fill-rule="evenodd" transform="translate(-1018.000000, -876.000000)">
        <g id="camera_32" transform="translate(1018.000000, 876.000000)">
            <rect id="bounds" opacity="0.4" x="0" y="0" width="32" height="32"></rect>
            <mask id="mask-2" fill="white">
                <use xlink:href="#path-1"></use>
            </mask>
            <use id="Mask" fill="#FFFFFF" xlink:href="#path-1"></use>
        </g>
    </g>
</svg>