<?xml version="1.0" encoding="UTF-8"?>
<svg width="32px" height="32px" viewBox="0 0 32 32" version="1.1" xmlns="http://www.w3.org/2000/svg" xmlns:xlink="http://www.w3.org/1999/xlink">
    <!-- Generator: Sketch 48.2 (47327) - http://www.bohemiancoding.com/sketch -->
    <title>discussions_32</title>
    <desc>Created with Sketch.</desc>
    <defs>
        <path d="M24.9978218,8.67014136 L24.9978218,15.9866547 C24.9978218,18.2068394 23.1980065,20.0066547 20.9778218,20.0066547 L8.99782178,20.0066547 L8.99782178,21.9966547 C8.99782178,23.1067471 9.89772944,24.0066547 11.0078218,24.0066547 L23.6644884,24.0066547 L27.8540611,28.1962274 C28.1157123,28.4578786 28.5399329,28.4578786 28.8015842,28.1962274 C28.9272334,28.0705781 28.9978225,27.9001611 28.9978226,27.7224662 L28.9978324,10.6801414 C28.997833,9.57004902 28.0979258,8.6701409 26.9878335,8.67014033 C26.9878331,8.67014033 26.9878328,8.67014033 26.9878324,8.67014033 L24.9978218,8.67014136 Z M20.32,4 L5.01,4 C3.89990765,4 3,4.89990765 3,6.01 L3,21.7189903 C3,22.0890211 3.29996922,22.3889903 3.67,22.3889903 C3.84769505,22.3889903 4.01811217,22.3184012 4.14376154,22.1927518 L8.33333333,18.00318 L20.99,18.00318 C22.1000923,18.00318 23,17.1032724 23,15.99318 L23,6.68 C23,5.19987687 21.8001231,4 20.32,4 Z" id="path-1"></path>
    </defs>
    <g id="Artboard" stroke="none" stroke-width="1" fill="none" fill-rule="evenodd" transform="translate(-1130.000000, -932.000000)">
        <g id="discussions_32" transform="translate(1130.000000, 932.000000)">
            <polygon id="Shape" points="0 0 32 0 32 32 0 32"></polygon>
            <mask id="mask-2" fill="white">
                <use xlink:href="#path-1"></use>
            </mask>
            <use id="Mask" fill="#FFFFFF" xlink:href="#path-1"></use>
        </g>
    </g>
</svg>