<?xml version="1.0" encoding="UTF-8"?>
<svg width="32px" height="32px" viewBox="0 0 32 32" version="1.1" xmlns="http://www.w3.org/2000/svg" xmlns:xlink="http://www.w3.org/1999/xlink">
    <!-- Generator: Sketch 48.2 (47327) - http://www.bohemiancoding.com/sketch -->
    <title>document_32</title>
    <desc>Created with Sketch.</desc>
    <defs>
        <path d="M4.49770268,7.00341872 L4.49770268,23.9999759 C4.49770268,26.2091149 6.28856368,27.9999759 8.49770268,27.9999759 L22.9999702,28.0031126 C25.2091092,28.0031126 26.9999702,26.2122516 26.9999702,24.0031126 C26.9999702,24.0020666 26.9999697,24.0010207 26.9999689,23.9999747 L26.9875024,12.1067547 C26.9869481,11.400236 26.7060392,10.7228133 26.206455,10.2232289 L19.7676961,3.78446765 C19.2675991,3.28437043 18.5893218,3.00341872 17.8820777,3.00341872 L8.49770268,3.00341872 C6.28856368,3.00341872 4.49770268,4.79427973 4.49770268,7.00341872 Z M17.6827736,5.68585891 L23.3167584,11.3170921 C23.4730063,11.4732636 23.4730681,11.7265296 23.3168966,11.8827775 C23.2418768,11.9578339 23.1401063,12.0000035 23.0339864,12.0000039 L17.6666667,12.0000281 C17.2984768,12.0000296 16.9999988,11.701554 16.9999973,11.3333642 C16.9999973,11.3333633 16.9999973,11.3333624 16.9999973,11.3333615 L17,5.96877071 C17,5.7478568 17.1790861,5.5687707 17.4,5.5687707 C17.5060528,5.5687707 17.6077647,5.61088662 17.6827736,5.68585891 Z" id="path-1"></path>
    </defs>
    <g id="Artboard" stroke="none" stroke-width="1" fill="none" fill-rule="evenodd" transform="translate(-1354.000000, -876.000000)">
        <g id="document_32" transform="translate(1354.000000, 876.000000)">
            <rect id="Bounds" opacity="0.4" x="0" y="0" width="32" height="32"></rect>
            <mask id="mask-2" fill="white">
                <use xlink:href="#path-1"></use>
            </mask>
            <use id="Mask" fill="#FFFFFF" xlink:href="#path-1"></use>
        </g>
    </g>
</svg>