<?xml version="1.0" encoding="UTF-8"?>
<svg width="32px" height="32px" viewBox="0 0 32 32" version="1.1" xmlns="http://www.w3.org/2000/svg" xmlns:xlink="http://www.w3.org/1999/xlink">
    <!-- Generator: Sketch 48.2 (47327) - http://www.bohemiancoding.com/sketch -->
    <title>gallery_32</title>
    <desc>Created with Sketch.</desc>
    <defs>
        <path d="M24.5,4 L7.5,4 C5.56700338,4 4,5.56700338 4,7.5 L4,24.5 C4,26.4329966 5.56700338,28 7.5,28 L24.5,28 C26.4329966,28 28,26.4329966 28,24.5 L28,7.5 C28,5.56700338 26.4329966,4 24.5,4 Z M14.6666667,22.0133333 L18.9315406,16.5177387 C19.1008411,16.2995829 19.4149365,16.2599778 19.6330923,16.4292783 C19.6683434,16.4566351 19.699774,16.4885875 19.7265466,16.5242843 L24.7333333,23.2 C24.8990188,23.4209139 24.8542472,23.7343146 24.6333333,23.9 C24.5467852,23.9649111 24.4415184,24 24.3333333,24 L7.68898635,24 C7.41284397,24 7.18898635,23.7761424 7.18898635,23.5 C7.18898635,23.3888121 7.22604745,23.2807961 7.29431024,23.1930297 L10.9514493,18.4909938 C11.1209843,18.2730202 11.4351221,18.233753 11.6530957,18.403288 C11.6816259,18.4254782 11.707666,18.4506965 11.7307592,18.4785008 L14.6666667,22.0133333 Z" id="path-1"></path>
    </defs>
    <g id="Artboard" stroke="none" stroke-width="1" fill="none" fill-rule="evenodd" transform="translate(-1074.000000, -876.000000)">
        <g id="gallery_32" transform="translate(1074.000000, 876.000000)">
            <rect id="Rectangle-1996" opacity="0.4" x="0" y="0" width="32" height="32"></rect>
            <mask id="mask-2" fill="white">
                <use xlink:href="#path-1"></use>
            </mask>
            <use id="Mask" fill="#FFFFFF" xlink:href="#path-1"></use>
        </g>
    </g>
</svg>