<?xml version="1.0" encoding="UTF-8"?>
<svg width="32px" height="32px" viewBox="0 0 32 32" version="1.1" xmlns="http://www.w3.org/2000/svg" xmlns:xlink="http://www.w3.org/1999/xlink">
    <!-- Generator: Sketch 48.2 (47327) - http://www.bohemiancoding.com/sketch -->
    <title>gift_32</title>
    <desc>Created with Sketch.</desc>
    <defs>
        <path d="M27.9957717,13.0020616 L27.9957682,15.5001628 C27.9957675,16.3285894 27.3241948,17.0001615 26.4957682,17.0001615 L24.9973551,17.0001628 L24.9973551,26.0035807 C24.9973551,27.660435 23.6542094,29.0035807 21.9973551,29.0035807 L9.99584961,29.0035807 C8.33899536,29.0035807 6.99584961,27.660435 6.99584961,26.0035807 L6.99584961,17.0001628 L8.32918294,17.0001628 C7.38612196,17.0001628 6.44306098,17.0001628 5.5,17.0001628 L5.5,17.0001628 C4.67157288,17.0001628 4,16.3285899 4,15.5001628 L4,13.0020616 C4,11.3452074 5.34314575,10.0020616 7,10.0020616 L24.9957742,10.0020591 C26.6526285,10.0020591 27.9957742,11.3452048 27.9957742,13.0020591 C27.9957742,13.0020599 27.9957742,13.0020608 27.9957742,13.0020616 Z M16.2705743,10 L17,10 L17,17 L25,17 L25,19 L17,19 L17,29 L15,29 L15,19 L7,19 L7,17 L15,17 L15,10 L15.7227322,10 C11.7867739,9.94106138 7.32998657,8.62323679 7.32998657,6.6687283 C7.32998657,4.6687283 9.99665324,2.6687283 11.9966532,3.33539497 C13.3297575,3.77976305 14.6628617,6.00129806 15.995966,10 L15.9973405,10 C17.3304447,6.00129806 18.663549,3.77976305 19.9966532,3.33539497 C21.9966532,2.6687283 24.6633199,4.6687283 24.6633199,6.6687283 C24.6633199,8.62323679 20.2065326,9.94106138 16.2705743,10 Z" id="path-1"></path>
    </defs>
    <g id="Artboard" stroke="none" stroke-width="1" fill="none" fill-rule="evenodd" transform="translate(-1298.000000, -876.000000)">
        <g id="gift_32" transform="translate(1298.000000, 876.000000)">
            <polygon id="Bounds" opacity="0.100000001" points="0 0 32 0 32 32 0 32"></polygon>
            <mask id="mask-2" fill="white">
                <use xlink:href="#path-1"></use>
            </mask>
            <use id="Mask" fill="#FFFFFF" xlink:href="#path-1"></use>
        </g>
    </g>
</svg>