<?xml version="1.0" encoding="UTF-8"?>
<svg width="32px" height="32px" viewBox="0 0 32 32" version="1.1" xmlns="http://www.w3.org/2000/svg" xmlns:xlink="http://www.w3.org/1999/xlink">
    <!-- Generator: Sketch 48.2 (47327) - http://www.bohemiancoding.com/sketch -->
    <title>music_32</title>
    <desc>Created with Sketch.</desc>
    <defs>
        <path d="M25,13.5 L25,19.4366475 C25,24.0652632 23.5187875,25.0626996 20.7922638,25.4293068 C19.3757982,25.6197642 17.1666667,24.8769821 17.1666667,22.1861674 C17.1666667,20.8717611 18.261395,19.5659829 19.6278095,19.2973854 C20.8950399,19.0482847 19.2168108,19.3739827 22.0836642,18.8280419 C22.5454841,18.7400966 22.5065206,18.411189 22.5065206,18.0548167 C22.5065206,17.8948526 22.5050212,15.162638 22.5041005,13.4999999 L22.5,13.5 L22.5065206,10.0652076 C22.5065206,9.74979914 22.409091,9.60117525 22.0466171,9.69183255 L12.486006,11.3418004 C12.0798159,11.4433915 12,11.6120783 12,12 L12,15.335709 L12,21.9806683 C12,26.609284 10.3521208,27.6067204 7.62559711,27.9733276 C6.20913153,28.163785 4,27.4210029 4,24.7301882 C4,23.4157819 5.09472834,22.1100037 6.46114282,21.8414062 C7.72837321,21.5923055 6.21681076,21.9180035 9.08366423,21.3720627 C9.54548415,21.2841174 9.50652064,20.9552098 9.50652064,20.5988375 C9.50652064,20.1782726 9.5033983,14.7806991 9.5033983,14.7806991 L9.50381111,14.7806803 L9.5,14 L9.5,11.3995315 C9.5,11.3995315 9.4945481,9.30128998 9.5,8.25217989 C9.50652064,6.99741291 10.0137126,6.53627523 12,6.12773548 L22.3333333,4.28024329 C22.3333333,4.28024329 25,3.4465529 25,5.61414792 L25,13.5 Z" id="path-1"></path>
    </defs>
    <g id="Artboard" stroke="none" stroke-width="1" fill="none" fill-rule="evenodd" transform="translate(-1130.000000, -876.000000)">
        <g id="music_32" transform="translate(1130.000000, 876.000000)">
            <polygon id="Bounds" opacity="0.4" points="0 0 32 0 32 32 0 32"></polygon>
            <mask id="mask-2" fill="white">
                <use xlink:href="#path-1"></use>
            </mask>
            <use id="Mask" fill="#FFFFFF" xlink:href="#path-1"></use>
        </g>
    </g>
</svg>