<?xml version="1.0" encoding="UTF-8"?>
<svg width="32px" height="32px" viewBox="0 0 32 32" version="1.1" xmlns="http://www.w3.org/2000/svg" xmlns:xlink="http://www.w3.org/1999/xlink">
    <!-- Generator: Sketch 48.2 (47327) - http://www.bohemiancoding.com/sketch -->
    <title>videos_32</title>
    <desc>Created with Sketch.</desc>
    <defs>
        <path d="M9,3 L23,3 C25.209139,3 27,4.790861 27,7 L27,24 C27,26.209139 25.209139,28 23,28 L9,28 C6.790861,28 5,26.209139 5,24 L5,7 C5,4.790861 6.790861,3 9,3 Z M8.75,6 C8.33578644,6 8,6.33578644 8,6.75 L8,7.75 C8,8.16421356 8.33578644,8.5 8.75,8.5 L9.75,8.5 C10.1642136,8.5 10.5,8.16421356 10.5,7.75 L10.5,6.75 C10.5,6.33578644 10.1642136,6 9.75,6 L8.75,6 Z M8.75,11.5 C8.33578644,11.5 8,11.8357864 8,12.25 L8,13.25 C8,13.6642136 8.33578644,14 8.75,14 L9.75,14 C10.1642136,14 10.5,13.6642136 10.5,13.25 L10.5,12.25 C10.5,11.8357864 10.1642136,11.5 9.75,11.5 L8.75,11.5 Z M8.75,17 C8.33578644,17 8,17.3357864 8,17.75 L8,18.75 C8,19.1642136 8.33578644,19.5 8.75,19.5 L9.75,19.5 C10.1642136,19.5 10.5,19.1642136 10.5,18.75 L10.5,17.75 C10.5,17.3357864 10.1642136,17 9.75,17 L8.75,17 Z M8.75,22.5 C8.33578644,22.5 8,22.8357864 8,23.25 L8,24.25 C8,24.6642136 8.33578644,25 8.75,25 L9.75,25 C10.1642136,25 10.5,24.6642136 10.5,24.25 L10.5,23.25 C10.5,22.8357864 10.1642136,22.5 9.75,22.5 L8.75,22.5 Z M22.25,6 C21.8357864,6 21.5,6.33578644 21.5,6.75 L21.5,7.75 C21.5,8.16421356 21.8357864,8.5 22.25,8.5 L23.25,8.5 C23.6642136,8.5 24,8.16421356 24,7.75 L24,6.75 C24,6.33578644 23.6642136,6 23.25,6 L22.25,6 Z M22.25,11.5 C21.8357864,11.5 21.5,11.8357864 21.5,12.25 L21.5,13.25 C21.5,13.6642136 21.8357864,14 22.25,14 L23.25,14 C23.6642136,14 24,13.6642136 24,13.25 L24,12.25 C24,11.8357864 23.6642136,11.5 23.25,11.5 L22.25,11.5 Z M22.25,17 C21.8357864,17 21.5,17.3357864 21.5,17.75 L21.5,18.75 C21.5,19.1642136 21.8357864,19.5 22.25,19.5 L23.25,19.5 C23.6642136,19.5 24,19.1642136 24,18.75 L24,17.75 C24,17.3357864 23.6642136,17 23.25,17 L22.25,17 Z M22.25,22.5 C21.8357864,22.5 21.5,22.8357864 21.5,23.25 L21.5,24.25 C21.5,24.6642136 21.8357864,25 22.25,25 L23.25,25 C23.6642136,25 24,24.6642136 24,24.25 L24,23.25 C24,22.8357864 23.6642136,22.5 23.25,22.5 L22.25,22.5 Z" id="path-1"></path>
    </defs>
    <g id="Artboard" stroke="none" stroke-width="1" fill="none" fill-rule="evenodd" transform="translate(-1074.000000, -932.000000)">
        <g id="videos_32" transform="translate(1074.000000, 932.000000)">
            <rect id="bounds" opacity="0.4" x="0" y="0" width="32" height="32"></rect>
            <mask id="mask-2" fill="white">
                <use xlink:href="#path-1"></use>
            </mask>
            <use id="Mask" fill="#FFFFFF" xlink:href="#path-1"></use>
        </g>
    </g>
</svg>