<svg width="45" height="24" viewBox="0 0 45 24" fill="none" xmlns="http://www.w3.org/2000/svg">
<path d="M0 11.52C0 6.09 0 3.374 1.687 1.687C3.374 0 6.09 0 11.52 0H12.48C17.91 0 20.626 0 22.313 1.687C24 3.374 24 6.09 24 11.52V12.48C24 17.91 24 20.626 22.313 22.313C20.626 24 17.91 24 12.48 24H11.52C6.09 24 3.374 24 1.687 22.313C0 20.626 0 17.91 0 12.48V11.52Z" fill="#0077FF"/>
<path d="M12.77 17.29C7.3 17.29 4.18 13.54 4.05 7.3H6.79C6.88 11.88 8.9 13.82 10.5 14.22V7.3H13.08V11.25C14.66 11.08 16.32 9.28 16.88 7.3H19.46C19.03 9.74 17.23 11.54 15.95 12.28C17.23 12.88 19.28 14.45 20.06 17.29H17.22C16.61 15.39 15.09 13.92 13.08 13.72V17.29H12.77Z" fill="white"/>
<path d="M33.595 18.21C34.2481 18.2092 34.8897 18.0384 35.4568 17.7143C36.0238 17.3903 36.4967 16.9242 36.829 16.362L37.312 18H39.118V7.08H36.703V13.4C36.703 14.955 35.674 16.047 34.267 16.047C32.881 16.047 31.915 14.955 31.915 13.401V7.08H29.5V13.674C29.5 16.299 31.264 18.21 33.595 18.21ZM43.371 5.526C44.232 5.526 44.862 4.916 44.862 4.056C44.862 3.195 44.232 2.565 43.372 2.565C42.489 2.565 41.859 3.195 41.859 4.055C41.859 4.917 42.489 5.526 43.371 5.526ZM44.568 18V7.08H42.153V18H44.568Z" fill="#E1E3E6"/>
</svg>
